<svg width="80" height="25" viewBox="0 0 80 25" fill="none" xmlns="http://www.w3.org/2000/svg">
<path d="M47.6002 9.56031C46.9482 9.56031 46.3682 9.44031 45.8602 9.20031C45.3562 8.96031 44.9602 8.60431 44.6722 8.13231C44.3842 7.65631 44.2402 7.07231 44.2402 6.38031C44.2402 5.70031 44.3382 5.05631 44.5342 4.44831C44.7342 3.84031 45.0082 3.28431 45.3562 2.78031C45.7082 2.27631 46.1162 1.84031 46.5802 1.47231C47.0482 1.10431 47.5522 0.820313 48.0922 0.620313C48.6322 0.420313 49.1882 0.320312 49.7602 0.320312C50.2762 0.320312 50.7302 0.432312 51.1222 0.656312C51.5182 0.876313 51.8262 1.19231 52.0462 1.60431C52.2662 2.01631 52.3722 2.50831 52.3642 3.08031H52.2382C52.2262 2.66831 52.1582 2.30831 52.0342 2.00031C51.9142 1.69231 51.7522 1.43631 51.5482 1.23231C51.3482 1.02831 51.1202 0.876313 50.8642 0.776312C50.6082 0.676312 50.3402 0.626312 50.0602 0.626312C49.5722 0.626312 49.1262 0.764313 48.7222 1.04031C48.3182 1.31631 47.9602 1.68631 47.6482 2.15031C47.3402 2.61431 47.0802 3.13031 46.8682 3.69831C46.6562 4.26231 46.4942 4.84031 46.3822 5.43231C46.2742 6.02031 46.2202 6.57431 46.2202 7.09431C46.2202 7.50231 46.2602 7.87631 46.3402 8.21631C46.4202 8.55631 46.5582 8.82831 46.7542 9.03231C46.9542 9.23631 47.2322 9.33831 47.5882 9.33831C47.8562 9.33831 48.0942 9.29031 48.3022 9.19431C48.5102 9.09831 48.6942 8.97631 48.8542 8.82831C49.0142 8.68031 49.1502 8.52631 49.2622 8.36631C49.3782 8.20631 49.4722 8.06431 49.5442 7.94031L50.0422 6.05031H52.0102L51.6442 7.46031C51.5082 7.64831 51.3142 7.86231 51.0622 8.10231C50.8102 8.34231 50.5062 8.57431 50.1502 8.79831C49.7982 9.01831 49.4062 9.20031 48.9742 9.34431C48.5462 9.48831 48.0882 9.56031 47.6002 9.56031ZM48.8602 6.13431V5.91231H52.7002V6.13431H48.8602ZM52.2442 3.08031L52.2382 2.52831C52.1942 2.31631 52.1282 2.09431 52.0402 1.86231C51.9522 1.62631 51.8342 1.41231 51.6862 1.22031L52.8802 0.440312H53.0722L52.4602 3.08031H52.2442Z" fill="#5E5E5E"/>
<path d="M58.0744 9.61431C57.4224 9.61431 56.8664 9.50631 56.4064 9.29031C55.9504 9.07431 55.6264 8.75031 55.4344 8.31831C55.2424 7.88231 55.2224 7.33631 55.3744 6.68031L56.8144 0.440312H58.6744L57.2344 6.56031C57.1464 6.93631 57.0924 7.29031 57.0724 7.62231C57.0564 7.95031 57.0904 8.24031 57.1744 8.49231C57.2624 8.74031 57.4124 8.93631 57.6244 9.08031C57.8364 9.22431 58.1284 9.29631 58.5004 9.29631C58.9604 9.29631 59.3764 9.20231 59.7484 9.01431C60.1244 8.82631 60.4444 8.53831 60.7084 8.15031C60.9764 7.76231 61.1784 7.27231 61.3144 6.68031L62.7484 0.440312H62.9764L61.5304 6.68031C61.3864 7.30831 61.1644 7.84031 60.8644 8.27631C60.5644 8.71231 60.1824 9.04431 59.7184 9.27231C59.2544 9.50031 58.7064 9.61431 58.0744 9.61431ZM55.6744 0.662313V0.440312H59.8144V0.662313H55.6744ZM61.5544 0.662313V0.440312H63.9904V0.662313H61.5544Z" fill="#5E5E5E"/>
<path d="M64.4997 9.44031L66.5877 0.440312H68.4477L66.3597 9.44031H64.4997ZM63.4797 9.44031V9.21831H67.7397C68.2877 9.21831 68.7637 9.11831 69.1677 8.91831C69.5717 8.71431 69.9137 8.42831 70.1937 8.06031C70.4737 7.68831 70.7017 7.24831 70.8777 6.74031H71.0997L70.4757 9.44031H63.4797ZM69.0057 6.28431C69.0057 6.01631 68.9597 5.77831 68.8677 5.57031C68.7797 5.35831 68.6517 5.19431 68.4837 5.07831C68.3197 4.95831 68.1237 4.89831 67.8957 4.89831H67.1037V4.67631H67.8957C68.1237 4.67631 68.3517 4.62231 68.5797 4.51431C68.8117 4.40231 69.0237 4.24631 69.2157 4.04631C69.4077 3.84631 69.5637 3.61231 69.6837 3.34431H69.9057L69.2277 6.28431H69.0057ZM71.6457 2.90031C71.6857 2.47231 71.6497 2.09031 71.5377 1.75431C71.4297 1.41431 71.2337 1.14831 70.9497 0.956313C70.6697 0.760313 70.2957 0.662313 69.8277 0.662313H65.5077V0.440312H72.4437L71.8677 2.90031H71.6457Z" fill="#5E5E5E"/>
<path d="M41.9302 22.4404L44.0302 13.4404H45.8902L43.7902 22.4404H41.9302ZM40.7902 22.4404V22.2184H45.1102V22.4404H40.7902ZM48.1702 22.5304C47.7542 22.5304 47.4342 22.4664 47.2102 22.3384C46.9902 22.2064 46.8362 22.0324 46.7482 21.8164C46.6642 21.5964 46.6222 21.3504 46.6222 21.0784C46.6262 20.8064 46.6442 20.5244 46.6762 20.2324C46.7122 19.9404 46.7362 19.6584 46.7482 19.3864C46.7602 19.1144 46.7342 18.8684 46.6702 18.6484C46.6102 18.4284 46.4862 18.2544 46.2982 18.1264C46.1142 17.9984 45.8382 17.9344 45.4702 17.9344H44.5102V17.8144H46.0102C46.6422 17.8144 47.1382 17.8944 47.4982 18.0544C47.8582 18.2104 48.1202 18.4204 48.2842 18.6844C48.4482 18.9484 48.5462 19.2384 48.5782 19.5544C48.6102 19.8664 48.6102 20.1784 48.5782 20.4904C48.5502 20.8024 48.5242 21.0904 48.5002 21.3544C48.4762 21.6144 48.4882 21.8244 48.5362 21.9844C48.5842 22.1444 48.7042 22.2244 48.8962 22.2244C49.0082 22.2244 49.1102 22.2104 49.2022 22.1824C49.2942 22.1504 49.3882 22.1164 49.4842 22.0804L49.5502 22.3024C49.3342 22.3824 49.1182 22.4404 48.9022 22.4764C48.6902 22.5124 48.4462 22.5304 48.1702 22.5304ZM44.5102 17.8444V17.7064H45.7102C46.0502 17.7064 46.3482 17.6464 46.6042 17.5264C46.8602 17.4064 47.0782 17.2464 47.2582 17.0464C47.4382 16.8424 47.5842 16.6184 47.6962 16.3744C47.8082 16.1304 47.8902 15.8844 47.9422 15.6364C47.9942 15.3844 48.0202 15.1524 48.0202 14.9404C48.0202 14.7924 48.0042 14.6444 47.9722 14.4964C47.9442 14.3444 47.8862 14.2064 47.7982 14.0824C47.7142 13.9544 47.5902 13.8524 47.4262 13.7764C47.2662 13.7004 47.0542 13.6624 46.7902 13.6624H42.7702V13.4404H47.2102C47.7342 13.4404 48.2042 13.4984 48.6202 13.6144C49.0362 13.7304 49.3642 13.9204 49.6042 14.1844C49.8482 14.4484 49.9702 14.8004 49.9702 15.2404C49.9702 15.8004 49.8082 16.2744 49.4842 16.6624C49.1602 17.0464 48.7002 17.3404 48.1042 17.5444C47.5122 17.7444 46.8142 17.8444 46.0102 17.8444H44.5102Z" fill="#5E5E5E"/>
<path d="M54.1195 22.4404L56.2075 13.4404H58.0675L55.9795 22.4404H54.1195ZM52.8835 22.4404V22.2184H57.3835V22.4404H52.8835ZM52.5175 16.3204L53.1715 13.4404H61.1035L60.4495 16.3204H60.2215C60.2815 15.8124 60.2775 15.3584 60.2095 14.9584C60.1415 14.5584 59.9935 14.2424 59.7655 14.0104C59.5415 13.7784 59.2155 13.6624 58.7875 13.6624H55.3675C55.0435 13.6624 54.7495 13.7304 54.4855 13.8664C54.2215 13.9984 53.9815 14.1844 53.7655 14.4244C53.5535 14.6644 53.3615 14.9464 53.1895 15.2704C53.0215 15.5904 52.8715 15.9404 52.7395 16.3204H52.5175Z" fill="#5E5E5E"/>
<path d="M61.5555 22.4404L63.6435 13.4404H65.5035L63.4155 22.4404H61.5555ZM60.5355 22.4404V22.2184H64.7955C65.3435 22.2184 65.8195 22.1184 66.2235 21.9184C66.6275 21.7144 66.9695 21.4284 67.2495 21.0604C67.5295 20.6884 67.7575 20.2484 67.9335 19.7404H68.1555L67.5315 22.4404H60.5355ZM66.0615 19.2844C66.0615 19.0164 66.0155 18.7784 65.9235 18.5704C65.8355 18.3584 65.7075 18.1944 65.5395 18.0784C65.3755 17.9584 65.1795 17.8984 64.9515 17.8984H64.1595V17.6764H64.9515C65.1795 17.6764 65.4075 17.6224 65.6355 17.5144C65.8675 17.4024 66.0795 17.2464 66.2715 17.0464C66.4635 16.8464 66.6195 16.6124 66.7395 16.3444H66.9615L66.2835 19.2844H66.0615ZM68.7015 15.9004C68.7415 15.4724 68.7055 15.0904 68.5935 14.7544C68.4815 14.4144 68.2855 14.1484 68.0055 13.9564C67.7255 13.7604 67.3515 13.6624 66.8835 13.6624H62.5635V13.4404H69.4995L68.9235 15.9004H68.7015Z" fill="#5E5E5E"/>
<path d="M75.5798 22.4404L72.4718 13.4404H74.5238L77.6798 22.4404H75.5798ZM69.1718 22.4404V22.2184H72.0518V22.4404H69.1718ZM70.3178 22.4404L74.7338 17.4364H75.0158L70.6118 22.4404H70.3178ZM74.4278 22.4404V22.2184H78.5078V22.4404H74.4278ZM71.6318 13.6624V13.4404H75.7118V13.6624H71.6318ZM74.7098 17.9164L78.5258 13.4644H78.7958L75.0158 17.9164H74.7098ZM77.2118 13.6624V13.4404H79.8518V13.6624H77.2118Z" fill="#5E5E5E"/>
<path d="M5.28 24.592L2.24 0.32H7.52L9.536 19.888L20.88 0.32H21.104L7.04 24.592H5.28ZM0 0.512001V0.32H11.2V0.512001H0ZM16.96 0.512001V0.32H24.064V0.512001H16.96Z" fill="#FF5E00"/>
<path d="M24.9938 24.64C22.3058 24.64 20.2204 23.8773 18.7378 22.352C17.2551 20.8267 16.5138 18.7627 16.5138 16.16C16.5138 14.2827 16.7751 12.5227 17.2978 10.88C17.8204 9.23733 18.5351 7.74933 19.4417 6.416C20.3591 5.08267 21.4097 3.936 22.5938 2.976C23.7778 2.016 25.0364 1.28 26.3698 0.768C27.7138 0.256 29.0684 0 30.4338 0C32.1191 0 33.5964 0.346667 34.8658 1.04C36.1458 1.72267 37.1378 2.69867 37.8418 3.968C38.5564 5.23733 38.9137 6.74133 38.9137 8.48C38.9137 10.8267 38.5297 12.9867 37.7617 14.96C36.9937 16.9227 35.9484 18.6293 34.6258 20.08C33.3138 21.5307 31.8258 22.656 30.1618 23.456C28.4978 24.2453 26.7751 24.64 24.9938 24.64ZM24.9938 24.464C25.8684 24.464 26.6898 24.176 27.4578 23.6C28.2364 23.0133 28.9511 22.224 29.6017 21.232C30.2631 20.2293 30.8498 19.0933 31.3617 17.824C31.8738 16.544 32.3111 15.2 32.6738 13.792C33.0364 12.3733 33.3138 10.9653 33.5058 9.568C33.6978 8.16 33.7938 6.83733 33.7938 5.6C33.7938 4.90667 33.7351 4.24 33.6178 3.6C33.5004 2.94933 33.3138 2.368 33.0578 1.856C32.8018 1.344 32.4551 0.938668 32.0177 0.640001C31.5911 0.330667 31.0631 0.176001 30.4338 0.176001C29.6124 0.176001 28.8231 0.469334 28.0658 1.056C27.3191 1.632 26.6151 2.42133 25.9538 3.424C25.3031 4.416 24.7111 5.552 24.1777 6.832C23.6551 8.10133 23.2017 9.44533 22.8177 10.864C22.4444 12.272 22.1511 13.68 21.9377 15.088C21.7351 16.4853 21.6338 17.8027 21.6338 19.04C21.6338 20.1707 21.7351 21.1413 21.9377 21.952C22.1511 22.7627 22.5031 23.3867 22.9938 23.824C23.4844 24.2507 24.1511 24.464 24.9938 24.464Z" fill="#FF5E00"/>
</svg>
