<svg width="67" height="40" viewBox="0 0 67 40" fill="none" xmlns="http://www.w3.org/2000/svg">
<path d="M60.7298 1.38929C55.9782 1.38929 48.9791 4.34303 41.5306 7.61782C40.5032 7.29676 39.4116 6.91149 38.3842 6.52622C27.083 2.41668 15.3964 -1.82129 1.59095 1.32508L1.52673 1.38929L0.370926 4.34303L0.691984 4.15039C0.691984 4.15039 3.51729 2.5451 9.55318 2.35247C15.1396 2.22405 24.7071 3.25143 38.641 8.90205C35.0452 10.5073 31.4493 12.1126 27.9819 13.3969C27.4682 13.14 27.0187 12.8832 26.505 12.5621C21.3681 9.7368 16.8733 7.29676 13.0206 7.29676C10.2595 7.29676 8.01211 9.54416 8.01211 12.2411C8.01211 15.0022 10.2595 17.2496 13.0206 17.2496C17.387 17.2496 22.5881 15.7727 27.9819 13.7179C30.9356 15.3232 34.0178 16.9285 37.3568 18.2769C36.9715 18.5338 36.5863 18.7264 36.201 18.9191C34.2746 20.0749 32.2841 21.2307 30.2935 22.1939C26.7619 20.2675 23.4871 18.6622 20.6618 18.6622C18.8639 18.6622 17.387 20.1391 17.387 21.8728C17.387 23.6707 18.8639 25.1476 20.6618 25.1476C23.9366 25.1476 27.1472 23.9918 30.2935 22.4507C30.8072 22.7075 31.7704 23.2854 31.7704 23.2854C33.5683 24.3128 35.4305 25.276 37.2926 26.175C36.3294 26.7529 35.3662 27.395 34.4673 28.1013C33.4399 28.7434 32.4767 29.4498 31.5136 30.0277C29.1377 29.0645 26.8261 28.4866 25.5419 28.4866C24.3861 28.4866 23.4229 29.4498 23.4229 30.6056C23.4229 31.7614 24.3861 32.7246 25.5419 32.7246C27.3398 32.7246 29.3946 31.6972 31.5778 30.2845C32.5409 30.734 33.5683 31.1835 34.5957 31.7614C36.9073 33.0456 40.8242 35.7425 40.8242 39.2741V39.4026L42.879 39.7878L42.9432 39.6594C42.9432 39.5952 43.2001 37.9899 42.1085 35.9351C41.0811 34.0088 38.7695 31.3119 33.1831 29.2571C33.6325 28.9361 34.1462 28.615 34.5957 28.2939C35.5589 27.5876 36.5863 26.9455 37.5494 26.3034C40.1179 27.4592 42.6864 28.2939 45.0622 28.2939C46.5391 28.2939 47.6949 27.0739 47.6949 25.6613C47.6949 24.2486 46.5391 23.0286 45.0622 23.0286C42.7506 23.0286 40.1179 24.377 37.5494 25.9823C35.6873 25.1476 33.761 24.056 31.8988 23.0286C31.8988 23.0286 30.9999 22.5791 30.5504 22.3223C32.5409 21.3591 34.4673 20.2675 36.3294 19.1759C36.7789 18.9191 37.2284 18.6622 37.6137 18.4054C41.7874 20.0749 46.2822 21.2307 51.1623 21.2307C53.4097 21.2307 55.2076 19.4327 55.2076 17.1853C55.2076 15.0021 53.4097 13.2042 51.1623 13.2042C46.6675 13.2042 42.0443 15.5801 37.6137 18.1485C34.3389 16.8001 31.1925 15.1948 28.303 13.5895C32.0915 12.1126 36.0084 10.3789 39.8611 8.6452C40.3748 8.38836 40.9527 8.19572 41.5306 7.93887C48.0801 10.2505 54.3729 12.2411 60.7298 12.2411C64.711 12.2411 66.8941 10.5715 66.8941 7.5536C66.8941 4.15039 64.133 1.38929 60.7298 1.38929ZM13.0206 16.9927C10.3879 16.9927 8.26895 14.8737 8.26895 12.2411C8.26895 9.67259 10.3879 7.5536 13.0206 7.5536C16.8091 7.5536 21.2397 9.99365 26.3766 12.819C26.8261 13.0758 27.2114 13.2684 27.6609 13.5253C22.3955 15.5801 17.3228 16.9927 13.0206 16.9927ZM20.6618 24.8907C18.9923 24.8907 17.6438 23.5423 17.6438 21.8728C17.6438 20.2675 18.9923 18.9191 20.6618 18.9191C23.3587 18.9191 26.5693 20.4601 30.0367 22.3223C26.9545 23.7991 23.8082 24.8907 20.6618 24.8907ZM25.5419 32.4677C24.5145 32.4677 23.6797 31.633 23.6797 30.6056C23.6797 29.5782 24.5145 28.7434 25.5419 28.7434C26.7619 28.7434 28.9451 29.2571 31.2567 30.2203C29.1377 31.5045 27.2114 32.4677 25.5419 32.4677ZM41.8516 35.9993C42.7506 37.7331 42.7506 39.0815 42.6864 39.531L41.0811 39.2099C41.0169 35.2288 36.2652 31.954 31.8346 30.1561C32.2199 29.8992 32.5409 29.6424 32.9262 29.4498C38.5126 31.4403 40.8884 34.1372 41.8516 35.9993ZM45.0622 23.2854C46.3464 23.2854 47.438 24.377 47.438 25.6613C47.438 26.9455 46.3464 28.0371 45.0622 28.0371C42.7506 28.0371 40.3105 27.2024 37.8705 26.1108C40.3748 24.5697 42.8148 23.2854 45.0622 23.2854ZM51.1623 13.4611C53.2813 13.4611 54.9508 15.1306 54.9508 17.1853C54.9508 19.2401 53.2813 20.9738 51.1623 20.9738C46.4106 20.9738 42.0443 19.818 37.9347 18.2769C42.4295 15.6443 46.7317 13.4611 51.1623 13.4611ZM38.9621 8.77363C25.7345 3.37985 16.4238 2.09562 10.709 2.09562C10.2595 2.09562 9.87424 2.09562 9.55318 2.09562C4.48047 2.28826 1.71937 3.37985 0.884619 3.76512L1.71937 1.58193C15.3964 -1.56444 27.083 2.67352 38.32 6.78306C39.2832 7.10412 40.2463 7.42518 41.1453 7.81046C40.3748 8.13151 38.9621 8.77363 38.9621 8.77363ZM60.7298 11.9842C54.5013 11.9842 48.2728 10.0579 41.8516 7.74624C49.236 4.53566 56.0424 1.64614 60.7298 1.64614C64.0046 1.64614 66.6373 4.27881 66.6373 7.5536C66.6373 11.2137 63.4267 11.9842 60.7298 11.9842Z" fill="#333333"/>
</svg>
