<svg width="51" height="51" viewBox="0 0 51 51" fill="none" xmlns="http://www.w3.org/2000/svg">
<path d="M30.8133 38.0713C28.8808 37.1188 26.5383 37.5138 24.9208 38.8213C24.4358 39.2138 24.1083 39.7313 23.6708 40.1588C22.9707 39.6966 22.3416 39.1348 21.8033 38.4913C21.1633 37.7813 20.7008 34.9913 20.7058 35.0188C20.1658 32.5188 19.7058 31.1713 18.9108 28.7263C18.8658 28.5888 18.4933 27.3213 18.3283 27.3838C18.4694 27.316 18.5882 27.2095 18.671 27.0767C18.7538 26.9439 18.7971 26.7903 18.7958 26.6338C18.7847 26.3183 18.7222 26.0068 18.6108 25.7113C18.4208 25.0638 18.3958 24.4088 18.2508 23.7588C18.2833 23.8938 18.9083 23.9638 19.0333 23.9813C19.4009 24.0515 19.7804 24.0252 20.1348 23.9052C20.4892 23.7851 20.8065 23.5754 21.0558 23.2963C21.6108 22.5963 21.5033 21.4713 21.1408 20.6663C20.1908 18.6663 18.6558 17.3838 16.7633 16.8313C16.582 16.7544 16.3877 16.7129 16.1908 16.7088C16.0558 16.7088 15.9408 16.7613 15.8408 16.6638C15.5533 16.4094 15.2028 16.2368 14.8258 16.1638C14.5758 15.2488 14.5533 14.2588 13.7533 13.8838C12.6933 13.4713 12.3408 13.7413 11.0958 13.4913C11.7602 13.3957 12.4356 13.4084 13.0958 13.5288C13.4441 13.5951 13.77 13.748 14.0435 13.9735C14.317 14.1989 14.5293 14.4897 14.6608 14.8188C14.663 14.8236 14.6666 14.8277 14.671 14.8305C14.6754 14.8334 14.6806 14.8349 14.6858 14.8349C14.6911 14.8349 14.6963 14.8334 14.7007 14.8305C14.7051 14.8277 14.7086 14.8236 14.7108 14.8188C14.6915 14.1553 14.4407 13.5195 14.0019 13.0214C13.5632 12.5233 12.9641 12.1943 12.3083 12.0913C10.2408 11.8863 8.77084 13.7988 9.11084 15.4688C9.34584 16.5988 10.0608 16.8063 10.4208 17.1588C10.3105 17.2518 10.2246 17.3703 10.1706 17.5041C10.1165 17.6379 10.096 17.7828 10.1108 17.9263C10.1833 18.3163 10.6883 18.4013 10.9708 18.1238C11.0846 17.9936 11.1599 17.8344 11.1883 17.6638C11.1883 17.6338 11.1883 17.5788 11.2108 17.5713C11.2783 17.5313 11.4608 17.7288 11.4608 17.7713C11.4779 17.8074 11.4913 17.8451 11.5008 17.8838C11.6133 18.2863 11.6483 18.6888 11.3733 19.0413C11.0258 19.4838 10.4608 19.6713 9.91834 19.8588C6.56334 21.0238 4.39584 24.6813 6.16584 27.7413C6.00334 27.4913 4.21584 26.5638 4.07834 26.8838C3.94834 27.1588 4.54834 27.8113 4.70334 28.0163C5.57584 29.1163 7.52084 30.7338 8.56584 31.6713C10.5958 33.4913 12.6108 35.3638 14.7883 36.9763C14.9258 37.0813 14.8258 37.1588 14.7583 37.1238C14.5858 37.0113 10.4808 33.6888 8.67584 32.0288C8.67144 32.0268 8.66661 32.0259 8.66177 32.0261C8.65693 32.0263 8.65222 32.0278 8.64805 32.0302C8.64387 32.0327 8.64035 32.0361 8.63779 32.0402C8.63523 32.0443 8.6337 32.049 8.63334 32.0538C8.53284 34.8831 8.07676 37.6885 7.27584 40.4038C7.11371 40.8185 7.06035 41.2677 7.12084 41.7088C7.19584 42.1663 7.62084 42.6188 8.12084 42.5638C8.46334 42.5063 8.53834 42.3938 8.85084 42.2738C9.35084 42.1338 9.79584 42.4113 10.2758 42.7063C10.6378 42.9711 11.0594 43.1428 11.5033 43.2063C11.8564 43.1945 12.2041 43.1165 12.5283 42.9763C13.0283 42.8038 13.4833 42.6388 13.8633 42.9138C14.1883 43.1813 14.1658 43.3663 14.5208 43.6063C14.9858 43.8688 15.3908 43.5038 15.8233 43.1288C16.0938 42.8419 16.434 42.63 16.8108 42.5138C17.3358 42.4563 17.4758 42.6438 18.0283 42.6963C18.3341 42.7106 18.6365 42.6275 18.8921 42.459C19.1477 42.2906 19.3433 42.0454 19.4508 41.7588C19.3791 42.0864 19.1935 42.3779 18.9271 42.5816C18.6608 42.7853 18.3308 42.888 17.9958 42.8713C17.6558 42.8713 17.3733 42.6363 17.0408 42.6438C16.0908 42.6438 15.4133 44.1763 14.5733 43.7938C14.1983 43.6238 14.0508 43.1938 13.6883 43.0113C13.3258 42.8288 12.9058 42.9838 12.5008 43.1563C12.2289 43.2976 11.9313 43.3826 11.6258 43.4063C11.2138 43.3666 10.8213 43.2115 10.4933 42.9588C10.1133 42.7238 9.68584 42.4588 9.22084 42.5013C8.75584 42.5438 8.32834 42.7513 7.87834 42.7263C7.63285 42.7165 7.40008 42.6145 7.22636 42.4408C7.05263 42.2671 6.9507 42.0343 6.94084 41.7888C6.9392 41.7838 6.93601 41.7795 6.93175 41.7764C6.92749 41.7733 6.92236 41.7716 6.91709 41.7716C6.91183 41.7716 6.90669 41.7733 6.90243 41.7764C6.89817 41.7795 6.89498 41.7838 6.89334 41.7888C6.56834 42.4613 6.98834 43.2888 7.57834 43.7013C8.16834 44.1138 8.88334 44.2213 9.61834 44.3013C9.39834 44.9038 8.54584 47.3363 8.32334 47.9363C8.19517 48.2374 8.14198 48.5652 8.16834 48.8913C8.23334 49.2763 8.91834 49.6738 8.89834 49.0588C8.88996 49.0131 8.89886 48.9659 8.92334 48.9263C9.24554 49.1105 9.59237 49.2477 9.95334 49.3338C10.2608 49.4163 11.1008 49.6413 11.3633 49.3763C11.6133 49.1663 11.3633 48.7363 11.1333 48.5938C11.0233 48.5288 10.2783 48.2788 10.4858 48.0488C11.3585 47.0978 12.1394 46.0666 12.8183 44.9688C13.9086 45.4053 15.0988 45.5299 16.2558 45.3288C16.1783 45.8288 15.8958 47.8288 15.8158 48.3438C15.5958 49.5713 16.5983 49.3588 16.5408 48.9538C17.1573 49.3088 17.8724 49.4536 18.5783 49.3663C18.5831 49.366 18.5876 49.3644 18.5916 49.3618C18.5955 49.3592 18.5987 49.3556 18.6008 49.3513C18.7383 49.0213 18.3658 48.7588 18.1433 48.5888C17.8308 48.3388 17.6733 48.1888 17.7933 47.7613C18.1158 46.6263 18.7933 45.6313 19.2008 44.5263C19.4036 43.9681 19.776 43.4873 20.2658 43.1513C20.7358 42.7738 21.2208 42.3863 21.3583 41.8063C21.3408 41.8738 22.9883 41.5938 23.1433 41.5563C22.9591 42.2003 22.9131 42.8759 23.0083 43.5388C23.4733 48.7163 30.7033 50.4713 33.4708 45.3338C33.8233 44.7263 33.8983 43.7238 33.9283 43.0288C33.9182 41.9953 33.6217 40.9848 33.0718 40.1096C32.5219 39.2345 31.7401 38.5289 30.8133 38.0713ZM11.2358 17.0388C11.2798 17.0297 11.3219 17.0137 11.3608 16.9913C11.4008 17.1813 11.4333 17.3713 11.4558 17.5638C11.3797 17.5166 11.3013 17.4732 11.2208 17.4338C11.2283 17.2413 11.2433 17.1538 11.2358 17.0388ZM11.2658 16.3563C11.2791 16.3563 11.2918 16.3511 11.3012 16.3417C11.3106 16.3323 11.3158 16.3196 11.3158 16.3063V16.2588C11.4193 15.9168 11.4806 15.5633 11.4983 15.2063C11.509 14.88 11.4753 14.5537 11.3983 14.2363C12.3983 14.4863 13.0333 14.2363 13.7608 14.4113C13.6483 14.4363 13.5958 14.5513 13.6108 14.5763H13.6258C13.6805 14.5326 13.7457 14.504 13.815 14.4933C13.8842 14.4827 13.955 14.4904 14.0203 14.5157C14.0856 14.541 14.1431 14.583 14.1871 14.6375C14.231 14.6921 14.2599 14.7572 14.2708 14.8263C14.3818 15.0943 14.4729 15.37 14.5433 15.6513C14.5953 15.7876 14.6265 15.9308 14.6358 16.0763C14.6358 16.1788 14.6533 16.1138 14.5783 16.1538C14.5033 16.1938 14.4708 16.1813 14.4233 16.2088C14.2008 16.3288 14.4233 16.5338 14.6108 16.5288C14.4809 16.5324 14.3529 16.5604 14.2333 16.6113C14.0983 16.6588 14.0008 16.7813 14.0958 16.8813C14.1201 16.9049 14.152 16.9191 14.1858 16.9213C14.1684 16.9223 14.1514 16.9267 14.1357 16.9342C14.12 16.9418 14.1059 16.9524 14.0943 16.9654C14.0827 16.9784 14.0737 16.9936 14.068 17.01C14.0623 17.0265 14.0598 17.0439 14.0608 17.0613C14.0626 17.0818 14.0686 17.1017 14.0784 17.1197C14.0882 17.1378 14.1016 17.1536 14.1178 17.1662C14.134 17.1789 14.1526 17.1881 14.1725 17.1933C14.1923 17.1985 14.2131 17.1995 14.2333 17.1963C14.1379 17.3502 14.0056 17.4778 13.8485 17.5677C13.6914 17.6576 13.5143 17.707 13.3333 17.7113L13.4258 17.9913C13.2548 18.1093 13.0632 18.1941 12.8608 18.2413C12.4917 18.3737 12.0944 18.4073 11.7083 18.3388C11.6513 18.031 11.5778 17.7264 11.4883 17.4263L11.3958 16.8413C11.3608 16.8888 11.2808 16.8888 11.2258 16.9013C11.2131 16.8775 11.2062 16.8509 11.2058 16.8238C11.2041 16.8182 11.2006 16.8134 11.1959 16.8099C11.1912 16.8064 11.1855 16.8045 11.1796 16.8045C11.1737 16.8045 11.168 16.8064 11.1633 16.8099C11.1586 16.8134 11.1551 16.8182 11.1533 16.8238V16.9038C10.4883 16.9038 10.4183 15.8563 11.0258 16.2188C11.1106 16.2558 11.1911 16.3019 11.2658 16.3563ZM14.3608 17.2188H14.6658C14.6365 17.2268 14.6094 17.2413 14.5865 17.2612C14.5636 17.2811 14.5454 17.306 14.5333 17.3338C14.5033 17.4738 14.6983 17.5313 14.8208 17.5213V17.6513C14.8115 17.72 14.7756 17.7822 14.721 17.8247C14.6663 17.8672 14.5972 17.8867 14.5283 17.8788C14.2783 17.8463 14.0783 17.5263 14.1108 17.4913C14.2933 17.3063 14.3058 17.2538 14.3608 17.2188ZM14.0133 17.6238C14.0433 17.6388 14.0608 17.7138 14.0758 17.7363C14.1296 17.8219 14.203 17.8933 14.29 17.9446C14.377 17.9959 14.475 18.0257 14.5758 18.0313C14.8258 18.0763 14.9533 17.8263 14.9358 17.5588H15.1383C15.1229 17.7296 15.1504 17.9015 15.2183 18.0588C15.2333 18.1063 15.3208 18.5088 15.3708 18.5138C14.7833 18.4413 13.8908 18.8438 13.6533 18.2038C13.5833 18.0641 13.528 17.9175 13.4883 17.7663C13.8608 17.7413 13.9358 17.5838 14.0058 17.6238H14.0133ZM19.2133 23.2213C19.2165 23.2225 19.2198 23.2231 19.2231 23.223C19.2264 23.2229 19.2297 23.2221 19.2328 23.2207C19.2358 23.2193 19.2385 23.2173 19.2407 23.2148C19.243 23.2124 19.2447 23.2095 19.2458 23.2063C19.2733 23.1338 19.0433 23.1713 18.2983 22.6788C16.8983 21.6788 15.6233 19.4038 15.2983 17.8438C15.2333 17.4888 15.4033 17.2713 15.6608 17.0388C15.7423 16.9536 15.8412 16.8871 15.9508 16.8438C16.3008 16.7288 16.8258 16.9513 17.1583 17.0688C17.899 17.3313 18.5792 17.7403 19.1583 18.2713C19.8831 18.923 20.4814 19.7027 20.9233 20.5713C21.2285 21.124 21.3633 21.7547 21.3108 22.3838C21.2731 22.6452 21.1751 22.8942 21.0245 23.1111C20.8739 23.3281 20.675 23.507 20.4433 23.6338C20.2683 23.6338 19.6933 24.1338 18.2308 23.6338C18.1806 23.2913 18.1088 22.9523 18.0158 22.6188C18.3877 22.8699 18.7901 23.0723 19.2133 23.2213ZM15.8033 16.7863C15.5645 16.9685 15.3539 17.185 15.1783 17.4288C15.1059 17.4338 15.0333 17.4338 14.9608 17.4288C14.8758 17.4288 14.7408 17.4638 14.6658 17.4063C14.5908 17.3488 14.9283 17.2938 14.7058 17.1863C14.5857 17.1477 14.4616 17.1226 14.3358 17.1113C14.2758 17.1113 14.2258 17.0538 14.2808 17.0113C14.3358 16.9688 14.6508 16.9713 14.6383 16.9088C14.6258 16.8463 14.4233 16.8188 14.3883 16.8288C14.3533 16.8388 14.2633 16.8288 14.2508 16.7813C14.2508 16.6813 14.5883 16.6338 14.6858 16.6288C14.7433 16.6288 14.8183 16.6113 14.8233 16.5563C14.8283 16.5013 14.7358 16.4813 14.6333 16.4363C14.5683 16.3963 14.5808 16.3063 14.6733 16.3113C15.1283 16.2838 15.5308 16.5363 15.8958 16.7763C15.8608 16.7413 15.8383 16.7638 15.8033 16.7863ZM10.7908 16.8838C10.7113 16.9428 10.6277 16.9963 10.5408 17.0438C10.3442 16.9344 10.1682 16.7914 10.0208 16.6213C10.212 16.6039 10.404 16.598 10.5958 16.6038C10.655 16.7011 10.7201 16.7946 10.7908 16.8838ZM10.8458 16.9288H10.8608C10.9053 16.9671 10.9569 16.9961 11.0127 17.0142C11.0685 17.0322 11.1274 17.0389 11.1858 17.0338C11.169 17.1579 11.1439 17.2806 11.1108 17.4013C10.9302 17.3179 10.7556 17.2218 10.5883 17.1138C10.7508 17.0038 10.8208 16.9513 10.8458 16.9288ZM11.0583 15.7863C11.0583 15.8688 11.0583 16.0788 11.1458 16.1388C10.7158 15.7663 10.8958 15.2888 10.8958 13.9563C10.8936 13.877 10.8758 13.7988 10.8433 13.7263C11.2533 14.2938 10.9633 14.9563 11.0583 15.7863ZM10.8833 19.5763C11.1299 19.4515 11.3512 19.282 11.5358 19.0763C11.6843 19.1168 11.8355 19.146 11.9883 19.1638C12.5527 19.1836 13.1124 19.0543 13.6108 18.7888C13.8208 18.6788 13.8233 18.6263 13.8608 18.6188C13.8983 18.6113 13.9458 18.6363 14.1108 18.6438C14.6908 18.6663 14.8608 18.5788 15.1358 18.6113C15.2216 18.6055 15.3075 18.621 15.3858 18.6563C15.5533 18.9363 15.5208 19.2063 15.9933 20.1113C16.0152 20.1928 16.0244 20.2771 16.0208 20.3613C16.0412 20.6083 16.0035 20.8565 15.9108 21.0863C15.5858 21.6713 14.4683 22.0038 13.8083 22.1138C12.6758 22.4263 12.3083 21.5788 11.8283 21.0638C11.3213 20.5556 10.7108 20.1625 10.0383 19.9113C10.3317 19.8319 10.6152 19.7195 10.8833 19.5763ZM9.92584 19.9913C9.99084 20.0213 10.0158 20.0138 10.0783 20.0413C11.6933 20.7438 12.0483 21.6163 12.4533 21.9663C12.6736 22.1817 12.9656 22.3081 13.2733 22.3213C14.1559 22.2923 15.0098 22.0007 15.7258 21.4838C15.8469 21.395 15.945 21.2786 16.012 21.1442C16.0789 21.0099 16.1128 20.8615 16.1108 20.7113L16.1433 20.3113C16.4783 20.8113 16.6658 21.4338 17.8933 22.4763C18.2358 23.7263 18.1608 24.6513 18.5633 26.1488C18.6612 26.3872 18.6744 26.6519 18.6008 26.8988C18.4494 27.152 18.2155 27.3453 17.9383 27.4463C16.1155 28.2981 14.0921 28.627 12.0933 28.3963C11.6433 28.3538 10.5283 28.3963 10.3633 27.8738C10.1204 27.1244 9.80384 26.4009 9.41834 25.7138C10.4533 24.9288 10.7683 24.7263 10.7833 24.5088C10.765 24.5066 10.7464 24.5091 10.7294 24.5161C10.7123 24.5231 10.6973 24.5344 10.6858 24.5488L9.36084 25.6188C9.23084 25.7188 9.57584 26.1913 9.64584 26.3363C9.8655 26.7971 10.0534 27.2724 10.2083 27.7588C10.5308 29.0088 10.4833 30.5088 10.2983 30.7838C9.97278 30.9429 9.60541 30.9953 9.24834 30.9338C9.02156 30.8845 8.8109 30.7787 8.63584 30.6263C8.24286 30.3267 7.89145 29.9761 7.59084 29.5838C6.96129 28.8725 6.45437 28.0614 6.09084 27.1838C5.76386 26.4163 5.64755 25.5754 5.7539 24.7479C5.86025 23.9204 6.18541 23.1363 6.69584 22.4763C7.30853 21.6274 8.09627 20.9198 9.00584 20.4013C9.25584 20.2538 9.67334 19.9913 9.92584 19.9913ZM9.59584 31.9088C9.62334 31.8263 9.66334 31.7138 9.59584 31.6363C9.58854 31.6268 9.57913 31.6191 9.56834 31.6138C9.47834 31.6138 9.49584 31.7263 9.27334 32.0538C9.23334 32.1138 9.09084 32.2138 9.11084 32.0538C9.13084 31.8938 9.29834 31.7113 9.29084 31.5313C9.29084 31.4813 9.24584 31.4538 9.20584 31.4913C9.15953 31.5335 9.11688 31.5795 9.07834 31.6288C8.92834 31.8363 8.89084 31.6863 8.91584 31.6288C9.00233 31.4347 9.11323 31.2524 9.24584 31.0863C9.58523 31.1538 9.93618 31.134 10.2658 31.0288C10.2658 31.6813 10.3183 31.6813 10.2908 31.8413C10.2758 31.9163 10.1608 31.9613 10.1258 31.8113C10.1058 31.7288 10.1008 31.5613 10.0083 31.5763C9.91584 31.5913 9.88834 31.8013 9.75834 32.0213C9.71834 32.0813 9.66334 32.2038 9.58084 32.2213C9.49834 32.2388 9.51084 32.1663 9.51834 32.1113C9.56084 31.9413 9.61084 31.8763 9.59584 31.9013V31.9088ZM10.4008 30.7213C11.3733 31.3963 14.2708 33.5363 16.3308 35.2563C16.2936 35.2591 16.2567 35.2658 16.2208 35.2763C13.1108 32.7413 10.3608 30.7913 10.3833 30.8088C10.3987 30.7797 10.4048 30.7465 10.4008 30.7138V30.7213ZM16.2108 35.4263C16.361 35.3895 16.5177 35.3889 16.6681 35.4245C16.8185 35.4602 16.9582 35.531 17.0758 35.6313C17.5033 35.9188 19.1133 37.0613 19.5033 37.3463C19.2153 37.3455 18.9311 37.4123 18.6735 37.5414C18.416 37.6705 18.1924 37.8583 18.0207 38.0895C17.849 38.3208 17.734 38.5892 17.6849 38.8731C17.6359 39.1569 17.6542 39.4483 17.7383 39.7238C17.2683 39.3813 15.1308 37.6088 15.0208 37.2388C14.9641 36.8436 15.0537 36.4412 15.2729 36.1074C15.492 35.7736 15.8256 35.5314 16.2108 35.4263ZM11.0858 17.5063C11.0333 18.0063 10.5158 18.3263 10.3358 17.9838C10.2979 17.8907 10.283 17.7897 10.2926 17.6896C10.3022 17.5894 10.3359 17.4931 10.3908 17.4088C10.4258 17.3287 10.473 17.2545 10.5308 17.1888C10.7004 17.3196 10.8872 17.4264 11.0858 17.5063ZM17.9433 38.7738C18.0082 38.4287 18.1959 38.1188 18.4716 37.9014C18.7474 37.6839 19.0926 37.5738 19.4433 37.5913C21.2108 37.6788 21.9883 38.9413 22.5133 39.4238C22.2633 39.4638 22.4758 39.9888 22.2983 40.1263C22.0483 40.3238 21.7208 40.1863 21.4258 40.2513C21.3457 40.2643 21.2711 40.3006 21.2116 40.3558C21.152 40.4109 21.11 40.4824 21.0908 40.5613C21.0308 40.9088 21.6908 41.1238 21.7458 41.3463C21.7758 41.4713 21.5833 41.6613 21.4433 41.7013C21.3236 41.7118 21.203 41.7034 21.0858 41.6763C20.5513 41.5957 20.0268 41.4592 19.5208 41.2688C18.5233 40.9313 17.6408 39.8788 17.9433 38.7738ZM21.7358 41.6588C22.4033 41.3063 21.2533 40.9338 21.2658 40.5938C21.2658 40.3438 21.6033 40.3188 21.7883 40.3188C22.1233 40.3438 22.5008 40.2238 22.5083 39.8863C22.5083 39.7413 22.4633 39.6363 22.5783 39.4938C23.0169 39.9115 23.5393 40.231 24.1108 40.4313C24.2383 40.4738 24.6308 40.4788 24.6833 40.6363C23.6608 41.6038 21.8283 41.6088 21.7358 41.6588ZM23.3883 41.4988C23.6383 41.3963 24.3658 41.2263 24.7908 40.7638C24.8164 40.728 24.8325 40.6864 24.8378 40.6427C24.843 40.599 24.8372 40.5547 24.8208 40.5138C24.6658 40.3288 24.5708 40.4213 23.9483 40.2813C24.0433 39.9163 24.4683 39.4988 24.7308 39.2363C25.5942 38.381 26.7265 37.8502 27.9362 37.7337C29.146 37.6173 30.3588 37.9223 31.3695 38.5971C32.3802 39.272 33.1267 40.2753 33.4827 41.4373C33.8388 42.5993 33.7825 43.8486 33.3233 44.9738C32.9092 45.9359 32.2244 46.7569 31.3522 47.337C30.4801 47.9171 29.4582 48.2313 28.4108 48.2413C27.5916 48.2469 26.7825 48.0594 26.0492 47.6941C25.3159 47.3287 24.6789 46.7959 24.1898 46.1386C23.7007 45.4813 23.3733 44.718 23.2341 43.9107C23.0948 43.1033 23.1477 42.2745 23.3883 41.4913V41.4988ZM19.1108 43.9413C18.9458 44.5763 18.7558 45.1063 18.1108 45.3388C17.8557 45.4302 17.5841 45.4665 17.314 45.4454C17.0438 45.4243 16.7812 45.3462 16.5433 45.2163C17.4616 44.9307 18.3283 44.5003 19.1108 43.9413ZM11.7433 44.6913L12.5408 44.9163C12.4071 45.0848 12.2246 45.2079 12.0183 45.2688C11.6567 45.3658 11.2773 45.3769 10.9106 45.3014C10.5438 45.2259 10.1998 45.0658 9.90584 44.8338C9.8444 44.7717 9.79785 44.6965 9.7697 44.6138C9.74156 44.5311 9.73254 44.443 9.74334 44.3563C9.72334 44.3513 11.3308 44.5863 11.7483 44.6863L11.7433 44.6913ZM40.5558 42.4063C40.4933 42.2488 40.4183 42.0863 40.3633 41.9213C40.3283 41.8138 40.3008 41.6388 40.1658 41.6063C40.0308 41.5738 39.9683 41.7113 39.9158 41.7713C39.7208 41.9663 39.0383 42.6988 38.8733 42.9188C38.871 42.9236 38.8703 42.9291 38.8713 42.9343C38.8723 42.9396 38.8749 42.9444 38.8789 42.948C38.8828 42.9516 38.8877 42.9539 38.8931 42.9545C38.8984 42.9551 38.9037 42.954 38.9083 42.9513C39.3456 42.627 39.7403 42.2491 40.0833 41.8263C40.0633 43.6088 38.5208 45.6163 36.6033 45.8613C35.7358 45.9118 34.8711 45.7233 34.1033 45.3163C34.0987 45.3137 34.0934 45.3126 34.0881 45.3132C34.0827 45.3138 34.0778 45.3161 34.0739 45.3197C34.0699 45.3233 34.0673 45.3281 34.0663 45.3334C34.0653 45.3386 34.066 45.344 34.0683 45.3488C36.0333 46.4838 37.6708 46.0838 38.7308 44.9988C39.5826 44.1834 40.1086 43.086 40.2108 41.9113C40.3884 42.255 40.5349 42.614 40.6483 42.9838C40.6506 43.0388 40.6651 43.0927 40.6908 43.1413C40.7108 43.1563 40.7808 43.1738 40.7708 43.1413C40.6958 42.9088 40.6533 42.6488 40.5558 42.4063Z" fill="#A17E6D"/>
<path d="M29.1958 31.8938C29.1998 31.8984 29.2055 31.9013 29.2116 31.9018C29.2177 31.9023 29.2237 31.9003 29.2283 31.8963C29.233 31.8923 29.2359 31.8867 29.2363 31.8806C29.2368 31.8745 29.2348 31.8684 29.2308 31.8638C29.0471 31.3904 28.7804 30.9536 28.4433 30.5738C28.3308 30.5213 28.2858 30.7038 28.2233 30.8513C28.0744 31.2211 27.9696 31.607 27.9108 32.0013C27.9108 32.0079 27.9135 32.0143 27.9182 32.019C27.9229 32.0237 27.9292 32.0263 27.9358 32.0263C27.9425 32.0263 27.9488 32.0237 27.9535 32.019C27.9582 32.0143 27.9608 32.0079 27.9608 32.0013C28.0747 31.6206 28.2202 31.2502 28.3958 30.8938C28.3449 31.4364 28.3984 31.9838 28.5533 32.5063C29.3183 34.9613 31.9133 35.9913 33.8608 35.2413C33.8908 35.2413 33.8758 35.1813 33.8458 35.1913C33.5074 35.2961 33.1551 35.3492 32.8008 35.3488C30.0308 35.3488 28.1933 32.8763 28.4908 30.8488C28.7062 31.21 28.9416 31.5589 29.1958 31.8938ZM36.1108 12.2913H36.0783C36.0158 12.3088 35.9433 12.3288 35.9283 12.3838C35.9268 12.4023 35.9299 12.4209 35.9373 12.4379C35.9448 12.4549 35.9563 12.4698 35.9708 12.4813C36.0253 12.5304 36.0838 12.5747 36.1458 12.6138C36.2861 12.7079 36.4197 12.8115 36.5458 12.9238C37.0083 13.3213 37.0583 13.4588 37.1033 13.4238C37.106 13.4215 37.1081 13.4186 37.1096 13.4153C37.111 13.4121 37.1118 13.4086 37.1118 13.4051C37.1118 13.4015 37.111 13.398 37.1096 13.3948C37.1081 13.3915 37.106 13.3887 37.1033 13.3863C36.9096 13.0653 36.6608 12.7809 36.3683 12.5463C36.3431 12.5211 36.3155 12.4985 36.2858 12.4788L36.2683 12.4663C36.3258 12.4663 36.3833 12.4813 36.4383 12.4863C36.5044 12.4851 36.5702 12.4944 36.6333 12.5138C37.2833 12.5963 37.5758 12.6163 37.5508 12.6113C38.4316 12.7394 39.2738 13.0586 40.0183 13.5463C41.6383 14.6338 42.1533 16.6288 41.6508 18.4888C41.4653 19.3798 41.0158 20.1943 40.3608 20.8263C40.3577 20.8301 40.3555 20.8346 40.3547 20.8395C40.3539 20.8444 40.3544 20.8494 40.3562 20.854C40.358 20.8586 40.361 20.8626 40.3649 20.8657C40.3688 20.8687 40.3734 20.8707 40.3783 20.8713H40.3958C42.0533 19.5063 42.8608 15.8113 40.6458 13.8138C39.8808 13.1438 38.9308 12.6663 37.2933 12.4513C36.1808 12.2638 36.1783 12.5263 37.1983 12.0588C37.2033 12.0554 37.2069 12.0504 37.2088 12.0447C37.2106 12.039 37.2106 12.0328 37.2086 12.0272C37.2066 12.0215 37.2028 12.0166 37.1978 12.0133C37.1928 12.01 37.1868 12.0084 37.1808 12.0088C36.9319 12.0486 36.6869 12.1097 36.4483 12.1913C36.3333 12.2113 36.2533 12.2563 36.1108 12.2913ZM28.5733 14.7088L28.9558 14.9588C28.9558 14.9588 28.8783 14.9588 28.8058 15.0988C28.7656 15.2158 28.7719 15.3438 28.8233 15.4563C28.8408 15.5213 29.1258 16.5538 29.1833 16.7238C29.2153 16.7934 29.2704 16.8498 29.3391 16.8835C29.4079 16.9172 29.4862 16.9262 29.5608 16.9088C29.7033 17.5138 30.4983 17.9088 31.2033 17.5188C31.8183 17.2688 31.8008 16.7988 31.8008 16.1963C31.8516 16.1567 31.889 16.1027 31.9083 16.0413C31.9386 15.9783 31.9457 15.9066 31.9283 15.8388C31.9283 15.8388 31.6108 14.7163 31.6108 14.6913C31.5708 14.5088 31.5233 14.3013 31.3083 14.2538C32.1887 12.8733 32.5337 11.2185 32.2783 9.60131C32.1708 8.85131 32.0508 8.24131 31.6983 7.68631C31.29 7.08839 30.7014 6.63645 30.0183 6.39631C29.3154 6.20451 28.5697 6.24039 27.8883 6.49881C27.2336 6.70001 26.6583 7.10113 26.2432 7.64588C25.828 8.19063 25.5938 8.85168 25.5733 9.53631C25.5178 10.642 25.8117 11.737 26.4133 12.6663C27.0069 13.4695 27.7382 14.1611 28.5733 14.7088ZM31.4308 13.8138C31.3633 13.9363 31.2633 14.2188 31.1158 14.2613L30.5683 14.4163V13.4363C30.5933 13.4363 30.8783 13.3213 30.8983 13.1263C30.9102 13.0492 30.8972 12.9704 30.8612 12.9011C30.8253 12.8319 30.7682 12.776 30.6983 12.7413C30.7372 12.673 30.7513 12.5933 30.7381 12.5158C30.7249 12.4384 30.6852 12.3678 30.6258 12.3163C30.5608 12.269 30.4825 12.2434 30.4021 12.2434C30.3217 12.2434 30.2433 12.269 30.1783 12.3163C30.1428 12.2534 30.0891 12.2028 30.0242 12.1711C29.9593 12.1394 29.8863 12.128 29.8149 12.1386C29.7434 12.1491 29.6769 12.1811 29.6239 12.2302C29.571 12.2793 29.5342 12.3433 29.5183 12.4138C29.444 12.3668 29.3558 12.3465 29.2683 12.3563C29.2035 12.3682 29.1429 12.3972 29.093 12.4403C29.0431 12.4834 29.0057 12.5391 28.9845 12.6015C28.9633 12.664 28.9593 12.731 28.9727 12.7956C28.9861 12.8601 29.0165 12.9199 29.0608 12.9688C28.9768 13.0045 28.9085 13.0693 28.8683 13.1513C28.8356 13.213 28.8213 13.2828 28.8273 13.3523C28.8333 13.4219 28.8592 13.4883 28.902 13.5435C28.9447 13.5986 29.0025 13.6403 29.0684 13.6634C29.1343 13.6866 29.2055 13.6902 29.2733 13.6738C29.2908 13.6738 29.6883 14.5988 29.7458 14.6888C29.5554 14.7351 29.3676 14.7919 29.1833 14.8588C29.1433 14.8763 28.9333 14.7013 28.8883 14.6813C27.3633 13.6613 26.3883 12.7088 25.9058 10.8238C25.7055 10.0531 25.7133 9.24303 25.9283 8.47631C26.8658 6.11131 30.7183 5.56381 31.8058 8.15381C31.9314 8.54511 32.0308 8.94432 32.1033 9.34881C32.4354 10.8692 32.196 12.4587 31.4308 13.8138ZM31.8583 16.0138C31.8365 16.0534 31.8009 16.0836 31.7583 16.0988C31.7083 16.1238 29.9808 16.6213 29.7258 16.7238C29.6471 16.7579 29.5597 16.7667 29.4758 16.7488C29.4157 16.7212 29.3689 16.6708 29.3458 16.6088C30.1658 16.3838 31.0158 16.1513 31.8458 15.8738C31.8608 15.9189 31.8659 15.9666 31.8608 16.0138H31.8583ZM31.4708 14.6188C31.4846 14.689 31.4938 14.76 31.4983 14.8313C30.6658 15.0588 29.8033 15.2938 28.9833 15.5813C28.9644 15.5129 28.9402 15.446 28.9108 15.3813C29.0383 15.3488 30.9533 14.7838 31.4708 14.6188ZM29.3308 16.5313L29.2683 16.3488C30.0633 16.1363 31.0383 15.8738 31.7908 15.6138L31.8333 15.8013C31.2283 15.9563 30.3408 16.2188 29.3308 16.5313ZM29.2533 16.2988L29.1908 16.0888C30.0208 15.8613 30.8758 15.6288 31.7183 15.3388C31.7421 15.4068 31.7621 15.4761 31.7783 15.5463C30.9783 15.7788 30.1108 16.0038 29.2533 16.2988ZM29.1483 16.0488C29.1308 15.9888 29.1158 15.9288 29.1008 15.8688C29.8833 15.6763 30.7383 15.4263 31.6233 15.1188L31.6833 15.3013C30.8608 15.5238 29.9933 15.7588 29.1483 16.0363V16.0488ZM29.0858 15.8163C29.0716 15.7532 29.0524 15.6913 29.0283 15.6313C29.8608 15.4038 30.7208 15.1713 31.5433 14.8813L31.6033 15.0638C28.9783 15.7813 29.0858 15.8338 29.0858 15.8038V15.8163ZM29.4233 15.1613C29.2691 15.2251 29.1092 15.2745 28.9458 15.3088C28.8983 15.1838 28.8808 15.0288 29.2233 14.9513C29.7708 14.8213 30.3033 14.6613 30.8158 14.5063C30.9767 14.4438 31.1446 14.401 31.3158 14.3788C31.4408 14.3788 31.4908 14.4713 31.5183 14.5613C31.4758 14.5588 29.9158 14.9538 29.4233 15.1488V15.1613ZM29.3108 13.5963C28.9533 13.6763 28.7733 13.2988 29.0458 13.1188C29.0888 13.0831 29.1425 13.0629 29.1983 13.0613C29.1394 13.0084 29.1001 12.9371 29.0869 12.859C29.0738 12.7809 29.0875 12.7006 29.1258 12.6313C29.2308 12.4638 29.4558 12.5163 29.5858 12.6313C29.5033 12.1913 30.0258 12.0788 30.1058 12.5213C30.1333 12.4604 30.183 12.4122 30.2448 12.3866C30.3066 12.3611 30.3758 12.3601 30.4383 12.3838C30.6308 12.4263 30.6233 12.6913 30.5008 12.8363C30.5731 12.8336 30.644 12.8566 30.7008 12.9013C30.8933 13.0838 30.7008 13.3663 30.4258 13.3688C30.4755 13.7408 30.4906 14.1166 30.4708 14.4913C29.9708 14.6463 29.9208 14.6638 29.7883 14.6963C29.7758 14.6613 29.3883 13.8138 29.3108 13.5838V13.5963ZM20.8733 15.5713C21.7933 15.2638 22.8733 14.8913 23.9258 14.4513C23.9291 14.4503 23.9322 14.4487 23.9348 14.4465C23.9375 14.4444 23.9397 14.4417 23.9413 14.4387C23.9429 14.4357 23.944 14.4324 23.9443 14.4289C23.9447 14.4255 23.9443 14.4221 23.9433 14.4188C23.9424 14.4155 23.9407 14.4125 23.9386 14.4098C23.9364 14.4072 23.9337 14.405 23.9307 14.4033C23.9277 14.4017 23.9244 14.4007 23.921 14.4003C23.9176 14.4 23.9141 14.4003 23.9108 14.4013C22.5747 14.7853 21.261 15.2435 19.9758 15.7738C19.9692 15.7738 19.9629 15.7764 19.9582 15.7811C19.9535 15.7858 19.9508 15.7922 19.9508 15.7988C19.9508 15.8054 19.9535 15.8118 19.9582 15.8165C19.9629 15.8212 19.9692 15.8238 19.9758 15.8238C20.2787 15.7679 20.5758 15.6842 20.8633 15.5738C20.8608 15.5213 20.8608 15.5313 20.8733 15.5713ZM23.6633 15.9913C23.6599 15.9948 23.6576 15.9992 23.6567 16.004C23.6557 16.0088 23.6562 16.0138 23.6581 16.0183C23.6599 16.0229 23.6631 16.0267 23.6671 16.0295C23.6712 16.0322 23.6759 16.0337 23.6808 16.0338C24.107 15.8887 24.4925 15.6445 24.8058 15.3213C24.8078 15.3193 24.8094 15.317 24.8104 15.3144C24.8115 15.3119 24.8121 15.3091 24.8121 15.3063C24.8121 15.3035 24.8115 15.3008 24.8104 15.2982C24.8094 15.2956 24.8078 15.2933 24.8058 15.2913C24.8039 15.2893 24.8015 15.2878 24.799 15.2867C24.7964 15.2856 24.7936 15.2851 24.7908 15.2851C24.7881 15.2851 24.7853 15.2856 24.7827 15.2867C24.7802 15.2878 24.7778 15.2893 24.7758 15.2913C24.357 15.4379 23.9768 15.6772 23.6633 15.9913ZM23.5033 20.0463C23.4986 20.0514 23.496 20.0581 23.496 20.0651C23.496 20.072 23.4986 20.0787 23.5033 20.0838H23.5233C23.5983 20.1113 25.2433 18.1763 26.2733 16.6688C26.2763 16.6636 26.2775 16.6575 26.2767 16.6515C26.2759 16.6456 26.2731 16.64 26.2689 16.6358C26.2646 16.6315 26.2591 16.6288 26.2531 16.628C26.2471 16.6272 26.2411 16.6283 26.2358 16.6313C25.6108 17.3263 24.0683 19.2888 23.5033 20.0463ZM26.5308 18.2038C26.5336 18.205 26.5366 18.2056 26.5396 18.2056C26.5426 18.2056 26.5456 18.205 26.5483 18.2038C26.8447 17.9436 27.0701 17.6124 27.2033 17.2413C27.2183 17.2188 27.2033 17.1988 27.1708 17.2138C26.8702 17.4784 26.6487 17.8211 26.5308 18.2038ZM21.3608 11.5313C21.3542 11.5313 21.3479 11.5339 21.3432 11.5386C21.3385 11.5433 21.3358 11.5497 21.3358 11.5563C21.3358 11.5629 21.3385 11.5693 21.3432 11.574C21.3479 11.5787 21.3542 11.5813 21.3608 11.5813H21.9158C22.0133 11.5813 22.1083 11.5638 22.2008 11.5563C22.2933 11.5488 22.3933 11.5413 22.4883 11.5288C22.495 11.5288 22.5013 11.5262 22.506 11.5215C22.5107 11.5168 22.5133 11.5104 22.5133 11.5038C22.5133 11.4972 22.5107 11.4908 22.506 11.4861C22.5013 11.4814 22.495 11.4788 22.4883 11.4788C22.1194 11.3532 21.7165 11.372 21.3608 11.5313ZM18.0733 10.2788C18.3608 10.3263 20.7833 10.5988 22.3808 10.6713C22.3864 10.6696 22.3913 10.6661 22.3948 10.6613C22.3983 10.6566 22.4001 10.6509 22.4001 10.6451C22.4001 10.6392 22.3983 10.6335 22.3948 10.6288C22.3913 10.624 22.3864 10.6206 22.3808 10.6188C20.9602 10.3555 19.5182 10.2241 18.0733 10.2263C18.0677 10.2281 18.0629 10.2315 18.0594 10.2363C18.0559 10.241 18.054 10.2467 18.054 10.2526C18.054 10.2584 18.0559 10.2641 18.0594 10.2688C18.0629 10.2736 18.0677 10.2771 18.0733 10.2788ZM22.6108 7.25881C22.6599 7.26284 22.7093 7.26284 22.7583 7.25881C22.7631 7.25661 22.7672 7.25309 22.77 7.24866C22.7729 7.24423 22.7744 7.23907 22.7744 7.23381C22.7744 7.22854 22.7729 7.22339 22.77 7.21895C22.7672 7.21452 22.7631 7.211 22.7583 7.20881L22.5483 7.13131L22.5158 7.09631C22.4626 7.07465 22.4058 7.06279 22.3483 7.06131C22.2658 7.03631 22.2133 7.03881 22.1483 7.01131C22.0701 7.0167 21.9916 7.0167 21.9133 7.01131C21.9082 7.01085 21.9031 7.01197 21.8987 7.01452C21.8942 7.01707 21.8907 7.02092 21.8885 7.02556C21.8863 7.0302 21.8856 7.0354 21.8865 7.04045C21.8873 7.0455 21.8897 7.05017 21.8933 7.05381C21.9578 7.10605 22.0329 7.14359 22.1133 7.16381C22.2677 7.23932 22.4395 7.27212 22.6108 7.25881ZM23.2708 6.01881H23.2908C23.2963 6.0194 23.3018 6.01817 23.3065 6.01532C23.3112 6.01246 23.3148 6.00814 23.3168 6.00301C23.3188 5.99789 23.3191 5.99225 23.3175 5.98697C23.316 5.98169 23.3128 5.97706 23.3083 5.97381C22.4053 5.21626 21.4393 4.53713 20.4208 3.94381C20.4156 3.94184 20.4099 3.94168 20.4045 3.94335C20.3992 3.94502 20.3946 3.94844 20.3914 3.95304C20.3883 3.95764 20.3867 3.96318 20.3871 3.96875C20.3874 3.97433 20.3896 3.97963 20.3933 3.98381C21.2965 4.738 22.2588 5.41852 23.2708 6.01881ZM24.3733 5.10881C24.3768 5.10882 24.3803 5.1081 24.3835 5.10669C24.3867 5.10529 24.3896 5.10322 24.392 5.10062C24.3943 5.09803 24.3961 5.09497 24.3972 5.09164C24.3983 5.08832 24.3987 5.08479 24.3983 5.08131C24.2708 4.87235 24.1252 4.67494 23.9633 4.49131C23.805 4.29813 23.6188 4.12961 23.4108 3.99131C23.4087 3.98917 23.4062 3.98748 23.4034 3.98632C23.4006 3.98517 23.3976 3.98458 23.3946 3.98458C23.3916 3.98458 23.3886 3.98517 23.3858 3.98632C23.383 3.98748 23.3805 3.98917 23.3783 3.99131C23.3762 3.99344 23.3745 3.99597 23.3734 3.99876C23.3722 4.00155 23.3716 4.00454 23.3716 4.00756C23.3716 4.01057 23.3722 4.01356 23.3734 4.01635C23.3745 4.01914 23.3762 4.02167 23.3783 4.02381C23.631 4.45067 23.9699 4.82019 24.3733 5.10881ZM35.3608 7.80381C35.1719 7.89877 34.9883 8.00393 34.8108 8.11881C34.807 8.12235 34.8042 8.12691 34.8029 8.13196C34.8015 8.13701 34.8017 8.14234 34.8032 8.14733C34.8048 8.15231 34.8078 8.15674 34.8118 8.16011C34.8158 8.16347 34.8207 8.16562 34.8258 8.16631C35.2558 8.04881 35.3833 7.94381 35.9758 7.72131C36.1258 7.65631 36.4233 7.50381 36.5133 7.45881C36.7083 7.37404 36.8936 7.26843 37.0658 7.14381C37.0808 7.12381 37.0658 7.08881 37.0358 7.09631C36.8377 7.15068 36.6445 7.22177 36.4583 7.30881C36.0812 7.44741 35.7144 7.61283 35.3608 7.80381ZM34.6708 7.19881C34.8558 7.15381 34.8808 7.07381 35.0108 7.00131C35.1408 6.92881 35.0608 6.95631 35.1558 6.88631C35.2512 6.81591 35.3354 6.73165 35.4058 6.63631C35.4208 6.61631 35.4058 6.59131 35.3758 6.60631C35.2978 6.62572 35.2252 6.66246 35.1633 6.71381C35.0963 6.74988 35.0341 6.79441 34.9783 6.84631C34.849 6.94426 34.7338 7.05951 34.6358 7.18881C34.6233 7.20381 34.6358 7.22881 34.6558 7.21881L34.6708 7.19881ZM33.4108 5.94881H33.4308C33.9433 5.48881 33.7033 5.67131 34.1633 5.27131C35.4133 4.02131 36.0108 3.56381 35.9608 3.52131C35.9562 3.51673 35.9499 3.51416 35.9433 3.51416C35.9368 3.51416 35.9305 3.51673 35.9258 3.52131C34.968 4.19499 34.114 5.00525 33.3908 5.92631C33.3874 5.93102 33.3855 5.93671 33.3855 5.94256C33.3855 5.9484 33.3874 5.95409 33.3908 5.95881L33.4108 5.94881ZM31.7433 4.82631H31.7583C31.8798 4.74387 31.9827 4.63706 32.0606 4.51267C32.1385 4.38829 32.1897 4.24904 32.2108 4.10381C32.212 4.09875 32.2115 4.09348 32.2095 4.0887C32.2075 4.08392 32.2041 4.07988 32.1997 4.07714C32.1953 4.07439 32.1902 4.07308 32.185 4.07338C32.1798 4.07368 32.1749 4.07557 32.1708 4.07881C31.953 4.28168 31.7962 4.54148 31.7183 4.82881L31.7433 4.82631ZM37.3208 15.3913C37.3258 15.3897 37.3302 15.3865 37.3333 15.3822C37.3364 15.378 37.338 15.3728 37.338 15.3676C37.338 15.3623 37.3364 15.3572 37.3333 15.3529C37.3302 15.3486 37.3258 15.3455 37.3208 15.3438C36.4704 14.9432 35.5903 14.6088 34.6883 14.3438C34.6608 14.3438 34.6408 14.3738 34.6558 14.3938C35.5173 14.794 36.4083 15.1275 37.3208 15.3913ZM34.1508 15.3688C34.1465 15.3645 34.1407 15.3621 34.1346 15.3621C34.1285 15.3621 34.1227 15.3645 34.1183 15.3688C34.114 15.3731 34.1116 15.379 34.1116 15.3851C34.1116 15.3912 34.114 15.397 34.1183 15.4013C34.3732 15.6682 34.7088 15.8439 35.0733 15.9013C35.0785 15.9006 35.0834 15.8985 35.0874 15.8951C35.0914 15.8917 35.0944 15.8873 35.0959 15.8823C35.0975 15.8773 35.0976 15.872 35.0963 15.867C35.0949 15.8619 35.0922 15.8573 35.0883 15.8538C34.8063 15.639 34.4891 15.4749 34.1508 15.3688ZM35.5033 30.4913C35.6108 30.4913 35.8958 30.4688 35.9058 30.3213C35.8866 30.2321 35.8494 30.1478 35.7966 30.0734C35.7437 29.9991 35.6763 29.9363 35.5983 29.8888H35.5208L35.5858 30.1138C33.9058 29.6138 32.2158 29.2588 30.4333 28.7113C30.2808 28.6663 30.0583 28.5963 29.9983 28.4163C29.9683 28.3238 30.0358 28.1663 30.8808 25.6063C30.8808 25.6063 31.3808 26.4788 31.3808 26.5038C31.5858 26.7538 31.9708 26.5263 32.2133 26.4338C32.4558 26.3413 32.6883 26.2013 32.8033 26.5038C33.5533 28.5038 33.1358 28.6188 33.5058 28.5888C34.2083 28.5113 34.4208 29.0888 34.7958 28.5513C34.7958 28.5513 35.5858 27.4513 36.1533 26.6438C36.2133 26.5563 36.4608 26.3013 36.4508 26.1938C36.4108 25.8188 36.0333 26.5938 34.8258 28.2113C34.7358 28.3338 34.6233 28.5938 34.4633 28.6313C34.2508 28.6813 34.0908 28.4388 33.5833 28.4663C33.4533 28.5188 33.4883 28.4338 33.4533 28.2988C33.3483 27.8738 33.4133 27.5488 33.0508 26.5763C32.9083 26.1763 32.6758 26.0763 32.3008 26.2288C32.0383 26.3263 31.6683 26.5888 31.4483 26.3088C31.2613 26.0121 31.1031 25.6982 30.9758 25.3713C31.0028 25.1198 31.0811 24.8764 31.2058 24.6563L31.3283 24.7513C31.4233 24.4113 31.4033 23.8713 31.1833 24.1813C31.0873 24.3282 31.0036 24.4829 30.9333 24.6438H31.0708C31.0358 24.7288 29.9458 27.9713 29.8458 28.3938C29.8008 28.6913 30.0033 28.7638 30.2533 28.8438C32.0033 29.3838 33.7733 29.8213 35.5408 30.2838C35.4258 30.3138 35.3233 30.4913 35.5033 30.4913ZM28.2233 44.9438C28.0827 44.7041 27.8562 44.5268 27.5898 44.4479C27.3233 44.369 27.0368 44.3943 26.7883 44.5188C26.6359 44.5878 26.5036 44.6945 26.4039 44.8288C26.3041 44.9631 26.2403 45.1206 26.2182 45.2865C26.1962 45.4523 26.2168 45.621 26.2781 45.7767C26.3393 45.9324 26.4392 46.0699 26.5683 46.1763C27.4533 46.9913 28.6733 45.8038 28.2233 44.9438ZM28.1808 45.2738C28.201 45.3996 28.1937 45.5283 28.1596 45.6511C28.1254 45.7738 28.0651 45.8877 27.9829 45.985C27.9006 46.0824 27.7983 46.1608 27.683 46.2149C27.5676 46.269 27.442 46.2976 27.3146 46.2987C27.1871 46.2998 27.061 46.2734 26.9447 46.2212C26.8285 46.1691 26.7249 46.0924 26.641 45.9965C26.5571 45.9007 26.4948 45.7878 26.4586 45.6656C26.4223 45.5435 26.4129 45.4149 26.4308 45.2888C26.5033 44.5313 27.8833 44.0163 28.1808 45.2738ZM28.3608 41.7413C28.7158 41.6938 28.7658 41.5188 29.0483 41.3488C29.0825 41.3269 29.1215 41.3136 29.1619 41.3101C29.2024 41.3066 29.2431 41.313 29.2805 41.3287C29.3179 41.3445 29.3509 41.3691 29.3767 41.4005C29.4024 41.4319 29.4202 41.469 29.4283 41.5088C29.4226 41.757 29.3214 41.9933 29.1458 42.1688C28.4833 42.9188 27.7108 42.8938 27.6458 43.6838C27.6378 43.7639 27.6569 43.8444 27.7003 43.9122C27.7436 43.98 27.8086 44.0312 27.8846 44.0575C27.9607 44.0838 28.0434 44.0837 28.1194 44.0572C28.1954 44.0307 28.2602 43.9793 28.3033 43.9113C28.3933 43.7638 28.3833 43.6613 28.5333 43.5463C29.1358 43.1163 29.6058 43.2563 30.4758 42.8163C30.7093 42.6831 30.9093 42.4983 31.0605 42.276C31.2117 42.0538 31.3102 41.7999 31.3483 41.5338C31.5308 40.2838 29.9858 39.1963 28.5108 39.7063C28.1383 39.8238 27.6508 40.0513 27.4508 40.4888C27.3805 40.6317 27.3505 40.7912 27.3641 40.9499C27.3777 41.1087 27.4343 41.2607 27.528 41.3896C27.6216 41.5185 27.7487 41.6194 27.8955 41.6814C28.0422 41.7433 28.2032 41.7641 28.3608 41.7413ZM28.3433 40.0188C29.3158 39.6238 30.6708 39.7413 31.0608 40.8063C31.1997 41.1453 31.2098 41.5233 31.0891 41.8692C30.9685 42.215 30.7254 42.5048 30.4058 42.6838C29.7958 43.0513 29.0208 42.9938 28.4383 43.4138C28.2333 43.5638 28.1883 43.8138 27.9908 43.9613C27.7408 43.8063 27.8183 43.4613 27.9908 43.2713C28.2537 43.0331 28.5411 42.8236 28.8483 42.6463C29.0983 42.4363 29.6308 41.9963 29.6133 41.5538C29.5408 41.1213 29.1783 41.0013 28.8633 41.3038C27.9233 42.2663 26.8608 40.5188 28.3358 40.0163L28.3433 40.0188ZM41.0508 35.1438C41.0976 34.7878 41.0387 34.4259 40.8813 34.1032C40.724 33.7805 40.4751 33.5112 40.1658 33.3288C39.8104 33.1155 39.393 33.0294 38.9822 33.0849C38.5714 33.1404 38.1917 33.3341 37.9057 33.6342C37.6196 33.9342 37.4442 34.3226 37.4084 34.7356C37.3725 35.1486 37.4783 35.5615 37.7083 35.9063C38.6433 37.2538 40.7583 36.7413 41.0508 35.1438Z" fill="#A17E6D"/>
<path d="M46.1408 38.3139L43.7158 29.7914C43.6773 29.6509 43.5845 29.5314 43.458 29.4592C43.3314 29.3871 43.1814 29.368 43.0408 29.4064C42.9458 29.4264 39.0008 30.5939 38.6183 30.7139C38.4283 29.7364 36.4808 17.6589 36.4483 17.6489C36.4158 17.6389 34.0983 19.9739 32.8808 21.1189C30.8808 23.0014 25.8233 27.6889 25.8233 27.6889C25.7008 27.8064 25.0408 28.2964 25.0908 28.4714C25.1483 28.7364 34.5108 31.1364 35.6683 31.4714L34.5083 31.8014C34.3681 31.8389 34.2486 31.9305 34.1759 32.0561C34.1032 32.1818 34.0834 32.3311 34.1208 32.4714C34.1208 32.5014 36.5558 41.0389 36.5508 41.0139C36.5696 41.0836 36.6021 41.1489 36.6462 41.2061C36.6904 41.2632 36.7455 41.3111 36.8082 41.3469C36.8709 41.3827 36.9401 41.4057 37.0118 41.4146C37.0835 41.4235 37.1562 41.4182 37.2258 41.3989L45.7533 38.9714C45.8239 38.9572 45.8908 38.9283 45.9494 38.8865C46.0081 38.8448 46.0573 38.7912 46.0939 38.7291C46.1304 38.6671 46.1535 38.598 46.1616 38.5265C46.1697 38.4549 46.1626 38.3825 46.1408 38.3139ZM25.2733 28.4464C25.9283 27.8414 35.0658 19.3814 36.3683 17.8514C36.5133 18.8039 37.8833 27.7739 38.7733 32.2314C36.3608 31.4914 25.5083 28.4464 25.2733 28.4464ZM37.1858 34.1739C37.2732 33.9087 37.412 33.6634 37.5943 33.452C37.7766 33.2406 37.9989 33.0672 38.2483 32.9418C38.4977 32.8164 38.7694 32.7415 39.0478 32.7212C39.3262 32.701 39.6059 32.7358 39.8708 32.8239C40.1694 32.9282 40.4418 33.0962 40.669 33.3163C40.8963 33.5363 41.073 33.8032 41.1869 34.0983C41.3008 34.3934 41.3492 34.7097 41.3287 35.0253C41.3082 35.341 41.2194 35.6484 41.0683 35.9264C41.0641 35.9317 41.0618 35.9383 41.0618 35.9451C41.0618 35.9519 41.0641 35.9585 41.0683 35.9639C41.1133 35.9864 43.5408 37.3939 43.6983 37.5039C43.7658 37.5489 43.7433 37.7914 43.4158 37.6089C43.4158 37.6089 41.1658 36.3189 40.9633 36.1889C40.8958 36.1514 40.8783 36.1739 40.8483 36.2264C40.4233 36.9764 39.0983 37.2264 38.2233 36.7264C37.7813 36.4872 37.4361 36.1018 37.2468 35.6362C37.0576 35.1705 37.036 34.6536 37.1858 34.1739ZM27.6108 4.16135C27.6124 4.16577 27.6152 4.16959 27.6191 4.1723C27.6229 4.175 27.6274 4.17646 27.6321 4.17646C27.6368 4.17646 27.6413 4.175 27.6451 4.1723C27.6489 4.16959 27.6518 4.16577 27.6533 4.16135C27.6743 3.76103 27.6217 3.36026 27.4983 2.97885C27.4983 2.97222 27.4957 2.96587 27.491 2.96118C27.4863 2.95649 27.48 2.95385 27.4733 2.95385C27.4667 2.95385 27.4604 2.95649 27.4557 2.96118C27.451 2.96587 27.4483 2.97222 27.4483 2.97885C27.4292 3.18239 27.4376 3.38757 27.4733 3.58885C27.4861 3.78614 27.5326 3.97978 27.6108 4.16135ZM28.5583 4.18135C28.7086 3.47003 28.7699 2.74279 28.7408 2.01635C28.7408 1.98635 28.6933 1.98135 28.6883 2.01635C28.5368 2.73171 28.4755 3.46325 28.5058 4.19385C28.5085 4.19965 28.5131 4.20435 28.5188 4.20715C28.5245 4.20995 28.531 4.21067 28.5372 4.2092C28.5434 4.20772 28.5489 4.20414 28.5528 4.19906C28.5566 4.19398 28.5586 4.18772 28.5583 4.18135ZM29.6283 18.4914C29.4248 19.2767 29.3034 20.081 29.2658 20.8914C29.2658 20.9214 29.2658 20.9489 29.2883 20.9539C29.2938 20.9537 29.299 20.952 29.3035 20.9489C29.3079 20.9458 29.3114 20.9414 29.3133 20.9364C29.5069 20.1337 29.629 19.3155 29.6783 18.4914C29.6761 18.4866 29.6726 18.4825 29.6682 18.4797C29.6638 18.4768 29.6586 18.4753 29.6533 18.4753C29.6481 18.4753 29.6429 18.4768 29.6385 18.4797C29.6341 18.4825 29.6305 18.4866 29.6283 18.4914ZM12.5458 15.2089C12.7958 14.9039 13.0083 14.9239 12.9883 14.8614C12.9868 14.8574 12.9845 14.8537 12.9815 14.8507C12.9785 14.8477 12.9748 14.8454 12.9708 14.8439C12.6608 14.8264 12.4308 15.1214 12.5358 15.2414L12.5458 15.2089ZM13.9733 15.7589C14.0127 15.8092 14.0362 15.8701 14.0408 15.9339C14.0317 15.9669 14.0159 15.9977 13.9944 16.0243C13.9729 16.051 13.9462 16.073 13.9158 16.0889C13.8558 16.1314 13.7608 16.1614 13.8783 16.2064C13.9958 16.2514 14.0883 16.1514 14.1283 16.0864C14.1588 16.0193 14.1691 15.9449 14.158 15.8721C14.1469 15.7993 14.1149 15.7313 14.0658 15.6764C13.9596 15.4541 13.804 15.2592 13.6108 15.1064C13.6061 15.1029 13.6004 15.101 13.5946 15.101C13.5887 15.101 13.5831 15.1029 13.5783 15.1064C13.5083 15.1689 13.8258 15.5214 13.9733 15.7589ZM12.8608 15.3689C12.8494 15.373 12.8393 15.38 12.8314 15.3892C12.8235 15.3984 12.8182 15.4095 12.8158 15.4214C12.7933 15.5139 12.8833 15.7589 13.0183 15.7139C13.1533 15.6689 13.0058 15.2739 12.8608 15.3689ZM13.9408 15.0414C13.9408 15.1589 14.0483 15.2914 14.1333 15.2589C14.2183 15.2264 14.1333 15.0089 14.0733 14.9339C14.0133 14.8589 13.9383 14.9564 13.9408 15.0414ZM13.8058 16.5964C13.7414 16.6475 13.6978 16.7204 13.6833 16.8014C13.6833 17.1539 13.6358 16.9064 13.8983 16.6864C13.9158 16.6714 14.1858 16.4964 14.1933 16.5439C14.1608 16.3889 13.8608 16.5489 13.8058 16.5964Z" fill="#A17E6D"/>
</svg>
