<svg width="51" height="51" viewBox="0 0 51 51" fill="none" xmlns="http://www.w3.org/2000/svg">
<path fill-rule="evenodd" clip-rule="evenodd" d="M23.6289 46.2175C12.3511 46.2175 3.17586 37.0425 3.17586 25.7648C3.17586 14.487 12.3511 5.31177 23.6289 5.31177C28.3726 5.31177 32.7444 6.93507 36.2176 9.65534C36.1261 9.68489 36.0349 9.71444 35.9434 9.74404C33.1821 7.61639 29.8574 6.18557 26.2351 5.71727C26.3049 5.75882 26.3771 5.80409 26.4591 5.85627C28.6074 7.22194 30.3136 9.03712 31.6241 11.1827C31.4789 11.2319 31.3334 11.2811 31.1881 11.33C30.3754 9.80789 28.8481 8.71874 27.0771 8.50902C26.9934 8.49902 26.9424 8.41027 26.9781 8.33252C27.1626 7.93302 27.3191 7.40902 27.0166 7.18227C26.9246 7.12102 26.8116 7.06952 26.7119 7.04452C24.803 6.47532 22.3374 6.80764 20.121 7.39542C18.7185 9.11944 17.845 11.1874 17.2079 13.325C17.4577 13.4051 17.6477 13.5604 17.8585 13.7327C17.8935 13.7614 17.9291 13.7905 17.9656 13.8198C18.1866 14.0933 18.7196 13.9753 18.6361 13.474C18.617 13.1938 18.4994 12.9603 18.3797 12.7227C18.2969 12.5584 18.2132 12.3922 18.1604 12.2073C18.0241 11.833 18.1749 11.4355 18.5279 11.2428C18.9696 11.0533 19.3884 11.2988 19.7969 11.5383L19.8356 11.561C20.0766 11.733 20.3816 11.8038 20.6346 11.7475C20.7435 11.7203 20.8412 11.6744 20.9388 11.6287C21.0643 11.5699 21.1894 11.5112 21.3371 11.4928C21.6989 11.42 22.1101 11.6185 22.1101 12.0065C22.1101 12.0538 22.0724 12.0915 22.0359 12.128C22.0326 12.1313 22.0286 12.1343 22.0244 12.136C21.0989 12.5525 20.4896 13.4993 20.4896 14.453C20.4925 14.4833 20.4953 14.5138 20.4982 14.5444C20.5277 14.8621 20.5591 15.2007 20.6471 15.5233C20.6842 15.7335 20.7282 16.123 20.6369 16.492C21.036 16.5253 21.434 16.5493 21.8304 16.5642C21.8342 16.5263 21.8389 16.4882 21.8446 16.45C21.8618 16.3357 21.8843 16.2107 21.9081 16.0789C22.0283 15.4123 22.1793 14.5745 21.8199 14.0953C21.798 14.074 21.7752 14.0529 21.7523 14.0317C21.6683 13.9541 21.5818 13.8742 21.5304 13.7718C21.3949 13.5005 21.4356 13.2335 21.6329 13.0295C22.2419 12.3998 23.6081 11.716 23.8516 11.716C24.2379 11.677 24.5359 11.6973 24.8154 11.781C25.0678 11.8757 25.269 12.1028 25.3329 12.3535C25.2108 12.326 25.0908 12.2988 24.974 12.2723C24.948 12.2664 24.9222 12.2606 24.8965 12.2548C24.8424 12.1894 24.7686 12.1379 24.6666 12.1073C24.4254 12.0383 24.1779 12.0168 23.9514 12.045C23.9484 12.045 23.9452 12.0453 23.9422 12.0454C23.6564 11.9878 23.4605 11.9581 23.4069 11.976C23.1209 12.0713 22.8986 12.2303 22.7079 12.4208C22.7371 12.4437 22.7739 12.4689 22.8175 12.4962C22.3954 12.7461 21.9837 13.0657 21.7854 13.3633C21.692 13.5315 21.8337 13.6954 21.9777 13.862C22.0511 13.9469 22.1251 14.0326 22.1689 14.1198C22.2691 14.3205 22.3316 14.5825 22.3316 14.8038C22.3004 15.3695 22.2379 15.9113 22.1406 16.4625C22.1344 16.4996 22.1295 16.5366 22.1257 16.5737C22.8429 16.5927 23.5545 16.5821 24.2577 16.5435C24.3069 16.5125 24.356 16.483 24.4046 16.4553C24.6698 16.2272 24.9165 15.9361 25.1318 15.5985C25.0299 15.8292 24.924 16.0764 24.8049 16.3605C24.9164 16.237 25.0239 16.1183 25.1282 16.003C25.2267 15.8942 25.3224 15.7885 25.4161 15.6847C25.2348 15.9809 25.0078 16.2579 24.7373 16.5128C25.2697 16.4738 25.7969 16.4187 26.3179 16.3483C26.5916 16.0555 27.0819 15.907 27.3656 16.1846C28.3189 16.0154 29.2474 15.7945 30.1436 15.5263C30.1579 15.3793 30.1836 15.2458 30.2104 15.125C30.2594 14.7044 30.2021 14.2915 30.0389 13.9019C30.1329 13.9078 30.2244 13.9135 30.3136 13.9191C30.4599 14.317 30.5074 14.7343 30.4564 15.1665C30.4339 15.2685 30.4166 15.3608 30.4044 15.4467C30.7809 15.3294 31.1511 15.2037 31.5151 15.07L31.5126 15.0524C31.4849 14.8577 31.4586 14.6728 31.3761 14.5285C31.3061 14.452 31.2316 14.271 31.2251 14.211C31.2154 14.1145 31.2399 14.0376 31.2869 13.98C31.5806 13.9983 31.8416 14.0144 32.0749 14.0286C32.1071 14.0608 32.1351 14.0972 32.1576 14.1378C32.2296 14.2673 32.2714 14.4182 32.3114 14.5628C32.3281 14.6234 32.3444 14.6829 32.3626 14.7392C32.5671 14.6547 32.7691 14.5675 32.9689 14.4778C32.9161 14.3415 32.8626 14.2062 32.8079 14.0719C32.9064 14.0774 32.9979 14.0824 33.0834 14.0869C33.1221 14.1818 33.1604 14.2772 33.1979 14.373C33.3716 14.2923 33.5414 14.2058 33.7071 14.1139C33.9241 14.1203 34.0911 14.1207 34.2599 14.117C33.9664 14.2952 33.6459 14.4648 33.2959 14.6278C33.7949 15.9451 34.1896 17.3592 34.4876 18.8039C34.4206 18.9134 34.3536 19.0226 34.2869 19.1315C34.1161 18.2612 33.9096 17.3969 33.6646 16.5515C33.6864 16.7335 33.6984 16.943 33.6984 17.185C33.6984 17.8385 33.5136 18.2008 33.1491 18.2615C33.0231 18.2756 32.8871 18.2584 32.7629 18.2427C32.4226 18.1996 32.1696 18.1675 32.4491 18.8198C32.6796 19.4123 32.5626 20.1355 31.9889 20.657L31.9874 20.6583C31.8869 20.7501 31.7921 20.8367 31.7921 20.9343C31.7921 21.0781 32.0099 21.1546 32.2664 21.2447C32.4559 21.3113 32.6666 21.3854 32.8259 21.4996C32.7829 21.5689 32.7396 21.6382 32.6966 21.7075C32.5836 21.6187 32.4094 21.5597 32.2301 21.4991C31.8949 21.3855 31.5424 21.2661 31.5424 20.9345C31.5424 20.7275 31.6931 20.5895 31.8201 20.4733C31.8474 20.4484 31.8734 20.4246 31.8966 20.4013C32.2901 20.0078 32.4164 19.4243 32.2181 18.9145C32.1269 18.7018 31.9539 18.2983 32.2229 18.0743C32.3851 17.9393 32.5966 17.968 32.8014 17.9957C32.9109 18.0105 33.0181 18.0251 33.1151 18.0143C33.3896 17.9683 33.4486 17.538 33.4486 17.1853C33.4486 16.5703 33.3869 15.8283 32.9066 15.5455C32.5261 15.3562 32.3529 15.2562 32.2406 15.0785C32.0939 15.1365 31.9464 15.1931 31.7976 15.2483C31.8566 15.5522 31.9461 15.6906 32.2714 16.0063L32.2729 16.0077C32.3706 16.1025 32.4719 16.2006 32.5601 16.3143C32.8371 16.6703 32.9064 17.217 32.5331 17.4783C32.4806 17.5153 32.4084 17.506 32.3664 17.4573C32.2339 17.3025 32.0814 17.1753 31.8941 17.0643C31.8439 17.3565 31.7379 17.6725 31.5881 17.972C31.5469 18.0545 31.4309 18.0668 31.3749 17.9893L30.5489 16.8455C30.3639 16.6305 30.2189 16.329 30.1469 16.0053C30.1389 15.934 30.1344 15.8652 30.1331 15.7987C29.2756 16.0484 28.3941 16.2546 27.4961 16.4153C27.5464 16.6203 27.4781 16.853 27.3089 17.0223C26.7899 17.6285 25.9844 17.2673 26.1341 16.669C26.1381 16.6527 26.1431 16.6365 26.1486 16.6204C25.5694 16.6933 24.9848 16.7475 24.3967 16.7823C24.1179 16.9377 23.8935 17.1433 23.7239 17.3978C23.6111 17.6525 23.5414 17.9318 23.5076 18.2703C23.4861 18.3998 23.4379 18.6883 23.1684 18.6883C22.8939 18.6883 22.5899 18.3923 22.3954 18.1978C22.0284 17.8308 21.8272 17.3385 21.8199 16.8099C21.3985 16.794 20.9766 16.768 20.5549 16.7316C20.4826 16.8915 20.3756 17.038 20.2201 17.152L20.1926 17.1803C19.7971 17.4448 19.2611 17.355 18.9921 16.985C18.8984 16.8351 18.8794 16.6844 18.8957 16.5344C18.0936 16.4125 17.2954 16.2521 16.5054 16.0518C16.2562 17.1521 16.0496 18.2567 15.8843 19.3517C16.3022 19.1682 16.4687 18.6459 16.6441 18.0958C16.862 17.4121 17.0937 16.6855 17.8389 16.5135C18.4906 16.363 18.9609 16.8058 18.9004 17.3488C18.8686 17.6968 18.9354 18.0738 19.0879 18.4093C19.1279 18.4811 19.169 18.5572 19.2113 18.6357C19.3272 18.8504 19.4525 19.0828 19.5931 19.2935C20.2166 20.2285 20.1864 21.674 19.0926 21.8928C18.7354 21.9328 18.4494 21.8404 18.2024 21.7605C17.9641 21.6835 17.7622 21.6182 17.5679 21.695C17.8349 21.9395 18.0651 22.2428 18.2269 22.565C18.2686 22.6123 18.2669 22.6958 18.2221 22.7403C17.9486 22.98 17.6489 23.0683 17.3306 23.0048C17.0489 22.9768 16.7464 23.0503 16.4349 23.2233C16.1442 23.4172 15.9093 23.6767 15.6742 23.9364C15.5867 24.033 15.4992 24.1297 15.4088 24.223C15.3777 24.9381 15.365 25.6386 15.3699 26.32C19.2214 27.4065 23.9114 27.6095 28.6031 26.5615C30.9716 26.041 33.0594 25.3211 34.8419 24.4154C34.8644 24.3733 34.8849 24.3304 34.9036 24.2868C34.8586 23.3367 34.7754 22.3623 34.6501 21.3815C34.3404 21.7782 34.1466 22.2525 33.9476 22.7399C33.8869 22.8886 33.8256 23.0385 33.7604 23.1878C33.5189 23.7403 33.1066 24.0093 32.6324 23.9253C32.5261 23.9066 32.4334 23.8676 32.3551 23.814C32.3589 23.8077 32.3624 23.8014 32.3661 23.795C32.4101 23.7313 32.4541 23.6678 32.4981 23.6045C32.7689 23.7924 33.2576 23.7137 33.5314 23.0875C33.5931 22.9459 33.6521 22.8017 33.7114 22.6569C33.9441 22.0877 34.1804 21.5097 34.6059 21.048C34.5944 20.9646 34.5826 20.8812 34.5704 20.7978C34.6446 20.702 34.7189 20.6065 34.7931 20.5112C34.8091 20.6153 34.8246 20.7195 34.8394 20.8236C34.8461 20.8179 34.8531 20.8122 34.8599 20.8065C34.9141 20.7615 34.9969 20.77 35.0401 20.8285C35.4206 21.3448 36.1466 21.4863 36.6974 21.1665C36.6099 20.9963 36.3454 20.9353 36.0149 20.8758C34.6941 20.6383 35.4481 19.1055 36.4579 20.1155C36.8216 20.4793 37.3379 20.6738 37.6074 20.5495C37.8289 20.4473 37.8526 20.1378 37.8334 19.896C37.8084 19.5186 37.6239 19.1422 37.4336 18.754C37.2684 18.4172 37.0989 18.0715 37.0254 17.7085C37.0969 17.6193 37.1684 17.5301 37.2399 17.4408C37.2646 17.8545 37.4586 18.2454 37.6549 18.6402C37.8534 19.0396 38.0536 19.4431 38.0826 19.8783C38.1284 20.4583 37.9061 20.6873 37.7119 20.7768C37.2906 20.971 36.6604 20.6723 36.2809 20.2925C35.8419 19.8538 35.5281 20.0328 35.5626 20.2813C35.5939 20.5055 35.8551 20.5933 36.0589 20.63L36.0606 20.6303C36.4124 20.6938 36.8926 20.7804 36.9689 21.1983C36.9779 21.2468 36.9574 21.296 36.9166 21.3238C36.2869 21.755 35.4214 21.641 34.9244 21.0823C34.9099 21.0958 34.8954 21.1094 34.8811 21.1232C34.9996 22.0022 35.0841 22.8795 35.1364 23.7407C35.2659 23.5066 35.4306 23.2971 35.6194 23.1295C35.9906 22.8677 36.5554 22.9032 36.7866 23.2729C38.0459 22.4133 39.1166 21.4091 39.9689 20.2235C39.8909 19.9426 39.7089 19.6789 39.4091 19.4885C39.2266 19.831 38.9474 20.1573 38.5771 20.46C38.4986 20.5245 38.3776 20.4723 38.3731 20.3688L38.2461 17.4775C38.2086 16.9917 38.0971 16.7037 37.9066 16.6046C37.9579 16.5397 38.0094 16.4748 38.0606 16.4098C38.4331 16.6484 38.4794 17.247 38.4956 17.462L38.6116 20.0983C38.8969 19.8328 39.1084 19.5523 39.2424 19.262C39.2714 19.199 39.3474 19.1705 39.4119 19.2025C39.7764 19.3847 40.0176 19.66 40.1469 19.9686C40.8034 19.0004 41.3189 17.9146 41.6784 16.6925C41.6791 16.6911 41.6796 16.6898 41.6804 16.6884C41.6819 16.6856 41.6834 16.6829 41.6849 16.6802C41.1916 15.7039 40.6214 14.7728 39.9826 13.8948C40.0316 13.8276 40.0809 13.7602 40.1299 13.6926C42.6136 17.0783 44.0819 21.2533 44.0819 25.7648C44.0819 37.0428 34.9066 46.2175 23.6289 46.2175ZM25.7701 13.8123C25.7989 13.8906 25.8269 13.9769 25.8531 14.074C25.7526 14.2758 25.6621 14.4598 25.5771 14.6357C25.6014 14.4799 25.5961 14.3157 25.5619 14.144L25.5596 14.1378C25.4986 13.976 25.4354 13.8081 25.3626 13.6493C25.5181 13.7122 25.6569 13.7675 25.7701 13.8123ZM23.6289 5.55002C23.0542 5.55002 22.4852 5.57412 21.9225 5.62137C21.6716 5.81287 21.2547 6.17839 21.0359 6.39727C20.8129 6.61289 20.601 6.83602 20.3993 7.06594C22.5579 6.52522 24.9133 6.24752 26.7779 6.80352C27.5136 6.98652 27.5566 7.58252 27.2721 8.28277C28.6569 8.48932 29.8889 9.21069 30.7564 10.2469C29.4546 8.38842 27.8016 6.83932 25.6889 5.65419C25.0114 5.58532 24.3242 5.55002 23.6289 5.55002ZM20.5419 5.78529C20.8471 5.73834 21.1545 5.69822 21.464 5.66512C20.8995 6.12174 20.3932 6.63279 19.9375 7.18632C19.1311 7.40457 18.36 7.65477 17.6619 7.90577C17.7761 7.58302 18.1259 7.28677 18.7209 7.00677C19.0308 6.87622 19.3294 6.66152 19.623 6.45034C19.9074 6.24587 20.1872 6.04472 20.4681 5.92652C20.5245 5.90287 20.5542 5.84292 20.5419 5.78529ZM17.5399 8.21602C18.1916 7.97594 18.9143 7.73424 19.6741 7.51827C18.3938 9.19117 17.5368 11.2099 16.9097 13.2715C16.6122 13.2701 16.3638 13.227 16.3909 12.9325C16.4201 12.698 16.5064 12.45 16.6421 12.2123C16.8314 11.7864 16.83 11.3387 16.8286 10.8945C16.8281 10.7356 16.8276 10.5771 16.8359 10.4203C16.8644 9.96177 17.1234 9.27977 17.7196 9.27977C17.7724 9.27977 17.8206 9.23152 17.8204 9.18402C17.8836 8.74077 17.3586 8.44127 17.2759 8.68102C17.2564 8.73802 17.2926 8.79502 17.3311 8.80227C17.4371 8.82352 17.5134 8.91302 17.5271 9.01927C17.1661 9.05702 16.8226 9.30152 16.6699 9.63777C16.4377 10.0731 16.4401 10.5489 16.4426 11.0314C16.4429 11.081 16.4431 11.1306 16.4431 11.1803C16.4431 11.6196 16.3335 11.8751 16.2077 12.1684C16.1378 12.3312 16.063 12.5057 15.9991 12.7298C15.9549 12.9513 16.0389 13.2075 16.0729 13.2403C16.2581 13.4258 16.4614 13.504 16.6711 13.4738C16.729 13.4738 16.787 13.4789 16.8445 13.4888C16.651 14.1426 16.4798 14.7995 16.3249 15.4501C16.1802 15.4994 16.0258 15.5637 15.8818 15.6467C15.2574 15.4718 14.6394 15.2691 14.0209 15.0623C13.0521 14.7384 12.1075 14.2581 11.3425 13.5753C11.6992 13.1044 11.8756 12.7091 12.049 12.3205C12.2263 11.9233 12.4003 11.5332 12.7606 11.0768C13.1821 10.558 13.6906 10.1555 14.2734 9.87927C14.3489 9.84152 14.3674 9.76127 14.3219 9.67002C14.3201 9.66652 14.3176 9.66327 14.3149 9.66027L14.2774 9.62377C14.1979 9.57077 14.1576 9.49827 14.1576 9.40852C14.1576 9.25002 14.2859 9.06652 14.4021 8.98877C15.0354 8.63702 16.2904 8.65652 17.0436 8.83352C17.2234 8.87952 17.2981 8.56952 17.1236 8.56952C16.7611 8.50902 16.3364 8.44302 15.9406 8.41002C15.5099 8.41002 15.1329 8.45202 14.7934 8.53727C14.4336 8.57002 14.1381 8.76302 13.9371 9.09802C13.8414 9.28977 13.8634 9.52452 13.9784 9.70502C13.4576 9.98252 12.9646 10.3913 12.5744 10.8718C12.1474 11.4628 11.8039 12.0963 11.5541 12.752C11.4431 12.9852 11.31 13.2012 11.1607 13.4041C10.4401 12.6817 9.85041 11.5245 10.3407 10.5434C13.0377 8.18584 16.3645 6.53184 20.032 5.87049C19.842 5.98397 19.656 6.11777 19.4715 6.25044C19.1867 6.45532 18.9055 6.65757 18.6191 6.77827C17.8079 7.16002 17.3999 7.58977 17.3719 8.09177C17.3666 8.18127 17.4554 8.24727 17.5399 8.21602ZM16.6684 15.3513C16.8103 14.7609 16.963 14.1692 17.1325 13.5819C17.2092 13.6191 17.2814 13.6654 17.3466 13.7198C17.3537 13.7254 17.3627 13.733 17.3739 13.7425C17.451 13.8076 17.6305 13.9592 17.9716 14.1393C18.6839 14.5148 19.1059 13.6093 18.5786 12.6878C18.2944 12.191 18.0294 11.5403 18.5861 11.4078C18.9577 11.3191 19.2488 11.5091 19.5409 11.6998C19.7586 11.8419 19.9769 11.9844 20.2296 12.0123C20.4886 12.0123 20.7721 11.9363 21.0659 11.7885C21.2751 11.7288 21.6371 11.687 21.7054 11.8928C20.7711 12.3688 20.1584 13.2788 20.0969 14.2923C20.081 14.609 20.1396 14.9369 20.1964 15.2553C20.274 15.6903 20.3485 16.1076 20.2261 16.4545C19.8661 16.4187 19.5053 16.3754 19.144 16.3242C19.1577 16.2763 19.1733 16.227 19.1893 16.1765C19.2746 15.907 19.3714 15.6012 19.2499 15.2708C19.2424 15.216 19.1626 15.1783 19.1221 15.1783C18.2832 15.0849 17.4792 15.1416 16.6684 15.3513ZM19.098 16.5643C19.4326 16.6124 19.7678 16.6538 20.1032 16.6886C20.0484 16.7638 19.9794 16.8341 19.8934 16.8988C19.6829 17.0188 19.4419 17.0188 19.2376 16.903C19.125 16.8045 19.0915 16.6909 19.098 16.5643ZM18.9969 16.1296C18.9792 16.1846 18.9614 16.2399 18.9456 16.2954C18.1504 16.1766 17.3531 16.0199 16.5571 15.8233L16.5717 15.7606C17.3516 15.4974 18.1984 15.4222 19.0786 15.4978C19.1345 15.7018 19.0663 15.9138 18.9969 16.1296ZM12.8954 14.829C14.0104 15.3492 14.8643 15.6093 15.6351 15.8196C15.4572 15.9731 15.3257 16.1695 15.2994 16.4195C15.2795 16.6376 15.3612 16.8128 15.4443 16.991C15.5016 17.1139 15.5595 17.2383 15.5854 17.3793C15.6276 17.8861 15.5079 18.1258 15.3823 18.3776C15.2639 18.6147 15.1403 18.8625 15.1414 19.354C15.1866 19.5583 15.3521 19.6497 15.5435 19.6541C15.3419 21.1211 15.1978 22.6622 15.1315 24.2041C14.7449 24.5393 14.3212 24.6771 13.7416 24.7738C13.2849 24.85 12.784 24.9689 12.3998 25.2624C11.9096 25.0479 11.4262 24.8159 10.9501 24.5665C8.87643 23.4377 7.04868 21.8044 6.06176 19.7634C6.09626 19.6569 6.13763 19.5532 6.17553 19.4582L6.18836 19.426C6.46661 18.8695 6.85011 18.2513 7.32861 17.5888C8.14268 16.4839 8.97773 15.7854 9.71473 15.1688C9.95683 14.9663 10.1884 14.7726 10.4051 14.5763C10.7476 14.2659 11.0103 13.9881 11.2185 13.733C11.7175 14.1976 12.2791 14.565 12.8954 14.829ZM15.6993 18.6057C15.6568 18.8717 15.6161 19.1408 15.5773 19.4126C15.3945 19.338 15.6066 18.7882 15.6993 18.6057ZM15.8114 17.0778C15.8511 17.1602 15.8911 17.2434 15.9222 17.3284C16.0106 16.862 16.1044 16.4089 16.2029 15.972L16.1162 15.9488C15.8903 16.0709 15.7018 16.2399 15.6596 16.4925C15.6262 16.693 15.7178 16.8832 15.8114 17.0778ZM15.4241 23.8989C15.495 22.5055 15.6349 21.0599 15.8482 19.5953C16.495 19.3438 16.7047 18.6702 16.9017 18.0376C17.1152 17.352 17.3137 16.7145 18.0374 16.7145C18.3571 16.7145 18.5371 16.9275 18.5719 17.3443C18.5719 18.1643 18.7284 18.4503 19.1444 19.1163C19.3499 19.445 19.5621 19.7853 19.6531 20.1493C19.7334 20.47 19.7239 20.9578 19.5136 21.2705C19.2258 21.6988 18.8089 21.5767 18.378 21.4506C17.9708 21.3314 17.5513 21.2086 17.2166 21.5433C17.1701 21.59 17.1701 21.7088 17.2196 21.758C17.5404 22.0145 17.7764 22.294 17.9226 22.5905C17.779 22.7205 17.5776 22.7164 17.334 22.7113C17.0834 22.7061 16.7882 22.7 16.4656 22.838C16.4584 22.8412 16.3392 22.9499 16.2983 22.9873L16.2849 22.9995C15.9659 23.2879 15.6641 23.5609 15.4241 23.8989ZM13.7502 24.9873C14.2461 24.8825 14.721 24.7822 15.1203 24.4859C15.0987 25.0741 15.0886 25.6617 15.0911 26.2448C14.2515 25.9965 13.4279 25.7008 12.6224 25.3584C12.8717 25.1954 13.1335 25.0942 13.3754 25.0698C13.501 25.0399 13.6263 25.0134 13.7502 24.9873ZM12.1651 26.3965C12.1379 26.0718 12.2288 25.7688 12.4197 25.5333C13.2839 25.9045 14.1694 26.21 15.0946 26.4783C15.1226 29.3673 15.3919 32.002 16.0814 34.8675C15.8324 34.7988 15.5838 34.7268 15.3356 34.6518C15.3125 34.625 15.2901 34.5983 15.2684 34.571C15.2684 34.571 14.3199 33.5895 14.2726 33.541C13.8736 33.1325 13.3774 32.6245 12.7904 32.6535C12.5104 32.6885 12.2861 32.8305 12.1621 33.0485C12.1308 33.0875 12.0978 33.1373 12.0634 33.1893C12.0138 33.264 11.9613 33.343 11.9068 33.401C11.7471 33.3325 11.5877 33.2628 11.4285 33.1918C11.2922 33.0348 11.1622 32.8685 11.0374 32.7088C10.9742 32.628 10.9125 32.549 10.8519 32.4738C10.5969 32.2188 10.3449 31.932 10.0624 31.5263C9.83248 31.1963 9.98193 30.891 10.1395 30.569C10.239 30.3658 10.3418 30.1558 10.3544 29.9288C10.3776 29.5083 10.0749 29.3613 9.78183 29.2188L9.76586 29.211C9.61951 29.1403 9.30103 28.9863 9.31311 28.839C9.32128 28.7415 9.46776 28.657 9.59458 28.584C9.65011 28.552 9.70191 28.5223 9.73661 28.4945C9.89711 28.366 10.0049 28.1373 10.0049 27.9253C10.0049 27.53 9.68136 27.2205 9.26836 27.2205C9.05846 27.2205 8.90631 27.316 8.75811 27.4093C8.70226 27.4443 8.64696 27.479 8.58936 27.5083C8.39411 27.573 8.19836 27.5283 8.08611 27.3888C7.78711 27.1195 7.81186 26.6928 7.87561 26.311C7.98536 25.6793 8.27436 25.0375 8.69536 24.4843C9.09711 25.0528 9.66286 25.4383 10.3084 25.5785C10.7576 25.6823 11.0229 25.815 11.1376 26.2158C11.2225 26.682 11.1803 26.9685 11.1533 27.1513C11.1289 27.317 11.117 27.398 11.2234 27.4508C11.4626 27.553 11.7734 27.4848 11.9354 27.2798C12.1229 27.0425 12.2006 26.7153 12.1651 26.3965ZM12.1611 25.4873C12.1752 25.4709 12.1895 25.4548 12.2041 25.4392C11.3491 25.0595 10.5134 24.6125 9.67886 24.0703C8.03793 22.9835 6.77383 21.6069 5.98843 20.0935C5.97631 20.2289 5.99286 20.3586 6.05986 20.4703C6.10503 20.5494 6.16761 20.6168 6.23076 20.6849C6.34273 20.8055 6.45643 20.9279 6.47786 21.121C6.47811 21.3948 6.38961 21.6285 6.31536 21.7773C6.20286 21.9748 6.13161 22.1885 6.09661 22.433C6.09701 22.5629 6.18866 22.6246 6.29056 22.6932C6.31608 22.7104 6.34231 22.728 6.36786 22.7473C6.71411 22.9778 6.85036 23.41 6.85936 23.8258C6.86713 24.1843 6.78188 24.5163 6.69896 24.8391C6.60056 25.2223 6.50543 25.5927 6.57286 25.9798C6.68186 26.6055 7.05511 27.1683 7.41636 27.7128C7.43426 27.7398 7.56928 27.9458 7.75251 28.2253C8.14741 28.828 8.76618 29.7723 8.91836 30.0005C9.13386 30.2778 9.27211 30.6345 9.30561 31.0028C9.27236 31.4423 9.34761 31.8413 9.52361 32.1638C9.56403 32.2228 9.60803 32.2818 9.65483 32.3408C9.83211 32.432 10.0109 32.5213 10.1909 32.609C10.4277 32.7263 10.6651 32.8405 10.9031 32.9518C10.8464 32.8825 10.7898 32.8138 10.7329 32.7463C10.6383 32.6343 10.5402 32.5225 10.4405 32.409C10.2847 32.2315 10.1251 32.0498 9.96961 31.8558C9.77361 31.6595 9.67461 31.363 9.70761 31.0655C9.77431 30.8298 9.86486 30.6318 9.94278 30.4615C10.1035 30.1105 10.2104 29.8768 9.94411 29.6695C9.86546 29.6083 9.75743 29.5563 9.64473 29.502C9.35328 29.3615 9.03063 29.2063 9.10436 28.8383C9.12946 28.636 9.28288 28.53 9.43271 28.4265C9.59321 28.3158 9.74956 28.2075 9.73961 27.9873C9.73461 27.877 9.68136 27.7718 9.59361 27.6988C9.39143 27.4963 9.17348 27.616 8.92043 27.755C8.89403 27.7695 8.86728 27.7843 8.84011 27.7988C8.60536 27.9248 8.30736 27.931 8.07411 27.7978C7.45961 27.442 7.53811 26.6893 7.67486 26.0733C7.84386 25.3305 8.30336 24.5653 8.64361 24.2075C8.72611 24.1208 8.84711 24.1275 8.89086 24.2585C9.10661 24.6268 9.42061 24.9408 9.79561 25.1595C9.94298 25.2333 10.1115 25.2877 10.2753 25.3407C10.3146 25.3534 10.3537 25.366 10.3921 25.3788C10.6019 25.4083 10.7974 25.4698 11.0006 25.5715C11.6221 25.897 11.6116 26.619 11.5189 27.3045C11.6499 27.2888 11.7901 27.142 11.8386 27.0208C11.8859 26.8788 11.9304 26.6555 11.8999 26.4045C11.8606 26.0813 11.9604 25.7553 12.1611 25.4873ZM5.96311 19.3268C5.94423 19.3608 5.92641 19.3952 5.90971 19.43C5.60811 18.7272 5.40571 17.9786 5.32531 17.188C6.46436 14.7668 8.06998 12.6068 10.0256 10.8246C9.75223 11.7977 10.4134 12.8088 10.6496 13.1283C10.7748 13.2798 10.9052 13.4239 11.0405 13.5604C10.611 14.0961 10.071 14.543 9.53518 14.9864C9.20473 15.2598 8.87591 15.532 8.57561 15.8228C7.46786 16.8653 6.58861 18.0448 5.96311 19.3268ZM5.80118 19.7103C5.48226 19.0153 5.26321 18.2949 5.15343 17.5632C4.03636 20.0699 3.41491 22.8442 3.41436 25.7608C3.41783 25.7698 3.42008 25.7785 3.42086 25.787C4.22971 28.7315 6.47068 30.6165 9.12441 32.0605C9.00468 31.7845 8.94311 31.4713 8.97711 31.0968C8.91336 30.6885 8.75561 30.3203 8.50861 30.0118C8.38646 29.8245 8.08871 29.3638 7.79401 28.9075C7.50851 28.4655 7.22583 28.028 7.10861 27.8483C6.66386 27.277 6.37286 26.63 6.24536 25.9283C6.21406 25.5707 6.31018 25.1738 6.40503 24.7822C6.57766 24.0695 6.74601 23.3744 6.13436 22.966C5.93611 22.8343 5.83161 22.6365 5.83161 22.3948C5.84461 22.2245 5.93761 22.0503 6.03636 21.866C6.35086 21.2775 6.28586 21.1515 5.99986 20.8493C5.95561 20.8028 5.91036 20.7545 5.87061 20.7018C5.80261 20.5668 5.73611 20.4338 5.73611 20.298C5.71773 20.115 5.74096 19.912 5.80118 19.7103ZM9.36866 32.487C6.63703 31.0005 4.27673 29.0048 3.42573 26.4478C3.54406 29.994 4.58021 33.3118 6.30366 36.1705C6.31268 36.1748 6.32043 36.1808 6.32636 36.1888C7.52708 37.7903 9.54531 39.3503 12.4005 40.5008C11.4566 39.4403 10.4888 38.1438 10.3749 36.886C10.4079 36.5168 10.5429 36.1908 10.7654 35.9365C11.3191 35.1055 10.7576 34.1565 10.5721 33.8855C10.3929 33.6238 10.1716 33.3913 9.95113 33.1595C9.74431 32.9423 9.53828 32.726 9.36866 32.487ZM12.3906 40.7875C10.3468 39.9588 8.58491 38.8918 7.24798 37.597C9.49911 40.705 12.6118 43.1498 16.2325 44.5783C15.9836 44.452 15.7485 44.2993 15.5354 44.1238C15.1914 43.8013 14.8951 43.399 14.6089 43.01C14.2229 42.4858 14.0711 42.2805 13.2054 41.3693C13.0779 41.2353 12.9442 41.094 12.8072 40.947C12.667 40.895 12.5281 40.8418 12.3906 40.7875ZM14.9646 42.849C14.5264 42.254 14.042 41.7233 13.5576 41.2098C15.3087 41.7895 17.2026 42.1945 18.9806 42.4663C19.3417 43.1168 19.7456 43.7138 20.1603 44.2405C20.1159 44.2538 20.0712 44.268 20.0261 44.2833C19.8143 44.3555 19.6475 44.439 19.4919 44.5168C19.0679 44.7293 18.7269 44.9 17.7819 44.6855C16.2171 44.33 15.9019 44.1225 14.9646 42.849ZM19.5146 44.828C19.8874 44.6585 20.1196 44.5693 20.3736 44.504C20.8423 45.0678 21.3176 45.5388 21.7541 45.893C20.1351 45.7435 18.5709 45.4023 17.0843 44.8923C17.1968 44.9193 17.3102 44.9408 17.4239 44.957C17.8239 45.0663 18.1699 45.117 18.5159 45.117C18.8889 45.083 19.2361 44.9828 19.5146 44.828ZM20.6523 44.4425C21.115 44.9908 21.6299 45.494 22.2079 45.9298C22.6774 45.9625 23.1512 45.9793 23.6289 45.9793C25.5514 45.9793 27.4121 45.7095 29.1754 45.2058C30.0079 43.8855 30.6269 42.8595 31.3826 41.3075C29.1174 42.1428 26.8179 42.665 24.3578 42.7948C23.7505 43.6155 22.8284 44.1573 21.7584 44.2593C21.5551 44.2933 21.3811 44.321 21.2287 44.3453C20.9946 44.3828 20.8115 44.412 20.6523 44.4425ZM38.0894 39.8765C35.7494 42.2735 32.8204 44.093 29.5386 45.0983C30.3584 43.8358 31.0934 42.5228 31.7396 41.1705C33.5626 40.4708 35.2854 39.598 36.8789 38.558C37.8561 37.9415 38.7134 37.297 39.4854 36.615C39.4241 36.8163 39.3471 37.011 39.2726 37.1848C38.8981 38.0588 38.5109 38.9623 38.0986 39.8503C38.0944 39.8595 38.0914 39.8678 38.0894 39.8765ZM39.5026 37.2825C39.6249 36.997 39.7526 36.6593 39.8141 36.3178C40.7349 35.465 41.5341 34.5543 42.2764 33.5683C41.3849 35.691 40.1409 37.6308 38.6181 39.3138C38.9244 38.6323 39.2174 37.9488 39.5026 37.2825ZM42.5769 32.75C42.5864 32.7403 42.5969 32.7325 42.6079 32.7265C43.4069 30.5553 43.8434 28.21 43.8434 25.7648C43.8434 25.2876 43.8269 24.8142 43.7941 24.3452C42.7061 28.705 38.3626 32.0983 34.2601 33.973C34.1424 34.4748 34.0164 34.965 33.8829 35.444C34.0381 35.539 34.2131 35.6093 34.3951 35.6498C34.9786 35.7228 35.3421 35.1998 35.7534 34.6075C36.2029 33.9603 36.7096 33.2308 37.6236 33.1063C38.3904 33.001 39.2586 33.5275 39.2586 34.3103C39.2586 34.4613 39.2586 34.6045 39.2849 34.7458C39.3294 34.831 39.4059 34.946 39.5264 35.0363C39.7529 35.276 39.8429 35.5683 39.8511 35.8758C40.8514 34.9348 41.7644 33.895 42.5769 32.75ZM39.6951 30.1345C41.6781 28.3318 43.1466 26.1495 43.7269 23.5878C43.4781 21.2736 42.8371 19.0752 41.8719 17.0604C41.5371 18.1782 41.0036 19.2802 40.2459 20.3258C40.3419 20.9853 39.9959 21.6899 39.3034 21.9418C39.2574 21.9571 39.2136 21.9714 39.1719 21.985C38.6699 22.1487 38.4914 22.2069 38.7404 22.7695C38.8079 22.9215 38.8774 23.0788 38.8774 23.254C38.8774 23.8273 38.1929 24.0718 37.5524 24.1095C37.1514 24.1095 36.8476 24.0405 36.7056 23.7928C36.6894 23.7487 36.6766 23.7094 36.6654 23.672C36.2004 23.9769 35.7036 24.2689 35.1736 24.546C35.2934 27.73 34.9684 30.8445 34.3306 33.6703C36.2891 32.7628 38.0854 31.5813 39.6951 30.1345ZM36.8881 23.5429L36.8834 23.5266C37.4259 23.1583 37.9231 22.7721 38.3771 22.3708C38.3689 22.5502 38.4421 22.7147 38.5114 22.8703C38.5709 23.0036 38.6274 23.1304 38.6274 23.2548C38.6274 23.7705 37.7196 23.85 37.5451 23.8605C37.3061 23.8605 37.0196 23.8388 36.9329 23.6918C36.9171 23.6447 36.9029 23.5946 36.8881 23.5429ZM39.0836 21.7497C39.0601 21.7569 39.0366 21.7642 39.0129 21.7716C39.3784 21.4037 39.7106 21.0252 40.0114 20.6383C39.9806 21.0985 39.6971 21.5332 39.2211 21.7063C39.1766 21.7211 39.1306 21.7354 39.0836 21.7497ZM35.7739 23.3248C36.0206 23.1522 36.4364 23.1658 36.5799 23.4115C36.1381 23.7029 35.6741 23.9773 35.1889 24.2361C35.3111 23.8759 35.5224 23.5496 35.7739 23.3248ZM34.0461 25.0931C34.1816 25.0321 34.3166 24.9697 34.4506 24.9059C34.4051 24.9458 34.3574 24.9836 34.3076 25.019C34.2244 25.0524 34.1364 25.0749 34.0461 25.0931ZM27.4849 27.0653C29.3441 26.7165 31.2171 26.2293 32.9919 25.5355C32.8669 25.686 32.7759 25.8688 32.7274 26.067C32.5764 26.4373 32.5061 26.8 32.4384 27.1505C32.2334 28.2105 32.0931 28.3998 31.6251 28.9923C31.2254 29.4985 30.7721 30.0725 30.8761 30.7993C30.9056 31.0515 31.0094 31.2845 31.1101 31.5103L31.1106 31.5115C31.4031 32.1675 31.3546 32.2888 31.2274 32.6078L31.2174 32.6333C31.1361 32.8378 31.0521 33.049 31.1054 33.3065C31.2161 33.6015 31.3669 33.8053 31.5864 33.9615L31.5894 33.964C31.8046 34.1468 32.0224 34.3323 32.2439 34.5155C27.5971 36.1403 22.0652 36.4585 16.3784 34.9473C15.6914 32.1678 15.4109 29.418 15.3741 26.555C19.3596 27.6638 23.4114 27.7868 27.4849 27.0653ZM31.7481 33.7705C32.0021 33.9863 32.2581 34.2038 32.5189 34.4175C33.0339 34.2303 33.5379 34.0268 34.0294 33.808C34.7694 30.6178 35.0174 27.6253 34.9206 24.7588C34.7896 24.9391 34.6269 25.0998 34.4396 25.231C34.3464 25.2963 34.0084 25.3543 33.9039 25.3718C33.6784 25.4095 33.4651 25.4453 33.3024 25.5755C33.1409 25.71 33.0234 25.907 32.9641 26.1435C32.8169 26.5083 32.7484 26.8618 32.6811 27.2093C32.5864 27.699 32.4939 28.177 32.1856 28.6588C32.0756 28.8238 31.9484 28.9853 31.8206 29.147C31.4294 29.6428 31.0349 30.1433 31.1239 30.766C31.1496 30.9845 31.2439 31.196 31.3399 31.411C31.4729 31.7095 31.6091 32.0148 31.5691 32.355C31.5426 32.4888 31.4941 32.6118 31.4484 32.7285C31.3771 32.9085 31.3124 33.073 31.3451 33.2373C31.4329 33.4668 31.5526 33.63 31.7401 33.7638L31.7481 33.7705ZM16.4461 35.2068C22.2481 36.707 27.8326 36.365 32.4709 34.702C32.8219 34.9868 33.1826 35.2643 33.5569 35.519C33.5646 35.5255 33.5726 35.532 33.5806 35.5385C33.0531 37.3965 32.3764 39.2208 31.5529 40.9613C29.2304 41.8583 26.9759 42.3888 24.5411 42.523C24.6282 42.3808 24.7066 42.232 24.7756 42.0768C24.9039 41.7878 24.9689 41.4958 25.0318 41.2133L25.0321 41.2118C25.1059 40.879 25.0841 40.5615 24.9666 40.2685L24.9664 40.2703C24.9649 40.2663 24.9626 40.2628 24.9601 40.2598C24.7439 40.0073 24.4424 39.832 24.1811 39.8038C24.1337 39.7878 24.0873 39.772 24.0416 39.7568C23.6901 39.6378 23.385 39.5348 23.0339 39.4533C21.8363 39.1758 21.5621 39.1575 21.2996 39.14C21.1573 39.1305 21.0184 39.1213 20.7379 39.071C20.5901 39.071 20.4771 39.0123 20.3859 38.8945C20.3069 38.7923 20.3266 38.6423 20.3458 38.4968C20.3542 38.4338 20.3624 38.3715 20.3624 38.3143C20.3624 37.4478 19.2172 36.8238 18.3438 36.3475L18.2776 36.3115C17.6804 35.986 17.1684 35.7788 16.7746 35.6195C16.6861 35.5835 16.6035 35.5503 16.5273 35.5185C16.4997 35.4143 16.4726 35.3103 16.4461 35.2068ZM32.7456 34.6013C33.0404 34.8373 33.3414 35.0665 33.6526 35.2813C33.7601 34.8923 33.8611 34.5018 33.9554 34.1105C33.5601 34.2843 33.1569 34.448 32.7456 34.6013ZM31.9031 40.8215C32.6341 39.2473 33.2804 37.5528 33.8126 35.6935C33.9751 35.7843 34.1584 35.8538 34.3524 35.8965C35.1381 35.9945 35.6471 35.2268 36.0861 34.5643L36.1239 34.5075C37.4159 32.5623 39.0084 33.4468 39.0084 34.311C39.0084 34.4735 39.0084 34.6413 39.0426 34.8123C39.0541 34.8688 39.1856 35.0945 39.3601 35.2228C39.5819 35.4585 39.6309 35.7783 39.5936 36.1143C37.3891 38.1225 34.7794 39.6683 31.9031 40.8215ZM24.7999 41.3555C24.704 41.7925 24.5269 42.1903 24.286 42.5355C22.6772 42.6058 20.9868 42.5043 19.1444 42.2228C18.077 40.3108 17.2205 38.0323 16.62 35.8603C16.7207 35.9058 16.8283 35.9513 16.9431 35.9973C17.7769 36.3238 19.2746 37.0625 19.8851 37.6728C20.1404 37.928 20.2451 38.262 20.1924 38.5945C20.1586 38.8073 20.1994 38.982 20.3001 39.1118C20.4997 39.3695 20.9305 39.4193 21.2681 39.4585L21.3054 39.4628C22.1471 39.5613 23.9574 39.908 24.6879 40.346C24.9711 40.5443 24.9056 41.003 24.7999 41.3555ZM16.1424 35.1265C16.1625 35.2075 16.1831 35.289 16.204 35.3708C16.1968 35.367 16.1898 35.3633 16.1829 35.3595C16.0002 35.2433 15.8374 35.125 15.6926 35.0025C15.8442 35.0455 15.9942 35.0868 16.1424 35.1265ZM15.9829 35.517C15.715 35.309 15.477 35.0958 15.2717 34.8808C14.2382 34.5745 13.1419 34.1988 12.047 33.7505C11.8735 33.8408 11.6492 33.8198 11.5266 33.6668C11.4529 33.5933 11.3815 33.5165 11.3117 33.438C10.918 33.2645 10.5264 33.0815 10.1399 32.8888C10.8245 33.6253 11.5962 34.4653 11.2104 35.751C11.1512 35.8998 11.0603 36.0263 10.9699 36.152C10.8612 36.3033 10.7533 36.4535 10.7024 36.6398C10.6706 37.031 10.7439 37.398 10.9216 37.7238C11.4297 38.93 12.273 39.853 13.1601 40.79C13.318 40.8468 13.4781 40.902 13.6406 40.9563C15.1931 41.4255 16.9054 41.853 18.8196 42.172C17.6637 40.097 16.8462 37.7898 16.2897 35.699C16.1766 35.6385 16.0746 35.5783 15.9829 35.517ZM14.4552 34.0485C14.5834 34.1785 14.7374 34.3345 14.9271 34.5253C14.0338 34.242 13.1461 33.9175 12.2657 33.5523C12.3973 33.41 12.5158 33.2678 12.6309 33.1295C12.9051 32.8555 13.2764 33.0348 13.4724 33.1655C13.8335 33.4183 13.9249 33.511 14.454 34.0473L14.4552 34.0485ZM33.0654 14.7338C33.1831 15.0496 33.2949 15.3697 33.4006 15.6933C33.2344 15.4324 33.0204 15.32 32.8174 15.2133C32.7119 15.1579 32.6091 15.1039 32.5179 15.0315C32.5031 15.0168 32.4896 15.0008 32.4769 14.9836C32.6749 14.9028 32.8711 14.8195 33.0654 14.7338ZM32.1314 14.8334C32.0069 14.8833 31.8814 14.9323 31.7554 14.9802C31.7264 14.7764 31.6919 14.5684 31.5839 14.3885C31.5771 14.3772 31.5706 14.3704 31.5639 14.3631C31.5444 14.3424 31.5211 14.3176 31.4731 14.174C31.4709 14.0505 31.8359 14.073 31.9394 14.2593C31.9976 14.3645 32.0331 14.493 32.0706 14.6293C32.0919 14.7061 32.1114 14.7735 32.1314 14.8334ZM30.3814 15.725C30.7796 15.6045 31.1726 15.4745 31.5596 15.3354C31.5801 15.4314 31.6076 15.5263 31.6486 15.6165C31.7576 15.8565 31.9301 16.0236 32.0966 16.1852C32.1914 16.2769 32.2841 16.3669 32.3626 16.4675C32.5176 16.667 32.6149 17.0003 32.4679 17.1978C32.2974 17.023 32.0941 16.8775 31.8499 16.7555C31.7711 16.7165 31.6774 16.7685 31.6694 16.856C31.6469 17.1043 31.5694 17.392 31.4521 17.6693L30.7449 16.6908C30.5799 16.498 30.4541 16.2353 30.3931 15.964C30.3841 15.8843 30.3801 15.806 30.3814 15.725ZM22.2234 43.8688C22.9548 43.727 23.6012 43.3505 24.0734 42.808C23.0741 42.8483 22.0478 42.8238 20.9861 42.7295C20.4076 42.6665 19.8534 42.593 19.3086 42.514C19.6445 43.0898 20.0153 43.648 20.4296 44.1703C20.6602 44.1185 20.8987 44.0833 21.18 44.042C21.4696 43.9993 21.8047 43.95 22.2234 43.8688ZM27.2339 16.4609C26.9676 16.5057 26.7001 16.5465 26.4314 16.5833C26.3911 16.6413 26.3669 16.7057 26.3669 16.7735C26.2999 17.1175 26.8384 17.293 27.1559 16.8163C27.2541 16.717 27.2926 16.5758 27.2339 16.4609ZM23.8829 16.8077C23.297 16.8311 22.7081 16.8352 22.1181 16.8195C22.1361 17.2718 22.3305 17.7024 22.6691 18.017C22.7294 18.062 22.7846 18.1015 22.8399 18.141C22.8802 18.1697 22.9133 18.194 22.9413 18.2145C23.0682 18.3078 23.0897 18.3235 23.2089 18.3245C23.2412 18.2888 23.2416 18.2629 23.2425 18.2014C23.244 18.1064 23.2467 17.9265 23.3704 17.494C23.5029 17.2275 23.6299 17.0373 23.7611 16.906C23.8013 16.8725 23.8419 16.8397 23.8829 16.8077ZM31.5369 18.9643C31.2169 18.7243 30.4161 18.2455 29.9596 17.9727C29.8951 17.9342 29.8376 17.8998 29.7894 17.8708C29.6246 17.772 29.5566 17.9405 29.6799 18.0393C29.8569 18.1813 30.0654 18.304 30.2911 18.4C30.4554 18.5016 30.5831 18.5809 30.6836 18.6431C31.0019 18.8403 31.0434 18.8659 31.0859 18.8894C31.0924 18.8929 31.0986 18.8964 31.1059 18.9003L31.1284 18.9125C31.2836 18.9977 31.4444 19.086 31.5056 19.2295C31.5904 19.4275 31.5666 19.6905 31.4476 19.8693C31.3399 20.031 30.8809 20.5483 30.7104 20.5023C30.6811 20.4945 30.6559 20.4665 30.6389 20.4288C30.6059 20.2965 30.6161 20.1523 30.6716 20.0093C30.7376 19.6145 30.6404 19.2145 30.4079 18.916C30.2531 18.6838 30.0284 18.5155 29.8399 18.3744C29.5814 18.1809 29.3911 18.0383 29.5426 17.852C29.6274 17.7483 29.5124 17.6638 29.4294 17.7355C29.2854 17.8598 29.2739 18.1158 29.4221 18.264C29.6141 18.456 29.8084 18.618 29.9974 18.7755C30.2669 19.0065 30.5614 19.5095 30.4839 19.84C30.4839 19.932 30.4594 20.0154 30.4334 20.1048C30.4179 20.1575 30.4019 20.2124 30.3899 20.2723C30.3494 20.475 30.5104 20.7283 30.7371 20.7283C30.9531 20.7283 31.2296 20.4523 31.3826 20.2995L31.3851 20.297C31.7569 19.925 31.9356 19.3285 31.5369 18.9643ZM29.5631 19.0565C29.6221 19.0308 29.6964 19.0953 29.6851 19.1725C30.4116 19.507 29.8061 20.5635 29.4489 20.2063C29.0031 19.7605 29.1629 19.2343 29.5631 19.0565ZM29.5979 20.059C29.3891 19.8635 29.3611 19.5188 29.5276 19.3368C29.7499 19.3785 29.8479 19.8498 29.5979 20.059Z" fill="#A17E6D"/>
<path fill-rule="evenodd" clip-rule="evenodd" d="M28.2489 12.2695C28.0389 12.3313 27.8281 12.3916 27.6171 12.4503C27.5284 12.2108 27.4314 11.9712 27.3309 11.7317C27.6379 11.9062 27.9441 12.0854 28.2489 12.2695ZM26.5519 12.5474L27.1931 12.5657C27.0651 12.5998 26.9371 12.6332 26.8086 12.6659C26.2184 12.5543 25.5566 12.4043 24.974 12.2722C24.1675 12.0893 23.5122 11.9408 23.4069 11.9759C23.1209 12.0711 22.8986 12.2301 22.7079 12.4206C23.1526 12.7699 25.3766 13.6596 25.9486 13.8821C25.4721 14.8351 25.2179 15.3754 24.8049 16.3604C24.9164 16.2369 25.0239 16.1182 25.1282 16.0029C25.8361 15.2209 26.3999 14.5981 27.1206 13.7206C28.3621 13.7969 29.3659 13.8596 30.1844 13.9109C29.9386 14.2425 29.6981 14.5793 29.4576 14.9161C29.1799 15.3047 28.9024 15.6933 28.6169 16.0739C25.4139 20.5043 24.3642 22.8627 23.9185 23.8643C23.7337 24.2793 23.6527 24.4614 23.5651 24.4614C23.4699 24.4931 23.4064 24.4296 23.3746 24.3661C23.2565 23.7254 23.2427 23.0749 23.2289 22.4255C23.2168 21.8512 23.2046 21.2776 23.1204 20.7124C23.1172 20.6912 23.114 20.6662 23.1104 20.6383C23.0814 20.4143 23.0287 20.0064 22.8026 19.9499C22.5236 19.9499 21.4975 20.2586 21.1804 20.3539L21.1506 20.3629C16.2329 21.8381 13.2264 23.7286 10.8249 26.0501C10.8189 26.0561 10.8096 26.0581 10.8002 26.0601C10.7977 26.0606 10.7951 26.0614 10.7926 26.0619C10.7912 26.0624 10.7898 26.0626 10.7884 26.0631C9.77761 27.1454 8.82861 28.3151 8.02911 29.5451C6.19591 32.3556 5.47283 35.8924 6.23711 39.0864C6.76418 39.4174 7.33426 39.6834 7.93386 39.8706C8.38476 40.0114 8.84396 40.1219 9.30818 40.1999C11.3945 42.2699 13.9271 43.8906 16.7488 44.9049C16.4046 44.9391 16.0607 44.9664 15.7179 44.9859C12.9856 45.1129 10.2466 44.5961 7.87036 43.1431C7.08128 42.6606 6.44786 42.1306 5.86906 41.3716C5.38053 40.8731 4.88978 40.2951 4.48286 39.6626C1.98786 35.9329 0.726355 30.4204 2.15136 26.1456C4.19136 20.0259 9.78536 16.2886 15.7179 13.7549C17.9265 12.8716 19.1692 12.4079 19.8568 12.1513C20.1648 12.0364 20.3615 11.963 20.4836 11.9121C20.8666 11.7846 20.9216 11.3529 20.8331 10.9591C20.669 10.2302 20.3434 9.63404 19.9311 8.87924C19.8214 8.67842 19.7054 8.46617 19.5849 8.23739L19.5735 8.23214L19.5621 8.22689L19.5726 8.21464L19.5621 8.19514C19.4981 8.13089 19.5666 7.96939 19.7316 8.02914L19.7529 8.00439C19.7572 8.01322 19.7615 8.02154 19.7659 8.02999C19.7686 8.03512 19.7714 8.04054 19.7741 8.04589C20.1616 8.22459 20.57 8.40989 20.9952 8.60287C22.7954 9.41974 24.8979 10.3738 26.9936 11.5417L26.5519 12.5474Z" fill="#A17E6D"/>
<path d="M32.3914 5.3675C32.1739 5.237 31.9844 5.15925 31.8041 5.12975C31.4019 5.09325 31.0491 5.104 30.7259 5.16275C30.6256 5.18125 30.6011 5.3135 30.6871 5.3665C32.0231 6.19482 34.8189 7.98467 37.0479 9.41582L37.3539 9.34802C35.1589 7.93815 32.3636 6.1469 31.0694 5.34225C31.2884 5.32475 31.5229 5.32725 31.7759 5.35C32.2741 5.4335 31.8444 5.508 37.3539 8.13975L37.3649 8.14495C37.8384 8.3713 38.3166 8.59982 38.7979 8.83352L39.1169 8.7415C36.8821 7.65082 34.6519 6.65312 32.3914 5.3675Z" fill="#A17E6D"/>
<path d="M48.2541 8.01002C47.7469 7.63802 47.1871 7.38577 46.5874 7.25952C45.6496 7.09227 44.7261 7.10302 43.8471 7.29127C42.5734 7.52602 41.3571 7.87177 40.2129 8.24752C37.9269 8.99827 29.1481 11.8983 27.6781 12.31C27.5376 11.9393 27.3824 11.5665 27.2259 11.201C27.1891 11.1155 27.0629 11.106 27.0219 11.2003L26.4734 12.4495C24.9464 12.1518 23.5866 11.7988 23.3711 11.8703C23.0979 11.9613 22.8551 12.1155 22.6286 12.342C22.5814 12.3893 22.5864 12.467 22.6386 12.508C23.0924 12.8645 25.2699 13.7343 25.7944 13.941C25.3686 14.7945 25.1121 15.3388 24.7019 16.317C24.6536 16.4318 24.8034 16.527 24.8869 16.4345C25.7749 15.4513 26.2781 14.8538 27.1149 13.8313L32.3249 14.1515C33.8516 14.2785 35.3231 14.2575 37.3056 13.9575C37.3056 13.9575 32.9044 21.2118 30.5884 24.8468C30.5326 24.9343 30.6171 25.0438 30.7149 25.0128C31.1181 24.8888 31.5321 24.7038 31.9606 24.452C32.5861 23.9305 31.8336 24.351 36.7444 18.2365C38.0126 16.6573 39.3176 15.031 40.5649 13.2773C42.3511 12.8095 44.0199 12.2333 45.4644 11.6983C46.5669 11.2695 47.7959 10.758 48.7949 9.96777C48.9561 9.84027 49.0591 9.68852 49.1176 9.57052C49.3626 8.95802 48.4451 8.16602 48.2541 8.01002ZM32.0924 11.1413C32.5454 10.9875 37.9946 9.20977 40.2824 8.45877C41.4201 8.08527 42.6251 7.74277 43.8909 7.50952C45.0191 7.26777 46.2309 7.34577 46.9936 7.60177C46.8031 9.02702 46.2099 8.91876 46.2524 9.34476C46.2644 9.46551 46.3406 9.55002 46.3999 9.60027C46.2964 9.66427 46.1924 9.72827 46.0914 9.79227C41.8911 12.4563 36.3311 12.9228 31.6654 13.241C30.1644 13.331 28.5956 13.454 27.0104 13.4318C26.9734 13.3713 26.6794 12.8685 26.7019 12.804C26.7291 12.7328 26.7564 12.952 32.0924 11.1413ZM27.1226 11.5248C27.2416 11.8043 27.3569 12.0875 27.4639 12.3695C27.2726 12.422 27.0819 12.4785 26.8904 12.528C26.7819 12.5058 26.8424 12.519 26.6979 12.4925L27.1226 11.5248ZM23.4379 12.0825C23.6164 12.047 25.2286 12.436 26.4914 12.6795C26.4054 12.8128 26.4711 12.883 26.5139 12.973C26.5806 13.114 26.6509 13.2588 26.7219 13.3885C26.0769 13.321 25.4561 13.1993 24.8364 12.9928C24.2549 12.7893 23.4049 12.4778 23.0656 12.2688C23.1836 12.1893 23.3056 12.1268 23.4379 12.0825ZM25.1716 15.784C25.9361 14.0323 26.0979 13.9613 26.0521 13.842C26.0409 13.8128 26.0179 13.7898 25.9886 13.7785C25.2854 13.505 23.4616 12.7653 22.8844 12.407C22.9144 12.3808 22.9446 12.3575 22.9751 12.334C23.8834 12.8438 25.4826 13.4278 26.8214 13.5583C26.8579 13.6155 26.8939 13.6665 26.9291 13.708C26.2546 14.532 25.7961 15.0808 25.1716 15.784ZM48.9151 9.47977C48.8711 9.56777 48.7891 9.68952 48.6574 9.79352C47.6826 10.5653 46.4706 11.0685 45.3859 11.4903C44.0176 11.997 42.4454 12.5403 40.7651 12.993C40.8986 12.803 40.9104 12.787 41.0421 12.5938C41.1249 12.472 40.9414 12.347 40.8584 12.4685C38.2201 16.3363 35.0849 19.658 32.2701 23.7395C32.1501 23.9495 31.9984 24.1318 31.8339 24.2705C31.5414 24.4413 31.2399 24.5865 30.9474 24.6978C33.1896 21.1715 38.0279 13.1978 38.0279 13.1978C38.1041 13.072 37.9141 12.9568 37.8376 13.0825L37.4566 13.7098C35.4409 14.0293 33.9274 14.062 32.3416 13.93L27.1214 13.6093C27.1099 13.5903 27.0964 13.569 27.0826 13.5473C28.3444 13.6215 29.6819 13.6118 31.2251 13.4745C32.6339 13.3805 34.0891 13.3153 35.4841 13.1568C40.2906 12.6418 42.7224 11.7785 45.3129 10.5483C45.7846 10.3243 46.2329 10.0763 46.6291 9.79302L46.7101 9.86377C47.0464 10.201 47.3721 9.71577 47.6059 9.35477C47.8246 9.01677 47.9881 8.65727 48.0441 8.13652C48.4129 8.39527 49.0784 9.07077 48.9151 9.47977Z" fill="#A17E6D"/>
<path d="M32.8136 12.9583C32.7666 12.9583 32.7216 12.9318 32.7004 12.8863L32.5891 12.6495C32.5599 12.587 32.5866 12.5125 32.6491 12.4833C32.7111 12.454 32.7859 12.4808 32.8154 12.5433L32.9266 12.78C32.9656 12.8635 32.9041 12.9583 32.8136 12.9583Z" fill="#A17E6D"/>
<path d="M33.4691 12.8917C33.4221 12.8917 33.3771 12.8652 33.3559 12.82L33.2446 12.5832C33.2154 12.5207 33.2421 12.4462 33.3046 12.417C33.3666 12.3875 33.4414 12.4145 33.4709 12.477L33.5821 12.7137C33.6211 12.7972 33.5596 12.8917 33.4691 12.8917Z" fill="#A17E6D"/>
<path d="M34.0114 12.7538L33.9001 12.5171C33.8709 12.4546 33.8976 12.3801 33.9601 12.3508C34.0224 12.3213 34.0971 12.3483 34.1264 12.4108L34.2376 12.6476C34.3081 12.7978 34.0814 12.9028 34.0114 12.7538Z" fill="#A17E6D"/>
<path d="M34.6671 12.6872L34.5559 12.4504C34.5266 12.3879 34.5534 12.3134 34.6159 12.2842C34.6784 12.2547 34.7526 12.2817 34.7824 12.3442L34.8936 12.5809C34.9639 12.7307 34.7374 12.8362 34.6671 12.6872Z" fill="#A17E6D"/>
<path d="M35.4359 12.6927C35.3889 12.6927 35.3439 12.6662 35.3226 12.6209L35.2114 12.3842C35.1821 12.3217 35.2089 12.2472 35.2714 12.2179C35.3334 12.1887 35.4081 12.2154 35.4376 12.2779L35.5489 12.5147C35.5879 12.5982 35.5264 12.6927 35.4359 12.6927Z" fill="#A17E6D"/>
<path d="M39.0421 12.0204C38.9936 12.0204 38.9476 11.9919 38.9271 11.9446L38.7471 11.5264C38.7199 11.4629 38.7491 11.3894 38.8126 11.3621C38.8761 11.3346 38.9496 11.3641 38.9769 11.4276L39.1569 11.8459C39.1924 11.9286 39.1311 12.0204 39.0421 12.0204Z" fill="#A17E6D"/>
<path d="M39.8356 11.8377C39.7871 11.8377 39.7411 11.8092 39.7206 11.762L39.5406 11.3437C39.5134 11.2802 39.5426 11.2067 39.6061 11.1795C39.6694 11.152 39.7431 11.1815 39.7704 11.245L39.9504 11.6632C39.9859 11.746 39.9246 11.8377 39.8356 11.8377Z" fill="#A17E6D"/>
<path d="M40.5144 11.5857L40.3344 11.1675C40.3071 11.104 40.3364 11.0305 40.3999 11.0032C40.4631 10.9757 40.5369 11.0052 40.5641 11.0687L40.7441 11.487C40.8094 11.6387 40.5796 11.7375 40.5144 11.5857Z" fill="#A17E6D"/>
<path d="M41.4229 11.4493C41.3744 11.4493 41.3284 11.4208 41.3079 11.3736L41.1279 10.9553C41.1006 10.8918 41.1299 10.8183 41.1934 10.7911C41.2566 10.7636 41.3304 10.7931 41.3576 10.8566L41.5376 11.2748C41.5731 11.3576 41.5119 11.4493 41.4229 11.4493Z" fill="#A17E6D"/>
<path d="M42.2166 11.2119C42.1681 11.2119 42.1221 11.1837 42.1016 11.1364L41.9216 10.7182C41.8944 10.6547 41.9236 10.5812 41.9871 10.5539C42.0501 10.5267 42.1239 10.5557 42.1514 10.6192L42.3314 11.0374C42.3669 11.1204 42.3054 11.2119 42.2166 11.2119Z" fill="#A17E6D"/>
<path d="M43.0104 10.9915C42.9619 10.9915 42.9159 10.963 42.8954 10.9158L42.7154 10.4975C42.6881 10.434 42.7174 10.3605 42.7809 10.3333C42.8444 10.3058 42.9179 10.3353 42.9451 10.3988L43.1251 10.817C43.1606 10.8998 43.0994 10.9915 43.0104 10.9915Z" fill="#A17E6D"/>
<path d="M43.8039 10.7031C43.7554 10.7031 43.7094 10.6749 43.6889 10.6274L43.5089 10.2091C43.4816 10.1456 43.5109 10.0721 43.5744 10.0449C43.6376 10.0176 43.7114 10.0469 43.7386 10.1104L43.9186 10.5286C43.9541 10.6114 43.8929 10.7031 43.8039 10.7031Z" fill="#A17E6D"/>
</svg>
