<svg width="81" height="26" viewBox="0 0 81 26" fill="none" xmlns="http://www.w3.org/2000/svg">
<path d="M48.36 10.24C47.708 10.24 47.128 10.12 46.62 9.88C46.116 9.64 45.72 9.284 45.432 8.812C45.144 8.336 45 7.752 45 7.06C45 6.38 45.098 5.736 45.294 5.128C45.494 4.52 45.768 3.964 46.116 3.46C46.468 2.956 46.876 2.52 47.34 2.152C47.808 1.784 48.312 1.5 48.852 1.3C49.392 1.1 49.948 1 50.52 1C51.036 1 51.49 1.112 51.882 1.336C52.278 1.556 52.586 1.872 52.806 2.284C53.026 2.696 53.132 3.188 53.124 3.76H52.998C52.986 3.348 52.918 2.988 52.794 2.68C52.674 2.372 52.512 2.116 52.308 1.912C52.108 1.708 51.88 1.556 51.624 1.456C51.368 1.356 51.1 1.306 50.82 1.306C50.332 1.306 49.886 1.444 49.482 1.72C49.078 1.996 48.72 2.366 48.408 2.83C48.1 3.294 47.84 3.81 47.628 4.378C47.416 4.942 47.254 5.52 47.142 6.112C47.034 6.7 46.98 7.254 46.98 7.774C46.98 8.182 47.02 8.556 47.1 8.896C47.18 9.236 47.318 9.508 47.514 9.712C47.714 9.916 47.992 10.018 48.348 10.018C48.616 10.018 48.854 9.97 49.062 9.874C49.27 9.778 49.454 9.656 49.614 9.508C49.774 9.36 49.91 9.206 50.022 9.046C50.138 8.886 50.232 8.744 50.304 8.62L50.802 6.73H52.77L52.404 8.14C52.268 8.328 52.074 8.542 51.822 8.782C51.57 9.022 51.266 9.254 50.91 9.478C50.558 9.698 50.166 9.88 49.734 10.024C49.306 10.168 48.848 10.24 48.36 10.24ZM49.62 6.814V6.592H53.46V6.814H49.62ZM53.004 3.76L52.998 3.208C52.954 2.996 52.888 2.774 52.8 2.542C52.712 2.306 52.594 2.092 52.446 1.9L53.64 1.12H53.832L53.22 3.76H53.004Z" fill="#E9E2E2"/>
<path d="M58.8342 10.294C58.1822 10.294 57.6262 10.186 57.1662 9.97C56.7102 9.754 56.3862 9.43 56.1942 8.998C56.0022 8.562 55.9822 8.016 56.1342 7.36L57.5742 1.12H59.4342L57.9942 7.24C57.9062 7.616 57.8522 7.97 57.8322 8.302C57.8162 8.63 57.8502 8.92 57.9342 9.172C58.0222 9.42 58.1722 9.616 58.3842 9.76C58.5962 9.904 58.8882 9.976 59.2602 9.976C59.7202 9.976 60.1362 9.882 60.5082 9.694C60.8842 9.506 61.2042 9.218 61.4682 8.83C61.7362 8.442 61.9382 7.952 62.0742 7.36L63.5082 1.12H63.7362L62.2902 7.36C62.1462 7.988 61.9242 8.52 61.6242 8.956C61.3242 9.392 60.9422 9.724 60.4782 9.952C60.0142 10.18 59.4662 10.294 58.8342 10.294ZM56.4342 1.342V1.12H60.5742V1.342H56.4342ZM62.3142 1.342V1.12H64.7502V1.342H62.3142Z" fill="#E9E2E2"/>
<path d="M65.2595 10.12L67.3475 1.12H69.2075L67.1195 10.12H65.2595ZM64.2395 10.12V9.898H68.4995C69.0475 9.898 69.5235 9.798 69.9275 9.598C70.3315 9.394 70.6735 9.108 70.9535 8.74C71.2335 8.368 71.4615 7.928 71.6375 7.42H71.8595L71.2355 10.12H64.2395ZM69.7655 6.964C69.7655 6.696 69.7195 6.458 69.6275 6.25C69.5395 6.038 69.4115 5.874 69.2435 5.758C69.0795 5.638 68.8835 5.578 68.6555 5.578H67.8635V5.356H68.6555C68.8835 5.356 69.1115 5.302 69.3395 5.194C69.5715 5.082 69.7835 4.926 69.9755 4.726C70.1675 4.526 70.3235 4.292 70.4435 4.024H70.6655L69.9875 6.964H69.7655ZM72.4055 3.58C72.4455 3.152 72.4095 2.77 72.2975 2.434C72.1895 2.094 71.9935 1.828 71.7095 1.636C71.4295 1.44 71.0555 1.342 70.5875 1.342H66.2675V1.12H73.2035L72.6275 3.58H72.4055Z" fill="#E9E2E2"/>
<path d="M42.69 23.1201L44.79 14.1201H46.65L44.55 23.1201H42.69ZM41.55 23.1201V22.8981H45.87V23.1201H41.55ZM48.93 23.2101C48.514 23.2101 48.194 23.1461 47.97 23.0181C47.75 22.8861 47.596 22.7121 47.508 22.4961C47.424 22.2761 47.382 22.0301 47.382 21.7581C47.386 21.4861 47.404 21.2041 47.436 20.9121C47.472 20.6201 47.496 20.3381 47.508 20.0661C47.52 19.7941 47.494 19.5481 47.43 19.3281C47.37 19.1081 47.246 18.9341 47.058 18.8061C46.874 18.6781 46.598 18.6141 46.23 18.6141H45.27V18.4941H46.77C47.402 18.4941 47.898 18.5741 48.258 18.7341C48.618 18.8901 48.88 19.1001 49.044 19.3641C49.208 19.6281 49.306 19.9181 49.338 20.2341C49.37 20.5461 49.37 20.8581 49.338 21.1701C49.31 21.4821 49.284 21.7701 49.26 22.0341C49.236 22.2941 49.248 22.5041 49.296 22.6641C49.344 22.8241 49.464 22.9041 49.656 22.9041C49.768 22.9041 49.87 22.8901 49.962 22.8621C50.054 22.8301 50.148 22.7961 50.244 22.7601L50.31 22.9821C50.094 23.0621 49.878 23.1201 49.662 23.1561C49.45 23.1921 49.206 23.2101 48.93 23.2101ZM45.27 18.5241V18.3861H46.47C46.81 18.3861 47.108 18.3261 47.364 18.2061C47.62 18.0861 47.838 17.9261 48.018 17.7261C48.198 17.5221 48.344 17.2981 48.456 17.0541C48.568 16.8101 48.65 16.5641 48.702 16.3161C48.754 16.0641 48.78 15.8321 48.78 15.6201C48.78 15.4721 48.764 15.3241 48.732 15.1761C48.704 15.0241 48.646 14.8861 48.558 14.7621C48.474 14.6341 48.35 14.5321 48.186 14.4561C48.026 14.3801 47.814 14.3421 47.55 14.3421H43.53V14.1201H47.97C48.494 14.1201 48.964 14.1781 49.38 14.2941C49.796 14.4101 50.124 14.6001 50.364 14.8641C50.608 15.1281 50.73 15.4801 50.73 15.9201C50.73 16.4801 50.568 16.9541 50.244 17.3421C49.92 17.7261 49.46 18.0201 48.864 18.2241C48.272 18.4241 47.574 18.5241 46.77 18.5241H45.27Z" fill="#E9E2E2"/>
<path d="M54.8792 23.1201L56.9672 14.1201H58.8272L56.7392 23.1201H54.8792ZM53.6432 23.1201V22.8981H58.1432V23.1201H53.6432ZM53.2772 17.0001L53.9312 14.1201H61.8632L61.2092 17.0001H60.9812C61.0412 16.4921 61.0372 16.0381 60.9692 15.6381C60.9012 15.2381 60.7532 14.9221 60.5252 14.6901C60.3012 14.4581 59.9752 14.3421 59.5472 14.3421H56.1272C55.8032 14.3421 55.5092 14.4101 55.2452 14.5461C54.9812 14.6781 54.7412 14.8641 54.5252 15.1041C54.3132 15.3441 54.1212 15.6261 53.9492 15.9501C53.7812 16.2701 53.6312 16.6201 53.4992 17.0001H53.2772Z" fill="#E9E2E2"/>
<path d="M62.3152 23.1201L64.4032 14.1201H66.2632L64.1752 23.1201H62.3152ZM61.2952 23.1201V22.8981H65.5552C66.1032 22.8981 66.5792 22.7981 66.9832 22.5981C67.3872 22.3941 67.7292 22.1081 68.0092 21.7401C68.2892 21.3681 68.5172 20.9281 68.6932 20.4201H68.9152L68.2912 23.1201H61.2952ZM66.8212 19.9641C66.8212 19.6961 66.7752 19.4581 66.6832 19.2501C66.5952 19.0381 66.4672 18.8741 66.2992 18.7581C66.1352 18.6381 65.9392 18.5781 65.7112 18.5781H64.9192V18.3561H65.7112C65.9392 18.3561 66.1672 18.3021 66.3952 18.1941C66.6272 18.0821 66.8392 17.9261 67.0312 17.7261C67.2232 17.5261 67.3792 17.2921 67.4992 17.0241H67.7212L67.0432 19.9641H66.8212ZM69.4612 16.5801C69.5012 16.1521 69.4652 15.7701 69.3532 15.4341C69.2412 15.0941 69.0452 14.8281 68.7652 14.6361C68.4852 14.4401 68.1112 14.3421 67.6432 14.3421H63.3232V14.1201H70.2592L69.6832 16.5801H69.4612Z" fill="#E9E2E2"/>
<path d="M76.3395 23.1201L73.2315 14.1201H75.2835L78.4395 23.1201H76.3395ZM69.9315 23.1201V22.8981H72.8115V23.1201H69.9315ZM71.0775 23.1201L75.4935 18.1161H75.7755L71.3715 23.1201H71.0775ZM75.1875 23.1201V22.8981H79.2675V23.1201H75.1875ZM72.3915 14.3421V14.1201H76.4715V14.3421H72.3915ZM75.4695 18.5961L79.2855 14.1441H79.5555L75.7755 18.5961H75.4695ZM77.9715 14.3421V14.1201H80.6115V14.3421H77.9715Z" fill="#E9E2E2"/>
<path d="M6.03977 25.2717L2.99977 0.999687H8.27977L10.2958 20.5677L21.6398 0.999687H21.8638L7.79977 25.2717H6.03977ZM0.759766 1.19169V0.999687H11.9598V1.19169H0.759766ZM17.7198 1.19169V0.999687H24.8238V1.19169H17.7198Z" fill="#FF5E00"/>
<path d="M25.7535 25.3197C23.0655 25.3197 20.9802 24.557 19.4975 23.0317C18.0148 21.5064 17.2735 19.4424 17.2735 16.8397C17.2735 14.9624 17.5348 13.2024 18.0575 11.5597C18.5802 9.91702 19.2948 8.42902 20.2015 7.09569C21.1188 5.76235 22.1695 4.61569 23.3535 3.65569C24.5375 2.69569 25.7962 1.95969 27.1295 1.44769C28.4735 0.935687 29.8282 0.679688 31.1935 0.679688C32.8788 0.679688 34.3562 1.02635 35.6255 1.71969C36.9055 2.40236 37.8975 3.37836 38.6015 4.64769C39.3162 5.91702 39.6735 7.42102 39.6735 9.15969C39.6735 11.5064 39.2895 13.6664 38.5215 15.6397C37.7535 17.6024 36.7082 19.309 35.3855 20.7597C34.0735 22.2104 32.5855 23.3357 30.9215 24.1357C29.2575 24.925 27.5349 25.3197 25.7535 25.3197ZM25.7535 25.1437C26.6282 25.1437 27.4495 24.8557 28.2175 24.2797C28.9962 23.693 29.7108 22.9037 30.3615 21.9117C31.0228 20.909 31.6095 19.773 32.1215 18.5037C32.6335 17.2237 33.0709 15.8797 33.4335 14.4717C33.7962 13.053 34.0735 11.645 34.2655 10.2477C34.4575 8.83969 34.5535 7.51702 34.5535 6.27969C34.5535 5.58636 34.4949 4.91969 34.3775 4.27969C34.2602 3.62902 34.0735 3.04769 33.8175 2.53569C33.5615 2.02369 33.2148 1.61836 32.7775 1.31969C32.3508 1.01035 31.8228 0.855688 31.1935 0.855688C30.3722 0.855688 29.5828 1.14902 28.8255 1.73569C28.0788 2.31169 27.3748 3.10102 26.7135 4.10369C26.0628 5.09569 25.4708 6.23169 24.9375 7.51169C24.4148 8.78102 23.9615 10.125 23.5775 11.5437C23.2042 12.9517 22.9108 14.3597 22.6975 15.7677C22.4948 17.165 22.3935 18.4824 22.3935 19.7197C22.3935 20.8504 22.4948 21.821 22.6975 22.6317C22.9108 23.4424 23.2629 24.0664 23.7535 24.5037C24.2442 24.9304 24.9109 25.1437 25.7535 25.1437Z" fill="#FF5E00"/>
</svg>
