<svg width="39" height="25" viewBox="0 0 39 25" fill="none" xmlns="http://www.w3.org/2000/svg">
<path d="M24.6991 3.06387H14.1865V21.9305H24.6991V3.06387Z" fill="#FF5F00"/>
<path d="M14.8539 12.4972C14.8539 8.83055 16.556 5.33055 19.4261 3.06389C14.2198 -1.03611 6.67745 -0.136113 2.57253 5.09722C-1.5324 10.2972 -0.631316 17.8306 4.6083 21.9306C8.98021 25.3639 15.0875 25.3639 19.4595 21.9306C16.556 19.6639 14.8539 16.1639 14.8539 12.4972Z" fill="#EB001B"/>
<path d="M38.8828 12.4972C38.8828 19.1306 33.5097 24.4972 26.8684 24.4972C24.1651 24.4972 21.562 23.5972 19.4595 21.9306C24.6657 17.8306 25.5668 10.2972 21.4619 5.06389C20.8612 4.33055 20.1937 3.63055 19.4595 3.06389C24.6657 -1.03611 32.2415 -0.136113 36.313 5.09722C37.9817 7.19722 38.8828 9.79722 38.8828 12.4972Z" fill="#F79E1B"/>
<path d="M37.748 19.9306V19.5306H37.9149V19.4639H37.5144V19.5306H37.6813V19.9306H37.748ZM38.5156 19.9306V19.4639H38.3821L38.2486 19.7972L38.1151 19.4639H37.9816V19.9306H38.0818V19.5639L38.2152 19.8639H38.3154L38.4489 19.5639V19.9306H38.5156Z" fill="#F79E1B"/>
</svg>
