<svg width="50" height="51" viewBox="0 0 50 51" fill="none" xmlns="http://www.w3.org/2000/svg">
<path d="M25.4953 28.574C25.4813 28.3762 25.2903 28.4395 25.2055 28.4192C24.0495 28.4932 19.6763 28.4745 19.4668 22.7209C19.2595 17.0329 23.1328 16.1829 25.8535 16.3472C26.1043 16.3624 26.1573 16.3329 26.1908 16.2499C26.5363 15.3929 26.6 11.0462 26.5078 10.1269C26.3453 8.50891 26.0673 6.73641 24.9813 5.51416C22.5115 2.73416 16.9213 2.74891 14.6528 6.12316C14.5765 6.23666 14.0868 5.81191 13.0415 5.78591C9.015 5.68566 6.081 9.58116 6.0705 13.1009C6.0635 15.3992 6.722 15.7737 6.4275 15.8884C2.96375 17.2377 1.19799 24.0929 5.48 27.3537C5.607 27.4505 5.61175 27.446 5.5835 27.5097C5.54075 27.6052 5.0405 28.086 4.671 29.0542C3.49925 32.1257 5.2325 36.1322 9.2885 36.3585C9.471 36.3687 9.368 36.3952 9.42475 36.9635C9.77075 40.4285 12.98 43.3362 16.2003 42.3147C16.8448 42.1102 16.8623 42.0237 17.0048 42.1655C18.384 43.5387 19.4923 44.0565 21.503 43.7497C22.7345 43.5617 23.1115 43.3855 24.2193 42.8165C26.1675 41.8157 27.4925 39.407 26.695 37.1042C25.6498 34.0875 25.5365 31.3885 25.4953 28.574ZM25.8613 35.9195C25.997 36.285 26.0783 36.432 25.6703 36.4177C25.4093 36.4087 23.5935 36.519 22.6213 36.3907C21.2168 36.2055 21.1715 36.0117 21.4648 36.023C24.8608 36.1522 25.802 35.7602 25.8613 35.9195ZM25.2143 33.3647C25.308 33.8007 25.3838 33.8572 25.242 33.8715C23.7793 34.018 21.7443 33.8892 20.9388 33.7055C20.867 33.6892 20.7095 33.58 20.8128 33.5632C20.8505 33.557 20.8128 33.5525 25.1358 33.3175C25.177 33.3067 25.203 33.3127 25.2143 33.3647ZM25.7313 7.94891C26.2448 9.93241 26.1805 13.6414 25.9958 15.6294C25.9593 16.0232 25.9138 16.0222 25.8258 16.0152C21.1145 15.6449 19.2385 18.3924 19.0085 21.9314C18.935 23.0629 19.0623 24.3387 19.4673 25.3562C20.899 28.9527 23.945 28.7345 24.9248 28.7567C25.092 28.7605 25.184 28.7822 25.1818 28.8545C25.1758 29.0505 25.131 29.7115 25.1303 30.8317C25.1303 30.9945 25.124 30.984 24.8173 31.016C24.7855 31.0192 21.2658 31.3307 20.6903 31.0702C20.437 30.9557 20.6885 30.3042 19.3915 28.3832C17.1833 25.1132 13.5165 22.8472 13.2985 18.4699C13.0023 12.5227 18.2005 7.25291 25.6118 7.84416C25.7028 7.85141 25.706 7.85166 25.7313 7.94891ZM26.1555 39.8892C25.5415 41.316 23.817 42.7467 21.6528 43.054C21.1923 43.1195 19.259 43.7047 17.1608 41.8615C16.8038 41.5477 17.0903 41.6735 16.1263 41.8665C12.876 42.518 9.93425 39.4625 9.8485 36.3202C9.8435 36.1355 9.81 35.9742 9.62925 35.962C6.21875 35.73 4.046 32.464 5.1225 29.3905C5.4085 28.5742 5.93875 27.839 6.14175 27.6357C6.4875 27.2892 4.62225 26.673 3.7775 23.7652C3.1145 21.4827 3.81375 18.7897 5.17 17.4524C6.7705 15.8744 7.17675 16.5339 6.93825 15.7309C5.54775 11.0482 8.76925 5.96466 13.6398 6.34016C14.351 6.39491 14.5568 6.70566 14.824 6.46666C15.112 6.20891 16.2043 5.18941 17.12 4.72141C19.665 3.42141 24.2658 3.94666 25.5193 7.32866C25.5425 7.39141 25.5238 7.40941 25.4583 7.39641C25.3385 7.37266 23.9465 7.30866 23.4528 7.33091C17.8958 7.58116 14.475 11.2019 13.301 14.0544C9.7105 22.7794 18.5278 26.103 20.177 30.884C20.203 30.9597 20.1843 31.0235 20.1393 31.0805C19.7185 31.6115 19.4378 32.6327 20.1433 33.3917C20.298 33.5582 20.2543 33.5957 20.0738 33.9867C19.9683 34.215 19.8603 34.8235 20.1128 35.337C20.433 35.9885 20.6338 35.9307 20.533 36.2155C20.3948 36.6065 20.3813 37.0907 20.5443 37.5335C20.8693 38.4167 21.7035 38.6927 22.6443 38.6747C22.8173 38.6715 22.8008 38.7335 23.3883 39.1775C25.0795 40.4562 26.3088 39.5327 26.1555 39.8892ZM26.5928 38.3712C26.5785 38.5017 24.3748 38.6557 23.3618 38.526C23.15 38.4987 23.0995 38.311 23.43 38.3062C23.5933 38.3037 26.5248 37.9752 26.5385 38.0147C26.578 38.13 26.6063 38.248 26.5928 38.3712Z" fill="#A17E6D"/>
<path d="M10.7923 42.3065C8.7255 41.3497 6.88 43.6585 8.012 45.8012C9.20025 48.0502 12.2843 47.4215 12.2843 44.7497C12.199 43.6457 11.7883 42.7677 10.7923 42.3065ZM10.4165 46.5995C9.1935 46.8665 7.9935 45.5397 8.13575 44.2505C8.38 42.0365 11.1413 42.1415 11.7295 44.0585C12.1705 45.4957 11.4228 46.3797 10.4165 46.5995Z" fill="#A17E6D"/>
<path d="M5.53925 47.7994C5.2305 48.8116 5.97075 49.5304 6.74025 49.4896C8.31025 49.4066 8.258 47.2429 7.042 46.9429C6.46525 46.8004 5.75725 47.0846 5.53925 47.7994ZM6.281 48.9781C5.6765 48.5601 5.77875 47.3884 6.69175 47.2996C7.56125 47.2151 7.6165 48.2799 7.40425 48.6639C7.18 49.0696 6.654 49.2359 6.281 48.9781Z" fill="#A17E6D"/>
<path d="M12.63 23.0876C12.4215 23.0766 12.313 23.1378 11.5528 23.6248C11.3043 23.7841 9.13601 25.2281 9.10301 25.2993C8.85326 25.8407 11.8995 23.9383 12.4153 23.6271C12.979 23.2868 12.774 23.0951 12.63 23.0876Z" fill="#A17E6D"/>
<path d="M11.373 18.606C11.2272 18.4462 11.0667 18.482 8.08998 18.802C5.53923 19.0762 8.79273 19.1082 8.79273 19.1137C9.75648 19.0752 11.809 19.0842 11.373 18.606Z" fill="#A17E6D"/>
<path d="M14.817 26.4949C14.5052 26.7091 12.391 29.3061 12.507 29.3681C12.7672 29.5074 14.99 26.9779 15.1295 26.6766C15.12 26.4869 14.955 26.4001 14.817 26.4949Z" fill="#A17E6D"/>
<path d="M11.6335 14.944C11.7855 14.9338 11.8605 14.8265 11.7963 14.6915C11.732 14.5565 11.5753 14.4748 11.4348 14.3933C9.96675 13.5423 9.58225 13.3623 8.51675 12.965C7.70775 12.6633 11.2335 14.8148 11.6335 14.944Z" fill="#A17E6D"/>
<path d="M26.19 15.2327C26.2075 15.1094 26.2205 14.9857 26.224 14.8609C24.6097 14.9559 22.506 15.0702 20.8892 15.0999C20.6395 13.2434 20.416 11.2799 18.944 11.0604C17.619 10.8629 16.7915 11.9929 16.9045 13.2197C17.036 14.6454 18.2602 15.4869 19.6287 15.4812C19.9372 15.4799 20.2457 15.4812 20.5535 15.4784C20.566 15.5762 20.749 17.0609 20.8292 17.7054C20.9507 17.6077 21.067 17.5037 21.1835 17.4004C21.0982 16.7072 21.0152 16.0479 20.9395 15.4734C22.692 15.4439 24.4407 15.3429 26.19 15.2327ZM19.1467 15.0654C18.1605 14.9259 17.3777 14.1999 17.2885 13.1859C17.2352 12.5807 17.46 11.8867 18.0037 11.5814C18.3935 11.3627 18.9215 11.3729 19.306 11.5882C19.7242 11.8227 19.9085 12.2844 20.054 12.7429C20.264 13.4042 20.4102 14.4162 20.5037 15.1057C20.0757 15.1099 19.5405 15.1209 19.1467 15.0654Z" fill="#A17E6D"/>
<path d="M22.4897 28.3898C22.4215 28.3463 22.1857 28.1956 22.1367 28.1636C22.2982 29.5243 22.4543 30.8871 22.5685 32.2503L22.8505 32.2288C22.7533 30.9463 22.6277 29.6671 22.4897 28.3898Z" fill="#A17E6D"/>
<path d="M40.206 36.309C40.2328 36.1502 40.6157 36.3107 41.5957 36.0797C44.6042 35.37 46.189 31.9047 45.1205 29.0042C44.6205 27.6472 44.0868 27.5435 44.3375 27.362C48.09 24.6467 47.9688 18.2597 43.7188 15.8369C43.6197 15.7804 43.6627 15.7324 43.7352 15.5454C44.6372 13.2122 44.1612 10.3304 42.7505 8.47443C41.9648 7.44068 41.0173 6.58793 38.9468 5.85193C38.505 5.69493 38.5827 5.75418 38.4372 5.44243C37.2452 2.89069 35.213 1.94219 32.8945 1.99394C30.2703 2.05244 27.8347 3.59843 28.1245 5.47168C28.4065 7.29543 29.4288 11.0624 28.6962 17.0244C28.5565 18.1612 28.7342 18.0559 27.9545 17.8912C22.8097 16.8037 21.6727 20.9662 22.1095 23.3559C22.4422 25.1774 23.501 26.4912 25.3167 26.8542C26.2032 27.0315 27.4382 27.0097 27.7595 27.0125C27.8357 27.013 27.8647 27.012 27.8735 27.2807C27.8867 27.675 27.7447 30.753 28.09 32.936C30.0362 45.243 37.7258 43.5102 39.8288 38.2975C40.2395 37.2795 40.184 36.4395 40.206 36.309ZM28.3505 30.5695C28.3342 30.5005 28.216 27.1712 28.173 26.9177C28.1322 26.677 27.791 26.7002 27.2307 26.6907C24.3337 26.6412 22.5605 25.4659 22.506 22.5687C22.4877 21.6049 22.7007 20.6264 23.1042 19.9067C24.0995 18.1309 25.8707 17.8979 27.8317 18.2012C28.5447 18.3114 28.7077 18.4224 28.7927 18.2114C29.1357 17.3597 29.746 12.4124 29.2237 8.39818C29.2005 8.21968 29.213 8.23768 29.3192 8.26768C33.853 9.54843 37.7963 16.0007 35.2055 20.7972C33.2213 24.4704 31.627 26.2265 31.2367 29.5077C31.2005 29.8122 31.173 29.9767 31.0485 30.036C30.4367 30.3277 29.5102 30.5005 28.8362 30.5715C28.3802 30.6195 28.369 30.6487 28.3505 30.5695ZM28.6302 33.0735C28.6095 32.9395 30.4497 32.8247 31.4752 32.5632C31.5752 32.5377 31.6627 32.5355 31.6505 32.6412C31.541 32.8135 31.3465 32.8735 31.111 32.9547C30.663 33.1095 29.1352 33.3885 28.7427 33.4405C28.6925 33.4472 28.6747 33.36 28.6302 33.0735ZM29.146 35.5842C29.132 35.5395 29.1743 35.5372 29.3317 35.521C29.4892 35.5047 30.383 35.382 31.2367 35.169C31.461 35.113 31.6367 35.022 31.6237 35.1815C31.5935 35.555 29.5807 35.9595 29.2985 36.02C29.2685 35.98 29.284 36.0245 29.146 35.5842ZM38.9305 38.8785C38.3717 39.8435 37.346 40.7227 36.47 41.1427C33.554 42.5417 31.61 40.966 30.1492 38.1252C30.0745 37.98 30.429 38.0195 31.3922 37.6507C32.6052 37.1862 32.8222 36.566 32.8085 35.6395C32.8067 35.5265 32.7457 35.1447 32.5897 34.8547C32.4037 34.509 33.4 33.4762 32.4507 32.3722C32.3842 32.2947 32.3468 32.2315 32.379 32.1485C33.144 30.1752 31.6995 29.7995 31.731 29.5022C32.2205 24.8857 36.8337 22.0589 36.762 17.1817C36.696 12.7129 33.3527 8.83393 29.1407 7.67968C29.0915 7.66618 29.0872 7.67243 29.0442 7.47018C29.0155 7.33518 28.8437 6.59268 28.5335 5.13968C28.3775 4.40918 30.16 2.56919 33.4157 2.61719C36.3342 2.66019 37.4672 4.56618 38.2907 5.81943C38.5547 6.22118 40.619 6.58993 42.1828 8.65843C43.7925 10.7877 44.0665 13.5854 43.2438 15.8169C43.1675 16.0237 43.1537 16.1347 43.35 16.2209C45.4475 17.1437 46.981 20.1372 46.36 23.0717C45.6088 26.6225 43.3093 27.176 43.7303 27.6417C45.278 29.3542 45.4258 32.4117 43.4383 34.3302C42.7383 35.006 41.6077 35.6277 40.3807 35.7907C39.9667 35.8457 40.0323 35.787 39.8525 35.889C39.6813 35.9862 39.8937 37.2152 38.9305 38.8785Z" fill="#A17E6D"/>
<path d="M43.314 40.7996C42.1965 40.0076 40.9645 40.4116 40.2547 41.2646C39.4187 42.2696 39.4077 43.9571 40.4197 44.8341C41.2575 45.5601 42.6105 45.6254 43.5395 44.5234C44.6087 43.2549 44.2802 41.4841 43.314 40.7996ZM43.082 44.3069C42.198 45.1646 41.0702 44.9464 40.4832 44.2306C39.597 43.1504 40.246 41.2484 41.6165 40.8681C43.3622 40.3836 44.5885 42.8449 43.082 44.3069Z" fill="#A17E6D"/>
<path d="M45.5347 45.1267C43.714 44.9662 43.867 47.5984 45.397 47.5322C46.9155 47.4667 46.8037 45.2384 45.5347 45.1267ZM45.5302 47.0884C45.0635 47.2279 44.537 46.7319 44.5795 46.2399C44.5557 45.3049 45.927 45.1314 46.1095 46.1377C46.1772 46.5112 46.0047 46.9467 45.5302 47.0884Z" fill="#A17E6D"/>
<path d="M41.2727 24.1921C41.3077 24.1333 41.2105 24.1001 41.2005 24.0939C40.109 23.4269 39.0215 22.7621 37.9017 22.2181C37.4955 22.0208 37.1595 22.3441 37.7582 22.6521C38.1372 22.8471 41.123 24.4441 41.2727 24.1921Z" fill="#A17E6D"/>
<path d="M42.7772 17.6431C42.5705 17.5946 38.8592 17.4019 38.5857 17.5579C38.383 17.6736 38.5122 17.9014 38.752 17.9219C40.6717 18.0856 43.2405 17.7521 42.7772 17.6431Z" fill="#A17E6D"/>
<path d="M35.3475 25.8779C35.3462 26.0089 35.4095 26.0537 35.735 26.3739C35.9445 26.5802 37.9467 28.6404 38.1552 28.4174C38.2445 28.3219 35.9862 26.0017 35.8475 25.8622C35.5602 25.5736 35.3492 25.6823 35.3475 25.8779Z" fill="#A17E6D"/>
<path d="M38.018 13.9713C38.318 13.8798 41.1518 11.8515 41.0993 11.7815C40.973 11.6128 38.1545 13.3135 37.8643 13.6735C37.7683 13.7928 37.8065 13.9685 38.018 13.9713Z" fill="#A17E6D"/>
<path d="M27.0478 18.0986C27.0478 18.0986 26.8325 25.7041 26.806 26.854C26.9095 26.863 27.014 26.872 27.1173 26.8845L27.3913 18.1079C27.277 18.1006 27.1623 18.0981 27.0478 18.0986Z" fill="#A17E6D"/>
<path d="M29.2707 10.6922C29.2937 10.8084 29.3152 10.9277 29.329 11.0442C30.68 10.6189 31.709 12.1464 31.3165 13.2519C31.0012 14.1402 29.9755 14.5179 29.0522 14.6569C29.0585 14.7807 29.0625 14.9049 29.0612 15.0287C30.325 14.8412 31.704 14.2332 31.7617 12.8107C31.8115 11.5844 30.6865 10.2874 29.2707 10.6922Z" fill="#A17E6D"/>
</svg>
