<svg width="50" height="51" viewBox="0 0 50 51" fill="none" xmlns="http://www.w3.org/2000/svg">
<path d="M44.8027 42.6521C44.4373 42.4041 44.0345 42.2164 43.6095 42.0961C42.386 41.7366 41.1298 41.4999 39.8595 41.3899C39.3905 41.3606 38.9247 41.2911 38.4675 41.1819C38.0427 41.0246 37.6335 40.8289 37.2445 40.5969C35.5112 39.6261 33.6838 39.2099 31.6595 39.1251C31.643 39.1244 31.6265 39.1271 31.6112 39.1329C31.5957 39.1389 31.5817 39.1476 31.5697 39.1589C31.5577 39.1704 31.5483 39.1839 31.5417 39.1991C31.5352 39.2141 31.5317 39.2304 31.5315 39.2469C31.531 39.2634 31.534 39.2796 31.5397 39.2949C31.5457 39.3104 31.5548 39.3244 31.566 39.3361C31.5772 39.3481 31.5907 39.3576 31.6057 39.3641C31.621 39.3709 31.637 39.3744 31.6535 39.3749C32.0903 39.3854 32.526 39.4186 32.9593 39.4749C31.777 39.6026 30.6053 39.8159 29.4538 40.1126C29.4303 40.1186 29.4092 40.1314 29.393 40.1491C29.3765 40.1669 29.3657 40.1889 29.3617 40.2126C29.3577 40.2366 29.3605 40.2609 29.37 40.2831C29.3798 40.3054 29.3955 40.3241 29.4155 40.3376C29.9795 40.7044 30.5195 41.1074 31.0315 41.5441C31.4565 41.9424 31.7735 42.2206 32.3295 42.2206C32.832 42.1779 33.3308 42.0976 33.8213 41.9806C35.228 41.7556 36.5195 41.4859 37.7673 41.1571C37.8835 41.2116 38.0025 41.2641 38.1258 41.3146C36.2028 41.7724 34.2432 42.1509 32.1382 42.4711C32.052 42.4931 31.9618 42.4931 31.8755 42.4711C31.7892 42.4471 31.7118 42.3989 31.6523 42.3319C30.9218 41.7634 30.1665 41.1431 29.4093 40.6024C28.8953 40.2451 28.1415 40.0524 27.1028 40.0139C26.2868 39.9966 24.6492 39.9181 24.5827 39.9389C21.3827 40.9296 20.4247 42.2916 18.1077 42.8729C17.8696 42.9104 17.6476 43.0166 17.4687 43.1781C17.3749 43.2849 17.3088 43.4131 17.2765 43.5516C16.9474 44.5579 16.9655 45.6454 17.328 46.6401C17.3576 46.7556 17.4119 46.8634 17.4871 46.9559C17.5623 47.0484 17.6567 47.1234 17.7637 47.1759C18.2887 47.4814 18.8745 47.7791 19.2562 47.6759C19.3155 47.6884 19.3462 47.6616 19.3967 47.6299C19.5537 48.3799 20.0597 49.1854 20.7237 49.1859C21.2843 49.1079 21.8257 48.9274 22.3207 48.6529C22.4172 48.5849 22.4964 48.4951 22.552 48.3909C22.6075 48.2866 22.6379 48.1709 22.6407 48.0529C28.5032 47.9569 32.282 48.2641 32.384 48.2959C32.542 48.4334 32.7025 48.1739 32.73 48.1394C33.1103 49.0341 33.9213 49.6551 34.8073 49.6164C35.3608 49.5631 35.8967 49.3941 36.3807 49.1206C36.563 49.0236 36.7243 48.8911 36.8548 48.7311C36.9853 48.5711 37.0825 48.3866 37.141 48.1886L38.5863 48.1649C39.1007 48.1649 39.672 47.8634 40.1575 47.7286C41.1825 47.4354 44.1005 46.4424 45.231 46.0286C45.3282 45.9909 45.4198 45.9404 45.5037 45.8786C45.5408 45.8536 45.5413 45.8406 45.6353 45.6479C46.025 44.3059 45.7465 43.2979 44.8027 42.6521ZM38.0708 47.9226L37.0633 47.9391C37.0405 47.0399 36.7735 46.1639 36.291 45.4046C36.516 45.3906 36.737 45.3681 36.953 45.3461C38.211 45.2181 37.6095 45.3064 40.2985 45.3064C40.6982 45.3866 41.0872 45.5124 41.4582 45.6814C40.4395 45.7106 39.6725 45.6916 39.0757 46.0781C38.6325 46.4179 38.3072 46.8884 38.146 47.4229C38.0695 47.5776 38.043 47.7524 38.0708 47.9226ZM32.1012 47.2371L31.8027 47.2306C31.7337 46.1354 31.6998 45.0609 31.6998 43.9681C31.6998 43.5271 31.6997 43.0709 31.9662 42.7554C31.979 42.7701 31.995 42.7816 32.013 42.7891C32.031 42.7966 32.0505 42.7999 32.07 42.7986C35.0475 42.5629 38.0395 43.0051 40.8218 44.0916C40.5618 44.4054 40.3518 44.7166 40.0928 45.0564C39.4598 45.0564 38.8118 45.0534 38.185 45.0294C37.476 45.0024 36.807 45.1351 36.1167 45.1634C35.2327 44.0454 33.848 43.6614 32.7835 44.6316C32.05 45.3189 31.9373 46.2406 32.1012 47.2371ZM37.0513 41.8179C38.6443 41.9324 40.217 42.2424 41.7345 42.7406C42.2685 42.8821 42.7635 43.1426 43.1825 43.5029C42.4855 43.6681 41.7925 43.8176 41.0935 43.9529C41.0762 43.9324 41.0547 43.9161 41.0305 43.9046C34.786 41.4079 30.135 43.3424 37.0518 41.8179H37.0513ZM45.1177 43.2679C45.1992 43.3646 45.2705 43.4696 45.3305 43.5809C44.875 43.6781 43.0338 44.1644 42.8438 44.2119C42.513 44.2731 42.1882 44.3634 41.8732 44.4814C41.534 44.6589 41.2495 44.9254 41.0498 45.2519C40.8348 45.1799 40.616 45.1201 40.3945 45.0724C40.6195 44.7686 40.8932 44.3819 41.0445 44.2196C42.4027 43.9561 43.7365 43.6446 45.1183 43.2656L45.1177 43.2679ZM41.782 45.5654C41.6013 45.4699 41.4147 45.3859 41.2235 45.3141C42.689 45.1004 44.1355 44.7731 45.5503 44.3346C45.5598 44.4436 45.5623 44.5531 45.5578 44.6626C44.3158 45.0284 43.0558 45.3294 41.7825 45.5641L41.782 45.5654ZM43.5395 42.3376C44.047 42.4756 44.518 42.7231 44.9198 43.0626C44.4347 43.1941 43.9545 43.3176 43.479 43.4334C43.0065 42.9899 42.4315 42.6701 41.8055 42.5029C40.5173 42.0689 39.1847 41.7796 37.8325 41.6406C37.921 41.6199 38.538 41.4776 38.5682 41.4594C38.9872 41.5524 39.4128 41.6124 39.841 41.6386C41.0942 41.7476 42.3333 41.9811 43.54 42.3364L43.5395 42.3376ZM33.7817 41.7356C33.2535 41.8149 32.6648 42.0156 32.1567 41.9644C31.749 41.9166 31.3925 41.5406 31.0745 41.2449C30.6585 40.8981 30.2185 40.5879 29.7847 40.2894C31.1415 39.9596 32.523 39.7411 33.9155 39.6361C34.2823 39.7111 34.6487 39.8021 35.0155 39.9094C35.8577 40.1771 36.667 40.5394 37.4277 40.9891C36.2725 41.2824 35.0763 41.5274 33.7822 41.7344L33.7817 41.7356ZM17.8925 46.9634C17.7175 46.8461 17.6215 46.7884 17.565 46.5679C17.4403 46.2236 17.3572 45.8654 17.3175 45.5014C17.393 45.5761 17.4835 45.6344 17.583 45.6719C18.0026 45.8754 18.4459 46.0256 18.9027 46.1194C18.8798 46.5679 18.9338 47.0169 19.0625 47.4471C18.7025 47.4354 18.125 47.0981 17.8925 46.9634ZM19.3065 47.3904C19.1065 46.7199 19.0465 45.8874 19.388 45.2726C19.4566 45.1581 19.5478 45.0591 19.6561 44.9811C19.7643 44.9031 19.8873 44.8481 20.0176 44.8191C20.1478 44.7904 20.2826 44.7884 20.4137 44.8134C20.5447 44.8384 20.6692 44.8899 20.7797 44.9646C20.8821 45.0269 20.9804 45.0959 21.074 45.1706C20.8652 45.1801 20.649 45.1996 20.4372 45.2286C19.543 45.2536 19.2337 46.4749 19.3505 47.3629L19.3065 47.3904ZM20.8095 48.9271C20.0922 49.0164 19.62 47.9021 19.581 47.1294C19.545 46.4169 19.7685 45.5724 20.456 45.4794C20.977 45.4794 21.4885 46.1891 21.5982 47.0829C21.7125 48.0156 21.3515 48.8604 20.8095 48.9271ZM22.4925 47.8044C22.439 47.3631 22.3607 46.9251 22.2582 46.4926C22.0374 45.7676 21.5588 45.1489 20.9127 44.7529C20.7738 44.6601 20.6175 44.5966 20.4533 44.5664C20.289 44.5361 20.1203 44.5394 19.9575 44.5764C19.7946 44.6134 19.6409 44.6829 19.5058 44.7811C19.3708 44.8794 19.2571 45.0041 19.1717 45.1476C19.0461 45.3711 18.9632 45.6159 18.9272 45.8696C18.4958 45.7781 18.0771 45.6344 17.6802 45.4419C17.5908 45.4066 17.5116 45.3494 17.4499 45.2756C17.3882 45.2016 17.3459 45.1136 17.327 45.0194C17.3217 44.9954 17.3096 44.9736 17.292 44.9566C17.2991 44.5026 17.3743 44.0524 17.515 43.6209C17.5349 43.5269 17.5761 43.4386 17.6355 43.3631C17.7798 43.2326 17.9594 43.1476 18.1517 43.1189C20.0745 42.6381 21.3055 41.5051 23.2395 40.6919C23.26 40.6971 23.2815 40.6971 23.302 40.6919C24.8412 40.2991 27.961 39.9006 29.2645 40.8074C30.0395 41.3614 30.858 42.0346 31.4865 42.5194C31.5505 42.5864 31.627 42.6404 31.7115 42.6786C31.451 43.0536 31.4508 43.5374 31.4508 43.9679C31.4508 45.0589 31.4845 46.1321 31.553 47.2256C30.1745 47.2006 27.999 47.1836 26.1805 47.1736C26.0953 46.8376 26.1205 46.5611 25.7955 43.8434C25.7542 43.4981 25.7188 43.1124 25.9205 42.8509C30.9765 42.9009 31.1815 42.9466 31.0705 42.6451C30.987 42.4201 29.9085 41.3504 28.4807 40.7644C27.5145 40.3676 26.517 40.4176 25.5037 40.4999C23.3442 40.6074 22.4817 41.1679 20.6735 42.2969C20.4235 42.4526 20.513 42.7449 20.788 42.7449L21.5975 42.7674C21.2665 42.9729 20.9002 43.2261 20.8577 43.5674C20.801 43.8324 20.801 44.1064 20.8577 44.3714C20.8618 44.3936 20.8717 44.4141 20.8866 44.4311C20.9014 44.4481 20.9205 44.4609 20.942 44.4679C22.195 44.8766 22.654 46.5604 22.767 47.0864C22.7684 47.1386 22.7829 47.1896 22.8091 47.2346C22.8353 47.2799 22.8724 47.3176 22.917 47.3449C23.1015 47.4419 22.7105 47.4044 25.992 47.4219C26.033 47.5441 26.0903 47.6604 26.162 47.7674C24.9065 47.7656 23.6452 47.7856 22.4925 47.8044ZM25.2052 40.7714C25.111 41.3739 25.0997 41.9866 25.1715 42.5924C24.389 42.5816 23.568 42.5661 22.694 42.5454C22.7165 42.0994 22.8277 41.6621 23.0212 41.2596C23.7154 40.9714 24.4544 40.8061 25.2052 40.7714ZM26.6478 42.6069C26.5105 41.9791 26.4858 41.3321 26.5748 40.6956C27.1918 40.6766 27.8068 40.7786 28.3848 40.9956C29.2703 41.3726 30.0722 41.9219 30.7442 42.6111C30.2947 42.6436 29.8438 42.6436 29.3943 42.6111C29.3943 42.6111 27.523 42.6121 26.6478 42.6069ZM26.3918 42.6036H26.0107C25.9353 41.9766 25.9318 41.3434 26 40.7156C26.108 40.7094 26.2157 40.7041 26.3232 40.7006C26.2385 41.3344 26.2618 41.9776 26.3918 42.6036ZM25.7612 42.5996L25.424 42.5956C25.348 41.9829 25.3605 41.3621 25.461 40.7529L25.7455 40.7319C25.6805 41.3531 25.6858 41.9796 25.7612 42.5996ZM22.4442 42.5406C22.033 42.5304 22.1912 42.5406 22.1042 42.5054C22.1247 42.1761 22.2169 41.8551 22.3745 41.5654C22.4767 41.5121 22.5803 41.4606 22.6855 41.4109C22.5433 41.7716 22.4618 42.1534 22.4442 42.5406ZM21.853 42.5256L20.825 42.4971C21.1875 42.2621 21.5865 42.0041 22.0107 41.7634C21.917 42.0066 21.8637 42.2639 21.853 42.5244V42.5256ZM22.0482 42.7809C23.3432 42.8141 24.5232 42.8366 25.6268 42.8494C25.5018 43.1761 25.474 43.5321 25.5462 43.8744C25.8435 46.3586 25.844 46.8274 25.9212 47.1744C22.7962 47.1579 23.0485 47.2124 23.0137 47.0479C22.899 46.5116 22.4242 44.7479 21.0902 44.2579C21.0518 44.0424 21.0561 43.8216 21.103 43.6079C21.1445 43.2774 21.7232 42.9979 22.0482 42.7796V42.7809ZM26.49 47.7709C26.3912 47.6724 26.3137 47.5549 26.262 47.4256C28.0717 47.4359 30.2135 47.4529 31.5683 47.4774C31.5795 47.6426 31.5915 47.8084 31.6042 47.9746C30.1155 47.9314 29.0875 47.7841 26.49 47.7696V47.7709ZM31.8557 47.9846C31.8427 47.8166 31.8305 47.6491 31.8193 47.4821L32.1483 47.4896C32.1875 47.6769 32.2337 47.8564 32.2822 48.0269C32.141 48.0049 31.9985 47.9904 31.8557 47.9834V47.9846ZM32.5308 47.9864C32.3665 47.4449 32.2852 46.8816 32.2892 46.3159C32.3175 44.9546 33.6743 43.7711 35.1225 44.6159C33.46 44.0826 32.0265 45.9349 32.6273 47.8659L32.5308 47.9864ZM34.9248 49.3549C33.816 49.4924 32.9053 48.4739 32.761 47.3024C32.6063 46.0429 33.325 44.9141 34.3633 44.7866C35.4015 44.6591 36.372 45.5801 36.5267 46.8394C36.6815 48.0986 35.9632 49.2261 34.925 49.3536L34.9248 49.3549ZM38.3387 47.9194C38.2815 47.8491 38.3118 47.6726 38.38 47.5119C38.5245 47.0254 38.8177 46.5961 39.2185 46.2849C39.7672 45.9299 40.5528 45.9599 41.6613 45.9276C41.686 45.9269 41.71 45.9189 41.7303 45.9046C41.7505 45.8901 41.766 45.8701 41.7747 45.8469C41.8703 45.9114 41.9705 45.9689 42.0747 46.0184C42.1075 46.0521 42.1398 46.0849 42.1748 46.1149C41.753 46.2424 41.2998 46.4194 40.9098 46.5719C40.081 46.8424 39.3255 47.2999 38.7018 47.9091C38.638 47.9156 38.6315 47.9134 38.339 47.9181L38.3387 47.9194ZM45.3353 45.6899C44.9693 45.9326 39.805 47.5964 39.218 47.7899C39.624 47.4499 40.08 47.1744 40.5695 46.9724C41.2415 46.6866 41.9315 46.4461 42.6355 46.2519C43.0555 46.2186 43.7392 45.9519 45.3435 45.4464C45.378 45.4354 45.4115 45.4216 45.4435 45.4049C45.4248 45.5051 45.3882 45.6014 45.3355 45.6886L45.3353 45.6899Z" fill="#A17E6D"/>
<path d="M26.844 43.8226C26.7852 43.8333 26.73 43.8586 26.6832 43.8958C26.6365 43.9333 26.5997 43.9816 26.5762 44.0366C26.5632 44.0683 26.5565 44.1023 26.5567 44.1366C26.557 44.1708 26.564 44.2048 26.5772 44.2363C26.5907 44.2681 26.6102 44.2966 26.6347 44.3206C26.659 44.3446 26.688 44.3636 26.72 44.3763C26.827 44.4256 26.9432 44.4521 27.061 44.4541C27.361 44.4966 27.8312 44.5671 27.966 44.2933C27.9927 44.2418 28.0027 44.1836 27.9952 44.1261C27.9875 44.0688 27.9625 44.0151 27.9232 43.9726C27.7 43.7288 26.993 43.7728 26.844 43.8226ZM27.741 44.1843C27.691 44.2711 27.427 44.2486 26.991 44.1936C26.928 44.1901 26.8665 44.1731 26.8107 44.1436C26.7692 44.0001 27.6075 43.9983 27.739 44.1408C27.7462 44.1493 27.7525 44.1558 27.741 44.1843Z" fill="#A17E6D"/>
<path d="M36.2798 43.9771C36.3798 44.0596 36.4798 44.1386 36.5798 44.2099C36.7988 44.3531 37.0338 44.4706 37.2798 44.5599C38.1548 44.8821 39.5728 44.9909 40.1315 44.2766C40.1488 44.2549 40.1595 44.2286 40.163 44.2011C40.1665 44.1734 40.1623 44.1454 40.151 44.1199C40.1398 44.0944 40.122 44.0726 40.0993 44.0566C40.0765 44.0406 40.0498 44.0309 40.022 44.0289C38.795 43.9361 37.5858 43.8446 36.3595 43.7714C36.3353 43.7701 36.311 43.7766 36.2905 43.7901C36.27 43.8034 36.2543 43.8226 36.2455 43.8454C36.2365 43.8684 36.2353 43.8934 36.2413 43.9169C36.2475 43.9406 36.261 43.9616 36.2798 43.9771Z" fill="#A17E6D"/>
<path d="M21.2865 47.1157C21.1615 46.0942 20.298 45.777 19.9597 46.5217C19.6432 47.2192 20.0312 48.2945 20.646 48.2945C21.1457 48.2932 21.352 47.6487 21.2865 47.1157ZM20.9597 47.7817C20.707 48.3382 20.1927 47.9412 20.1097 47.2605C20.0783 47.0455 20.1054 46.826 20.1882 46.625C20.2097 46.556 20.2505 46.4945 20.3057 46.4477C20.3609 46.401 20.4283 46.3707 20.5 46.361C20.893 46.361 21.2135 47.222 20.9597 47.7805V47.7817Z" fill="#A17E6D"/>
<path d="M34.4365 45.5246C33.7085 45.6143 33.276 46.3893 33.3715 47.1668C33.537 48.5133 34.9813 48.9798 35.6383 47.9478C36.2893 46.9243 35.55 45.3883 34.4365 45.5246ZM35.4273 47.8136C35.3605 47.9333 35.2663 48.0358 35.1523 48.1123C35.0385 48.1888 34.9083 48.2376 34.772 48.2543C34.6358 48.2711 34.4975 48.2553 34.3685 48.2086C34.2395 48.1618 34.1235 48.0853 34.0295 47.9853C33.2525 47.2473 33.6208 45.7666 34.567 45.7666C35.425 45.7656 35.9398 47.0081 35.4273 47.8136Z" fill="#A17E6D"/>
<path d="M4.77678 41.7215C9.45728 41.7935 14.2075 41.816 18.9 41.883C18.9332 41.884 18.9653 41.8717 18.9894 41.849C19.0135 41.826 19.0276 41.7947 19.0285 41.7615C19.0295 41.7282 19.0172 41.6962 18.9944 41.672C18.9716 41.648 18.9402 41.634 18.907 41.633C14.213 41.4987 9.45828 41.4445 4.77553 41.4712C4.74235 41.4712 4.71058 41.4845 4.68713 41.508C4.66368 41.5312 4.65053 41.563 4.65053 41.5962C4.65103 41.6295 4.66453 41.6612 4.68813 41.6845C4.71173 41.708 4.74353 41.7212 4.77678 41.7215Z" fill="#A17E6D"/>
<path d="M22.7822 43.3857L9.43675 43.763C9.40357 43.7635 9.37197 43.777 9.34887 43.8007C9.32575 43.8245 9.31302 43.8565 9.3135 43.8897C9.31395 43.9227 9.32757 43.9545 9.35132 43.9775C9.3751 44.0007 9.40707 44.0135 9.44025 44.013L22.7902 43.6355C22.8066 43.635 22.8228 43.6312 22.8378 43.6247C22.8528 43.618 22.8663 43.6082 22.8776 43.5965C22.8889 43.5845 22.8977 43.5705 22.9036 43.555C22.9094 43.5397 22.9122 43.5235 22.9117 43.507C22.9115 43.4905 22.908 43.474 22.9013 43.459C22.8946 43.4437 22.8849 43.43 22.8728 43.4187C22.8607 43.4075 22.8465 43.3987 22.8309 43.393C22.8153 43.3872 22.7988 43.3847 22.7822 43.3857Z" fill="#A17E6D"/>
<path d="M14.8805 46.2706L4.31222 46.7559C4.2958 46.7564 4.27962 46.7598 4.2646 46.7663C4.24957 46.7731 4.236 46.7826 4.22465 46.7943C4.21327 46.8063 4.20437 46.8204 4.19842 46.8356C4.19247 46.8509 4.1896 46.8671 4.18997 46.8836C4.19032 46.9001 4.19392 46.9163 4.20055 46.9313C4.20715 46.9463 4.21667 46.9598 4.22852 46.9711C4.2404 46.9826 4.25437 46.9916 4.26967 46.9973C4.28497 47.0033 4.3013 47.0064 4.31772 47.0059L14.8927 46.5204C14.9091 46.5196 14.9252 46.5156 14.9401 46.5088C14.9549 46.5018 14.9683 46.4918 14.9794 46.4798C14.9904 46.4676 14.999 46.4536 15.0046 46.4381C15.0102 46.4226 15.0127 46.4063 15.012 46.3898C15.0101 46.3568 14.9952 46.3256 14.9706 46.3033C14.946 46.2811 14.9136 46.2693 14.8805 46.2706Z" fill="#A17E6D"/>
<path d="M33.525 32.2395C33.4948 34.6182 33.4363 36.6315 33.3408 38.5645C32.1158 38.9557 30.8233 39.329 29.4013 39.702C29.313 37.5282 29.1135 35.3605 28.8033 33.2072C29.1893 33.1237 29.5865 33.0005 29.9618 32.9007C29.989 32.8935 30.013 32.877 30.0298 32.8545C30.0468 32.8317 30.0553 32.804 30.0543 32.7757C28.8293 32.8507 22.9128 32.792 20.3881 33.1422C20.3533 33.1505 20.3228 33.1715 20.3026 33.201C20.1193 33.481 20.4526 39.5825 20.5306 39.9355C20.538 39.976 20.5586 40.013 20.5891 40.0405C21.0186 40.386 28.0933 40.0975 29.1025 40.0135C29.127 40.0232 29.1538 40.0247 29.179 40.018C31.0235 39.5417 32.4508 39.1125 33.4995 38.776C33.5238 38.7682 33.545 38.7532 33.5605 38.733C33.576 38.713 33.585 38.6885 33.5863 38.663C33.6843 36.6997 33.7443 34.6595 33.775 32.242C33.7753 32.2255 33.7723 32.2092 33.766 32.194C33.76 32.1787 33.7508 32.165 33.7393 32.1532C33.7278 32.1415 33.7143 32.1322 33.699 32.1257C33.684 32.1192 33.6678 32.116 33.6513 32.1157C33.635 32.1155 33.6185 32.1187 33.6033 32.1247C33.5883 32.131 33.5743 32.14 33.5625 32.1515C33.5508 32.163 33.5415 32.1767 33.535 32.1917C33.5285 32.207 33.5253 32.223 33.525 32.2395Z" fill="#A17E6D"/>
<path d="M36.6057 25.8085C31.3287 25.1149 31.6382 25.1379 31.5765 25.1884C26.725 25.4587 21.9019 26.1082 17.1516 27.1312C17.1355 27.1347 17.1203 27.1412 17.1068 27.1505C17.0933 27.16 17.0818 27.1717 17.0729 27.1857C17.064 27.1995 17.0579 27.215 17.055 27.231C17.052 27.2472 17.0523 27.2637 17.0558 27.28C17.0378 27.3615 17.3693 32.337 17.4036 33.485C17.4045 33.5175 17.4181 33.5482 17.4415 33.571C17.4648 33.5935 17.4961 33.6062 17.5286 33.6062C17.9448 33.6062 24.4286 32.6877 31.5195 32.9312C31.5382 32.9315 31.5565 32.9277 31.5735 32.9197C31.5902 32.912 31.605 32.9005 31.6167 32.8862C33.2437 32.527 34.5667 32.2125 36.0855 31.7667C36.1095 31.7597 36.1307 31.7455 36.1467 31.7262C36.1628 31.707 36.1725 31.6835 36.1747 31.6587L36.7137 25.9432C36.7167 25.911 36.707 25.8792 36.6867 25.8542C36.6667 25.829 36.6377 25.8127 36.6057 25.8085ZM23.7016 28.5585C23.6863 28.5457 23.6682 28.5367 23.6487 28.5325C23.6293 28.5282 23.6091 28.5285 23.5899 28.5337C23.5706 28.5387 23.5529 28.5482 23.5381 28.5615C23.5233 28.575 23.5119 28.5915 23.5048 28.6102L23.3518 29.0115C23.1326 28.8257 23.1018 28.778 23.0171 28.8052C23.0016 28.81 22.9872 28.818 22.9748 28.8287C22.8718 28.0017 22.8405 27.1677 22.8813 26.3355C23.146 26.2955 23.4111 26.2567 23.6766 26.219C23.6438 27.0012 23.6751 27.7745 23.7016 28.5592V28.5585ZM17.6501 33.3415C17.5906 31.5617 17.3868 29.1112 17.3063 27.3532C19.0643 26.9752 20.8393 26.649 22.6313 26.374C22.5892 27.3072 22.636 28.2425 22.7708 29.167V29.1937C22.7708 29.2185 22.7781 29.2427 22.7918 29.2632C22.8055 29.2837 22.8251 29.3 22.848 29.3092C22.8708 29.3187 22.896 29.3212 22.9203 29.3165C22.9445 29.3117 22.9668 29.2997 22.9843 29.2822C23.0312 29.2365 23.0722 29.1852 23.1066 29.1295C23.3493 29.3347 23.3493 29.3457 23.4081 29.3457C23.4334 29.3457 23.4581 29.338 23.479 29.3235C23.4998 29.3092 23.5158 29.2887 23.5248 29.2652L23.6673 28.8917L23.7461 28.9802C23.7631 28.9992 23.7856 29.013 23.8106 29.0187C23.8356 29.0247 23.8618 29.023 23.8856 29.0135C23.9095 29.004 23.9299 28.9875 23.944 28.966C23.9581 28.9445 23.9653 28.9192 23.9646 28.8937C23.9396 28.0017 23.8896 27.0987 23.9303 26.1837C26.4302 25.8355 28.949 25.5881 31.469 25.4441C31.2917 27.852 31.266 30.2687 31.3912 32.68C26.8017 32.6282 22.2134 32.8492 17.6501 33.3415Z" fill="#A17E6D"/>
<path d="M30.82 30.7947H28.9328C28.9023 30.7944 28.8728 30.8054 28.8498 30.8254C28.8268 30.8454 28.812 30.8732 28.8078 30.9032C28.7638 31.3207 28.7453 31.7404 28.7528 32.1599C28.7528 32.1932 28.766 32.2249 28.7895 32.2484C28.813 32.2719 28.8448 32.2849 28.8778 32.2849C29.512 32.2849 30.1998 32.3389 30.8563 32.2849C30.888 32.2824 30.9178 32.2679 30.939 32.2442C30.9603 32.2204 30.9718 32.1897 30.971 32.1577L30.944 30.9174C30.9435 30.8849 30.9303 30.8539 30.907 30.8309C30.884 30.8079 30.8528 30.7949 30.82 30.7947ZM29.004 32.0357C29.004 31.7462 29.009 31.3712 29.0438 31.0447H30.6978L30.7193 32.0447C30.1593 32.0794 29.583 32.0412 29.004 32.0357Z" fill="#A17E6D"/>
<path d="M29.6695 10.2952C27.0898 6.18443 27.2575 6.43843 27.2195 6.41468C24.7225 4.85693 22.2468 2.98392 19.4893 1.87542C19.4722 1.86856 19.4538 1.86558 19.4354 1.86668C19.417 1.86777 19.399 1.87293 19.3829 1.88177C19.3667 1.89061 19.3527 1.90291 19.3418 1.91781C19.3309 1.9327 19.3235 1.94982 19.32 1.96792C19.3158 1.97067 16.0643 4.96793 14.4415 6.57618C10.8123 10.1722 10.9445 9.88668 10.9608 10.0144C11.2025 11.9194 11.4938 13.7827 11.8518 15.7102C11.8547 15.727 11.8611 15.743 11.8704 15.7572C11.8798 15.7714 11.892 15.7836 11.9062 15.793C11.9204 15.8024 11.9364 15.8087 11.9532 15.8117C11.97 15.8146 11.9872 15.8141 12.0038 15.8102C13.6159 16.4921 15.1781 17.2865 16.6788 18.1874C16.5495 17.7844 16.3538 17.1472 16.2888 16.9019C16.181 16.4974 16.1455 16.4192 16.5045 16.3087C20.0775 15.2087 26.3893 13.9874 26.3893 13.9874L29.6413 10.5514C29.6663 10.5421 29.6883 10.526 29.7048 10.5049C29.7213 10.4838 29.7315 10.4586 29.7345 10.432C29.7373 10.4054 29.7328 10.3786 29.7215 10.3544C29.71 10.3302 29.692 10.3097 29.6695 10.2952ZM12.0513 15.4127C11.7193 13.6009 11.4458 11.8419 11.217 10.0469C13.8593 7.61068 16.7293 4.51368 19.3485 2.27192C19.9125 3.42193 20.6635 5.46493 21.122 6.65843L12.0513 15.4127ZM21.3615 6.58393C20.9158 5.42518 20.1593 3.36293 19.5843 2.18392C22.2328 3.28743 24.637 5.09618 27.0628 6.61093L29.2588 10.1109L21.3615 6.58393Z" fill="#A17E6D"/>
<path d="M38.305 26.2235C38.0238 19.7082 37.2268 15.3484 37.2268 14.9594C37.2233 14.8127 37.1632 14.6731 37.059 14.5698C36.9548 14.4665 36.8145 14.4076 36.6678 14.4054C34.2103 13.9161 31.7258 13.5738 29.2275 13.3804C29.214 13.3693 29.1983 13.3611 29.1815 13.3564C29.1645 13.3517 29.1468 13.3506 29.1295 13.3532C24.7454 14.0237 20.4148 15.0071 16.171 16.2957C16.1552 16.3005 16.1405 16.3084 16.1277 16.319C16.115 16.3295 16.1045 16.3425 16.0968 16.3571C16.0891 16.3718 16.0843 16.3878 16.0829 16.4043C16.0814 16.4208 16.0833 16.4374 16.0883 16.4532C17.1633 19.8394 17.8165 23.4504 18.62 26.8782C18.6238 26.8942 18.6306 26.9092 18.6402 26.9227C18.6498 26.936 18.6619 26.9472 18.6759 26.956C18.6898 26.9645 18.7053 26.9705 18.7215 26.973C18.7377 26.9757 18.7543 26.9752 18.7703 26.9715C18.7863 26.9677 18.8014 26.9607 18.8147 26.9512C18.8281 26.9417 18.8394 26.9295 18.848 26.9157C18.8567 26.9017 18.8625 26.8862 18.8652 26.87C18.8678 26.8537 18.8673 26.8372 18.8635 26.8212C18.0705 23.4387 17.4203 19.8604 16.3635 16.4987C20.5233 15.2418 24.7663 14.2786 29.061 13.6164C30.221 17.3774 30.709 21.3634 31.1813 25.2194C31.1863 25.2515 31.2035 25.2803 31.2295 25.2999C31.2553 25.3195 31.2878 25.3282 31.32 25.3242C31.3523 25.3203 31.3818 25.3039 31.402 25.2787C31.4225 25.2534 31.4323 25.2212 31.4293 25.1889C30.9598 21.3549 30.4748 17.3924 29.3293 13.6389C31.785 13.8347 34.2273 14.1734 36.6435 14.6532C36.728 14.6509 36.81 14.6816 36.8723 14.7388C36.9345 14.7961 36.972 14.8753 36.9768 14.9597C36.9803 15.3402 37.7705 19.8262 38.0498 26.1097C37.568 26.1272 37.0855 26.0987 36.609 26.0247C36.5763 26.0195 36.5428 26.0275 36.516 26.047C36.4893 26.0665 36.4713 26.096 36.466 26.1287C36.4608 26.1615 36.469 26.195 36.4885 26.2217C36.508 26.2485 36.5373 26.2665 36.57 26.2717C36.9093 26.325 37.2518 26.3552 37.595 26.3622C37.2378 26.494 36.8738 26.607 36.5048 26.701C36.4888 26.705 36.4738 26.712 36.4608 26.7217C36.4475 26.7315 36.4363 26.7437 36.4278 26.758C36.4108 26.7862 36.4058 26.8205 36.4138 26.8525C36.4218 26.8847 36.4423 26.9125 36.4705 26.9295C36.499 26.9467 36.533 26.9517 36.5653 26.9437C37.1215 26.799 37.6673 26.6172 38.199 26.3992C38.2295 26.3805 38.2548 26.3547 38.2733 26.3242C38.2918 26.2935 38.3025 26.259 38.305 26.2235Z" fill="#A17E6D"/>
<path d="M20.0357 23.9915C19.9817 23.9645 19.955 23.9915 19.928 24.0455L19.4427 25.0705L19.9737 24.982L20.1435 26.1223L20.548 26.0413L20.3337 24.9223L20.8985 24.828C20.1532 24.0818 20.0717 23.9915 20.0357 23.9915Z" fill="#A17E6D"/>
<path d="M26.646 15.1341C27.1488 15.0017 27.6578 14.8946 28.171 14.8131C28.203 14.8069 28.231 14.7886 28.2498 14.7621C28.2683 14.7355 28.2758 14.7028 28.2708 14.6708C28.2655 14.6388 28.2483 14.61 28.2223 14.5905C28.1965 14.5711 28.164 14.5624 28.1318 14.5664C27.61 14.6487 27.0928 14.7571 26.5818 14.8914C26.5498 14.8999 26.5223 14.9209 26.5055 14.9497C26.4888 14.9784 26.484 15.0127 26.4925 15.0449C26.501 15.0771 26.522 15.1046 26.5508 15.1213C26.5798 15.138 26.614 15.1427 26.646 15.1341Z" fill="#A17E6D"/>
<path d="M28.315 15.1605C27.8528 15.253 27.3283 15.3732 26.665 15.539C26.6328 15.547 26.6053 15.5675 26.588 15.5959C26.571 15.6243 26.566 15.6584 26.574 15.6906C26.582 15.7228 26.6025 15.7505 26.6308 15.7676C26.6593 15.7846 26.6933 15.7897 26.7255 15.7817C27.3853 15.6167 27.906 15.4972 28.3645 15.4055C28.3965 15.3983 28.4243 15.379 28.4423 15.3515C28.46 15.3241 28.4663 15.2908 28.4598 15.2587C28.4535 15.2266 28.4345 15.1984 28.4075 15.18C28.3805 15.1616 28.3473 15.1546 28.315 15.1605Z" fill="#A17E6D"/>
<path d="M27.6935 15.9427L26.804 16.1314C26.7873 16.1341 26.7713 16.1401 26.757 16.1492C26.7425 16.1582 26.7303 16.1701 26.7205 16.1841C26.711 16.198 26.7043 16.2138 26.701 16.2305C26.6978 16.2471 26.6978 16.2642 26.7013 16.2808C26.7048 16.2974 26.7118 16.3131 26.7215 16.3269C26.7313 16.3408 26.7437 16.3525 26.7582 16.3614C26.7725 16.3703 26.7888 16.3761 26.8055 16.3786C26.8223 16.381 26.8392 16.38 26.8557 16.3757L27.7453 16.1869C27.762 16.1843 27.778 16.1782 27.7922 16.1692C27.8067 16.1601 27.819 16.1483 27.8288 16.1343C27.8383 16.1203 27.845 16.1045 27.8482 16.0879C27.8515 16.0713 27.8515 16.0542 27.848 16.0376C27.8445 16.021 27.8375 16.0053 27.8277 15.9914C27.818 15.9776 27.8055 15.9659 27.791 15.957C27.7768 15.9481 27.7605 15.9423 27.7437 15.9398C27.727 15.9373 27.71 15.9383 27.6935 15.9427Z" fill="#A17E6D"/>
</svg>
