<svg width="162" height="169" viewBox="0 0 162 169" fill="none" xmlns="http://www.w3.org/2000/svg">
<g filter="url(#filter0_d_2712_12277)">
<path fill-rule="evenodd" clip-rule="evenodd" d="M26.6622 2.03809C14.1462 2.03809 4 12.1843 4 24.7003V108.634C4 121.15 14.1462 131.297 26.6622 131.297H56.6147C61.2529 131.297 65.0129 135.057 65.0129 139.695V139.695C65.0129 152.211 75.1592 162.357 87.6752 162.357H135.338C147.854 162.357 158 152.211 158 139.695V62.3556C158 49.8396 147.854 39.6934 135.338 39.6934H131.105C122.825 39.6934 116.112 32.9807 116.112 24.7003V24.7003C116.112 12.1843 105.966 2.03809 93.4498 2.03809H26.6622Z" fill="#D6D6D6"/>
</g>
<defs>
<filter id="filter0_d_2712_12277" x="0" y="0.0380859" width="162" height="168.319" filterUnits="userSpaceOnUse" color-interpolation-filters="sRGB">
<feFlood flood-opacity="0" result="BackgroundImageFix"/>
<feColorMatrix in="SourceAlpha" type="matrix" values="0 0 0 0 0 0 0 0 0 0 0 0 0 0 0 0 0 0 127 0" result="hardAlpha"/>
<feOffset dy="2"/>
<feGaussianBlur stdDeviation="2"/>
<feComposite in2="hardAlpha" operator="out"/>
<feColorMatrix type="matrix" values="0 0 0 0 0 0 0 0 0 0 0 0 0 0 0 0 0 0 0.25 0"/>
<feBlend mode="normal" in2="BackgroundImageFix" result="effect1_dropShadow_2712_12277"/>
<feBlend mode="normal" in="SourceGraphic" in2="effect1_dropShadow_2712_12277" result="shape"/>
</filter>
</defs>
</svg>
